<?xml version="1.0" encoding="utf-8"?>
<!-- Generator: Adobe Illustrator 23.0.0, SVG Export Plug-In . SVG Version: 6.00 Build 0)  -->
<svg version="1.1"
	 id="svg2" inkscape:version="0.92.3 (2405546, 2018-03-11)" sodipodi:docname="Pinterest_Logo.svg" xmlns:cc="http://creativecommons.org/ns#" xmlns:dc="http://purl.org/dc/elements/1.1/" xmlns:inkscape="http://www.inkscape.org/namespaces/inkscape" xmlns:rdf="http://www.w3.org/1999/02/22-rdf-syntax-ns#" xmlns:sodipodi="http://sodipodi.sourceforge.net/DTD/sodipodi-0.dtd" xmlns:svg="http://www.w3.org/2000/svg"
	 xmlns="http://www.w3.org/2000/svg" xmlns:xlink="http://www.w3.org/1999/xlink" x="0px" y="0px" viewBox="0 0 305 305"
	 style="enable-background:new 0 0 305 305;" xml:space="preserve">
<style type="text/css">
	.st0{fill:#4E7A6E;}
</style>
<path id="path64" class="st0" d="M152.5,0C68.3,0,0,68.3,0,152.5c0,64.6,40.2,119.8,96.9,142c-1.3-12.1-2.5-30.6,0.5-43.8
	c2.8-11.9,17.9-75.8,17.9-75.8s-4.6-9.1-4.6-22.6c0-21.2,12.3-37,27.6-37c13,0,19.3,9.8,19.3,21.5c0,13.1-8.3,32.6-12.6,50.8
	c-3.6,15.2,7.6,27.6,22.6,27.6c27.1,0,47.9-28.6,47.9-69.8c0-36.5-26.2-62-63.7-62c-43.4,0-68.9,32.5-68.9,66.2
	c0,13.1,5,27.2,11.3,34.8c1.2,1.5,1.4,2.8,1.1,4.4c-1.2,4.8-3.7,15.2-4.2,17.3c-0.7,2.8-2.2,3.4-5.1,2c-19-8.9-31-36.7-31-59.1
	c0-48.1,34.9-92.3,100.8-92.3c52.9,0,94,37.7,94,88.1c0,52.6-33.1,94.8-79.1,94.8c-15.5,0-30-8-35-17.5c0,0-7.6,29.1-9.5,36.3
	c-3.4,13.2-12.7,29.8-19,40c14.3,4.4,29.4,6.8,45.1,6.8c84.2,0,152.5-68.3,152.5-152.5C305,68.3,236.7,0,152.5,0L152.5,0z"/>
</svg>
