<?xml version="1.0" encoding="utf-8"?>
<!-- Generator: Adobe Illustrator 23.0.0, SVG Export Plug-In . SVG Version: 6.00 Build 0)  -->
<svg version="1.1" id="Layer_1" xmlns="http://www.w3.org/2000/svg" xmlns:xlink="http://www.w3.org/1999/xlink" x="0px" y="0px"
	 viewBox="0 0 409.9 86.9" style="enable-background:new 0 0 409.9 86.9;" xml:space="preserve">
<g fill="#FFF">
	<path d="M11,64.1c-3.2-1.4-5.8-3.3-7.7-5.7c-1.9-2.4-3-5.2-3.2-8.2h16.8c0.2,1.3,0.8,2.3,1.7,2.9c0.9,0.6,2.1,0.9,3.5,0.9
		c0.9,0,1.6-0.2,2.1-0.6C24.7,53,25,52.5,25,52c0-1-0.6-1.7-1.7-2.1c-1.1-0.4-3-0.9-5.6-1.4c-3.2-0.6-5.9-1.3-7.9-2.1
		s-3.9-2-5.5-3.8C2.8,40.8,2,38.3,2,35.1c0-2.7,0.7-5.2,2.2-7.5c1.4-2.2,3.6-4,6.4-5.3c2.8-1.3,6.3-1.9,10.4-1.9
		c6,0,10.7,1.5,14.1,4.4c3.4,3,5.4,6.8,6.1,11.5H25.6c-0.3-1.2-0.8-2.1-1.7-2.8c-0.8-0.7-2-1-3.4-1c-0.9,0-1.6,0.2-2.1,0.5
		c-0.5,0.3-0.7,0.9-0.7,1.5c0,0.9,0.6,1.6,1.7,2c1.1,0.4,2.9,0.9,5.3,1.4c3.2,0.6,5.9,1.3,8.1,2.1c2.2,0.8,4.1,2.1,5.8,4.1
		c1.6,1.9,2.5,4.6,2.5,7.9c0,2.6-0.8,5-2.3,7.1c-1.5,2.1-3.7,3.8-6.6,5c-2.9,1.2-6.2,1.8-10.1,1.8C17.9,66.1,14.2,65.4,11,64.1z"/>
	<path d="M92.5,21v44.6H75v-6.8c-1.4,2.1-3.2,3.8-5.5,5.1c-2.3,1.3-5,2-8.2,2c-5.1,0-9.1-1.7-12-5.1c-2.9-3.4-4.3-8.1-4.3-13.9V21
		h17.5v23.6c0,2.1,0.6,3.8,1.7,5c1.1,1.2,2.7,1.9,4.5,1.9c2,0,3.5-0.6,4.6-1.9c1.1-1.2,1.7-2.9,1.7-5V21H92.5z"/>
	<path d="M140.9,25.8c2.9,3.4,4.3,8.1,4.3,13.9v25.9h-17.5V41.9c0-2.1-0.6-3.8-1.7-5c-1.1-1.2-2.6-1.9-4.5-1.9c-2,0-3.5,0.6-4.6,1.9
		c-1.1,1.2-1.7,2.9-1.7,5v23.6H97.7V21h17.6v6.8c1.4-2.1,3.2-3.8,5.5-5.1c2.3-1.3,5-2,8.2-2C134,20.6,138,22.4,140.9,25.8z"/>
	<path d="M193.3,25.8c2.9,3.4,4.3,8.1,4.3,13.9v25.9h-17.5V41.9c0-2.1-0.6-3.8-1.7-5c-1.1-1.2-2.6-1.9-4.5-1.9c-2,0-3.5,0.6-4.6,1.9
		c-1.1,1.2-1.7,2.9-1.7,5v23.6H150V21h17.6v6.8c1.4-2.1,3.2-3.8,5.5-5.1c2.3-1.3,5-2,8.2-2C186.4,20.6,190.4,22.4,193.3,25.8z"/>
	<path d="M251.2,21l-28.6,66h-19.2l11.2-23.6L196.1,21h19.5l8.4,22.6l7.8-22.6H251.2z"/>
	<path d="M258.7,64.1c-3.2-1.4-5.8-3.3-7.7-5.7c-1.9-2.4-3-5.2-3.2-8.2h16.8c0.2,1.3,0.8,2.3,1.7,2.9c0.9,0.6,2.1,0.9,3.5,0.9
		c0.9,0,1.6-0.2,2.1-0.6s0.8-0.9,0.8-1.5c0-1-0.6-1.7-1.7-2.1c-1.1-0.4-3-0.9-5.6-1.4c-3.2-0.6-5.9-1.3-7.9-2.1s-3.9-2-5.5-3.8
		c-1.6-1.8-2.3-4.3-2.3-7.4c0-2.7,0.7-5.2,2.2-7.5c1.4-2.2,3.6-4,6.4-5.3c2.8-1.3,6.3-1.9,10.4-1.9c6,0,10.7,1.5,14.1,4.4
		c3.4,3,5.4,6.8,6.1,11.5h-15.6c-0.3-1.2-0.8-2.1-1.7-2.8c-0.8-0.7-2-1-3.4-1c-0.9,0-1.6,0.2-2.1,0.5c-0.5,0.3-0.7,0.9-0.7,1.5
		c0,0.9,0.6,1.6,1.7,2c1.1,0.4,2.9,0.9,5.3,1.4c3.2,0.6,5.9,1.3,8.1,2.1c2.2,0.8,4.1,2.1,5.8,4.1c1.6,1.9,2.5,4.6,2.5,7.9
		c0,2.6-0.8,5-2.3,7.1c-1.5,2.1-3.7,3.8-6.6,5c-2.9,1.2-6.2,1.8-10.1,1.8C265.6,66.1,261.9,65.4,258.7,64.1z"/>
	<path d="M294.5,14.9c-1.8-1.6-2.8-3.7-2.8-6.2c0-2.5,0.9-4.6,2.8-6.3c1.8-1.7,4.3-2.5,7.4-2.5c3,0,5.4,0.8,7.3,2.5
		c1.8,1.7,2.8,3.8,2.8,6.3c0,2.5-0.9,4.5-2.8,6.2c-1.8,1.6-4.3,2.5-7.3,2.5C298.8,17.4,296.4,16.6,294.5,14.9z M310.6,21v44.6H293
		V21H310.6z"/>
	<path d="M315.8,31c1.6-3.5,3.8-6.1,6.6-7.9c2.8-1.8,5.9-2.7,9.4-2.7c2.9,0,5.4,0.6,7.5,1.8c2.1,1.2,3.7,2.8,4.8,4.9V7h17.6v58.5
		H344v-6.1c-1.1,2.1-2.7,3.7-4.8,4.9c-2.1,1.2-4.6,1.8-7.5,1.8c-3.5,0-6.6-0.9-9.4-2.7c-2.8-1.8-5-4.5-6.6-7.9
		c-1.6-3.5-2.4-7.5-2.4-12.2S314.2,34.5,315.8,31z M342.3,37.7c-1.2-1.3-2.8-2-4.7-2c-1.9,0-3.5,0.7-4.7,2c-1.2,1.3-1.8,3.2-1.8,5.5
		c0,2.4,0.6,4.2,1.8,5.5c1.2,1.3,2.8,2,4.7,2c1.9,0,3.5-0.7,4.7-2c1.2-1.3,1.8-3.2,1.8-5.5C344.1,40.9,343.5,39,342.3,37.7z"/>
	<path d="M409.7,46.3h-28.2c0.3,3.8,1.9,5.8,4.8,5.8c1.9,0,3.3-0.9,4.1-2.6H409c-0.6,3.2-2,6-4,8.5s-4.6,4.5-7.7,5.9
		c-3.1,1.5-6.5,2.2-10.2,2.2c-4.4,0-8.4-0.9-11.8-2.8c-3.5-1.8-6.1-4.5-8.1-7.9c-1.9-3.5-2.9-7.5-2.9-12.1c0-4.6,1-8.7,2.9-12.1
		c1.9-3.5,4.6-6.1,8.1-7.9c3.5-1.8,7.4-2.8,11.8-2.8c4.4,0,8.4,0.9,11.8,2.7s6.1,4.4,8.1,7.8c1.9,3.4,2.9,7.4,2.9,11.9
		C409.9,44.1,409.8,45.2,409.7,46.3z M392.1,38.7c0-1.5-0.5-2.6-1.4-3.4c-0.9-0.8-2.1-1.1-3.6-1.1c-3.1,0-4.9,1.5-5.5,4.5H392.1z"/>
</g>
</svg>
