<?xml version="1.0" encoding="utf-8"?>
<!-- Generator: Adobe Illustrator 23.0.0, SVG Export Plug-In . SVG Version: 6.00 Build 0)  -->
<svg version="1.1" id="Layer_1" xmlns="http://www.w3.org/2000/svg" xmlns:xlink="http://www.w3.org/1999/xlink" x="0px" y="0px"
	 viewBox="0 0 104.84 22.23" style="enable-background:new 0 0 104.84 22.23;" xml:space="preserve">
<style type="text/css">
	.st0{fill:#4E7A6E;}
	.st1{fill:#3DBFFF;}
	.st2{fill:#FFD301;}
	.st3{fill:#FFFFFF;}
	.st4{fill:#466961;}
</style>
<g>
	<path class="st0" d="M2.8,16.38c-0.83-0.35-1.49-0.84-1.97-1.46c-0.49-0.62-0.76-1.32-0.83-2.1h4.31c0.05,0.34,0.2,0.59,0.43,0.75
		c0.24,0.16,0.54,0.24,0.9,0.24c0.23,0,0.41-0.05,0.55-0.15s0.2-0.23,0.2-0.37c0-0.26-0.14-0.44-0.42-0.55
		c-0.28-0.11-0.76-0.23-1.44-0.36c-0.82-0.16-1.5-0.34-2.03-0.53s-1-0.51-1.4-0.97c-0.4-0.46-0.6-1.09-0.6-1.9
		c0-0.7,0.19-1.34,0.56-1.91C1.43,6.5,1.98,6.04,2.71,5.71c0.73-0.33,1.61-0.5,2.65-0.5c1.54,0,2.74,0.38,3.61,1.13
		c0.87,0.76,1.39,1.74,1.57,2.95H6.55C6.49,8.99,6.34,8.76,6.13,8.59C5.91,8.42,5.62,8.33,5.26,8.33c-0.23,0-0.4,0.04-0.53,0.13
		C4.61,8.55,4.55,8.68,4.55,8.86c0,0.23,0.14,0.4,0.42,0.52c0.28,0.11,0.73,0.23,1.35,0.35c0.82,0.16,1.52,0.34,2.08,0.55
		c0.57,0.2,1.06,0.55,1.48,1.04s0.63,1.17,0.63,2.03c0,0.67-0.2,1.28-0.59,1.82c-0.39,0.54-0.95,0.96-1.69,1.27
		c-0.74,0.31-1.59,0.47-2.58,0.47C4.58,16.91,3.63,16.73,2.8,16.38z"/>
	<path class="st0" d="M23.67,5.36v11.41h-4.49v-1.74c-0.35,0.54-0.82,0.98-1.41,1.31c-0.59,0.34-1.28,0.51-2.09,0.51
		c-1.31,0-2.33-0.44-3.06-1.31c-0.73-0.88-1.1-2.06-1.1-3.56V5.36h4.47v6.05c0,0.54,0.14,0.97,0.43,1.28s0.68,0.48,1.16,0.48
		c0.5,0,0.89-0.16,1.17-0.48s0.42-0.75,0.42-1.28V5.36H23.67z"/>
	<path class="st0" d="M36.03,6.59c0.73,0.88,1.1,2.06,1.1,3.56v6.61h-4.47v-6.05c0-0.54-0.15-0.97-0.44-1.28
		c-0.29-0.32-0.68-0.48-1.16-0.48c-0.5,0-0.89,0.16-1.17,0.48c-0.28,0.32-0.42,0.75-0.42,1.28v6.05h-4.49V5.36h4.49V7.1
		c0.35-0.54,0.82-0.98,1.41-1.31c0.59-0.34,1.28-0.51,2.09-0.51C34.28,5.28,35.3,5.72,36.03,6.59z"/>
	<path class="st0" d="M49.42,6.59c0.73,0.88,1.1,2.06,1.1,3.56v6.61h-4.47v-6.05c0-0.54-0.15-0.97-0.44-1.28
		c-0.29-0.32-0.68-0.48-1.16-0.48c-0.5,0-0.89,0.16-1.17,0.48c-0.28,0.32-0.42,0.75-0.42,1.28v6.05h-4.49V5.36h4.49V7.1
		c0.35-0.54,0.82-0.98,1.41-1.31c0.59-0.34,1.28-0.51,2.09-0.51C47.67,5.28,48.69,5.72,49.42,6.59z"/>
	<path class="st0" d="M64.24,5.36l-7.3,16.87h-4.92l2.87-6.03L50.14,5.36h5l2.14,5.79l2-5.79H64.24z"/>
	<path class="st0" d="M66.15,16.38c-0.83-0.35-1.49-0.84-1.97-1.46c-0.49-0.62-0.76-1.32-0.83-2.1h4.31
		c0.05,0.34,0.2,0.59,0.43,0.75c0.24,0.16,0.54,0.24,0.9,0.24c0.23,0,0.41-0.05,0.55-0.15s0.2-0.23,0.2-0.37
		c0-0.26-0.14-0.44-0.42-0.55c-0.28-0.11-0.76-0.23-1.44-0.36c-0.82-0.16-1.5-0.34-2.03-0.53s-1-0.51-1.4-0.97
		c-0.4-0.46-0.6-1.09-0.6-1.9c0-0.7,0.19-1.34,0.56-1.91c0.37-0.57,0.92-1.02,1.65-1.36c0.73-0.33,1.61-0.5,2.65-0.5
		c1.54,0,2.74,0.38,3.61,1.13c0.87,0.76,1.39,1.74,1.57,2.95H69.9c-0.07-0.31-0.21-0.55-0.42-0.72c-0.22-0.17-0.51-0.25-0.87-0.25
		c-0.23,0-0.4,0.04-0.53,0.13c-0.12,0.09-0.18,0.22-0.18,0.39c0,0.23,0.14,0.4,0.42,0.52c0.28,0.11,0.73,0.23,1.35,0.35
		c0.82,0.16,1.52,0.34,2.08,0.55c0.57,0.2,1.06,0.55,1.48,1.04s0.63,1.17,0.63,2.03c0,0.67-0.2,1.28-0.59,1.82
		c-0.39,0.54-0.95,0.96-1.69,1.27c-0.74,0.31-1.59,0.47-2.58,0.47C67.94,16.91,66.98,16.73,66.15,16.38z"/>
	<path class="st0" d="M75.33,3.82c-0.47-0.42-0.71-0.94-0.71-1.58c0-0.65,0.24-1.18,0.71-1.61S76.42,0,77.21,0
		c0.77,0,1.39,0.21,1.86,0.64c0.47,0.42,0.71,0.96,0.71,1.61c0,0.63-0.24,1.16-0.71,1.58c-0.47,0.42-1.09,0.63-1.86,0.63
		C76.42,4.45,75.8,4.24,75.33,3.82z M79.43,5.36v11.41h-4.49V5.36H79.43z"/>
	<path class="st0" d="M80.76,7.94c0.41-0.88,0.97-1.56,1.69-2.02c0.71-0.47,1.52-0.7,2.41-0.7c0.74,0,1.38,0.15,1.91,0.46
		c0.53,0.3,0.94,0.72,1.22,1.24V1.8h4.49v14.97h-4.49v-1.56c-0.28,0.53-0.69,0.94-1.22,1.24s-1.17,0.46-1.91,0.46
		c-0.89,0-1.69-0.23-2.41-0.7c-0.71-0.47-1.28-1.14-1.69-2.02c-0.41-0.88-0.62-1.92-0.62-3.13S80.34,8.82,80.76,7.94z M87.54,9.65
		c-0.31-0.34-0.71-0.51-1.19-0.51s-0.88,0.17-1.19,0.51c-0.31,0.34-0.47,0.81-0.47,1.42s0.15,1.08,0.47,1.42
		c0.31,0.34,0.71,0.51,1.19,0.51s0.88-0.17,1.19-0.51s0.47-0.81,0.47-1.42S87.85,9.99,87.54,9.65z"/>
	<path class="st0" d="M104.78,11.85h-7.22c0.07,0.98,0.48,1.48,1.23,1.48c0.49,0,0.84-0.22,1.05-0.67h4.75
		c-0.16,0.81-0.5,1.53-1.02,2.17s-1.17,1.15-1.96,1.52c-0.79,0.37-1.66,0.56-2.6,0.56c-1.13,0-2.14-0.24-3.02-0.71
		c-0.88-0.47-1.57-1.15-2.06-2.03c-0.49-0.88-0.74-1.92-0.74-3.1c0-1.19,0.25-2.22,0.74-3.1c0.49-0.88,1.18-1.56,2.06-2.03
		c0.88-0.47,1.89-0.71,3.02-0.71s2.14,0.23,3.02,0.7s1.57,1.13,2.06,1.99c0.49,0.86,0.74,1.88,0.74,3.05
		C104.84,11.27,104.82,11.57,104.78,11.85z M100.29,9.89c0-0.38-0.12-0.66-0.36-0.86s-0.55-0.29-0.91-0.29
		c-0.8,0-1.26,0.38-1.4,1.15H100.29z"/>
</g>
<text transform="matrix(1 0 0 1 109.3967 -28.6599)"><tspan x="0" y="0" style="font-family:'Poppins-Black'; font-size:20.2272px;">sun</tspan><tspan x="37.78" y="0" style="font-family:'Poppins-Black'; font-size:20.2272px; letter-spacing:-1;">ny</tspan><tspan x="63.35" y="0" style="font-family:'Poppins-Black'; font-size:20.2272px;">side</tspan></text>
<g>
	<path class="st1" d="M21.91-22.31h-11c-4.42,0-8-3.58-8-8v-11c0-4.42,3.58-8,8-8h11c4.42,0,8,3.58,8,8v11
		C29.91-25.89,26.33-22.31,21.91-22.31z"/>
	<path class="st2" d="M22.05-42.86c-0.36-0.31-1.13-0.31-2.05-0.16c0.45,0.21,0.87,0.44,1.22,0.75c0.83,0.71,1.39,1.58,1.7,2.63
		h-3.53c-0.2-0.43-0.48-0.79-0.84-1.07c-0.56-0.44-1.28-0.66-2.15-0.66c-0.72,0-1.28,0.15-1.72,0.47c-0.51,0.37-0.8,0.93-0.8,1.58
		c0,0.47,0.17,1.34,1.3,1.85c0.54,0.25,1.36,0.49,2.49,0.73c1.2,0.25,2.2,0.54,2.98,0.85c0.69,0.27,1.28,0.7,1.81,1.31
		c0.46,0.54,0.7,1.33,0.7,2.33c0,0.8-0.23,1.5-0.69,2.13c-0.48,0.65-1.18,1.18-2.09,1.57c-0.95,0.41-2.1,0.62-3.43,0.62
		c-1.42,0-2.7-0.24-3.8-0.71c-0.72-0.31-1.33-0.7-1.85-1.16l-1.28,0.09l7.37,7.39h4.51c4.42,0,8-3.59,8-8V-35L22.05-42.86z"/>
	<path class="st3" d="M12.76-27.71c-1.23-0.52-2.2-1.25-2.91-2.16c-0.71-0.92-1.11-1.95-1.19-3.11h5.88
		c0.08,0.56,0.34,0.99,0.77,1.3c0.43,0.31,0.97,0.46,1.61,0.46c0.5,0,0.89-0.1,1.18-0.31c0.29-0.21,0.43-0.47,0.43-0.8
		c0-0.43-0.24-0.75-0.71-0.96c-0.47-0.21-1.26-0.43-2.35-0.68c-1.24-0.25-2.27-0.53-3.09-0.84c-0.83-0.31-1.54-0.81-2.15-1.52
		c-0.61-0.7-0.91-1.65-0.91-2.85c0-1.03,0.28-1.96,0.83-2.8c0.56-0.84,1.38-1.5,2.46-1.99c1.08-0.5,2.39-0.74,3.91-0.74
		c2.27,0,4.05,0.56,5.35,1.67c1.3,1.11,2.05,2.58,2.26,4.39h-5.48c-0.1-0.56-0.35-0.98-0.73-1.28c-0.38-0.3-0.89-0.45-1.53-0.45
		c-0.5,0-0.87,0.09-1.13,0.28c-0.26,0.19-0.39,0.44-0.39,0.77c0,0.41,0.24,0.73,0.71,0.94c0.47,0.22,1.24,0.44,2.29,0.66
		c1.26,0.27,2.3,0.57,3.14,0.9c0.83,0.33,1.57,0.86,2.2,1.59c0.63,0.73,0.94,1.73,0.94,2.99c0,1.01-0.29,1.92-0.88,2.72
		c-0.59,0.8-1.42,1.44-2.51,1.9c-1.08,0.46-2.36,0.7-3.82,0.7C15.39-26.92,13.99-27.18,12.76-27.71z"/>
</g>
<g>
	<path class="st1" d="M67.7-22.31h-11c-4.42,0-8-3.58-8-8v-11c0-4.42,3.58-8,8-8h11c4.42,0,8,3.58,8,8v11
		C75.7-25.89,72.12-22.31,67.7-22.31z"/>
	<path class="st4" d="M60.33-32.98l4.78,4.8c0.37-0.09,0.73-0.21,1.05-0.35c0.91-0.39,1.62-0.92,2.09-1.57
		c0.46-0.63,0.69-1.33,0.69-2.13c0-1.01-0.24-1.79-0.7-2.33c-0.53-0.61-1.12-1.04-1.81-1.31c-0.78-0.31-1.79-0.6-2.98-0.85
		c-1.13-0.24-1.95-0.48-2.49-0.73c-1.13-0.51-1.3-1.38-1.3-1.85c0-0.65,0.29-1.22,0.8-1.58c0.44-0.32,1-0.47,1.72-0.47
		c0.86,0,1.59,0.22,2.15,0.66c0.36,0.29,0.64,0.64,0.84,1.07h3.53c-0.3-1.05-0.86-1.92-1.7-2.63c-0.35-0.3-0.77-0.54-1.22-0.75
		c0.92-0.15,1.68-0.14,2.05,0.16L75.7-35v4.69c0,4.41-3.58,8-8,8h-4.51l-7.37-7.39L60.33-32.98z"/>
	<g>
		<path class="st3" d="M58.55-27.71c-1.23-0.52-2.2-1.25-2.91-2.16c-0.71-0.92-1.11-1.95-1.19-3.11h5.88
			c0.08,0.56,0.34,0.99,0.77,1.3c0.43,0.31,0.97,0.46,1.61,0.46c0.5,0,0.89-0.1,1.18-0.31c0.29-0.21,0.43-0.47,0.43-0.8
			c0-0.43-0.24-0.75-0.71-0.96c-0.47-0.21-1.26-0.43-2.35-0.68c-1.24-0.25-2.27-0.53-3.09-0.84c-0.83-0.31-1.54-0.81-2.15-1.52
			c-0.61-0.7-0.91-1.65-0.91-2.85c0-1.03,0.28-1.96,0.83-2.8c0.56-0.84,1.38-1.5,2.46-1.99c1.08-0.5,2.39-0.74,3.91-0.74
			c2.27,0,4.05,0.56,5.35,1.67c1.3,1.11,2.05,2.58,2.26,4.39h-5.48c-0.1-0.56-0.35-0.98-0.73-1.28c-0.38-0.3-0.89-0.45-1.53-0.45
			c-0.5,0-0.87,0.09-1.13,0.28c-0.26,0.19-0.39,0.44-0.39,0.77c0,0.41,0.24,0.73,0.71,0.94c0.47,0.22,1.24,0.44,2.29,0.66
			c1.26,0.27,2.3,0.57,3.14,0.9c0.83,0.33,1.57,0.86,2.2,1.59c0.63,0.73,0.94,1.73,0.94,2.99c0,1.01-0.29,1.92-0.88,2.72
			c-0.59,0.8-1.42,1.44-2.51,1.9c-1.08,0.46-2.36,0.7-3.82,0.7C61.17-26.92,59.77-27.18,58.55-27.71z"/>
	</g>
</g>
</svg>
