<?xml version="1.0" encoding="utf-8"?>
<!-- Generator: Adobe Illustrator 23.0.0, SVG Export Plug-In . SVG Version: 6.00 Build 0)  -->
<svg version="1.1" id="Layer_1" xmlns="http://www.w3.org/2000/svg" xmlns:xlink="http://www.w3.org/1999/xlink" x="0px" y="0px"
	 viewBox="0 0 27 27" style="enable-background:new 0 0 27 27;" xml:space="preserve">
<style type="text/css">
	.st0{fill:#3DBFFF;}
	.st1{fill:#FFD301;}
	.st2{fill:#FFFFFF;}
</style>
<g>
	<path class="st0" d="M19,27H8c-4.4,0-8-3.6-8-8L0,8c0-4.4,3.6-8,8-8l11,0c4.4,0,8,3.6,8,8v11C27,23.4,23.4,27,19,27z"/>
	<path class="st1" d="M19.1,6.5c-0.4-0.3-1.1-0.3-2-0.2C17.5,6.5,18,6.7,18.3,7c0.8,0.7,1.4,1.6,1.7,2.6h-3.5
		c-0.2-0.4-0.5-0.8-0.8-1.1c-0.6-0.4-1.3-0.7-2.1-0.7c-0.7,0-1.3,0.2-1.7,0.5C11.3,8.8,11,9.3,11,10c0,0.5,0.2,1.3,1.3,1.9
		c0.5,0.2,1.4,0.5,2.5,0.7c1.2,0.3,2.2,0.5,3,0.9c0.7,0.3,1.3,0.7,1.8,1.3c0.5,0.5,0.7,1.3,0.7,2.3c0,0.8-0.2,1.5-0.7,2.1
		c-0.5,0.7-1.2,1.2-2.1,1.6c-1,0.4-2.1,0.6-3.4,0.6c-1.4,0-2.7-0.2-3.8-0.7c-0.7-0.3-1.3-0.7-1.8-1.2l-1.3,0.1l7.4,7.4H19
		c4.4,0,8-3.6,8-8v-4.7L19.1,6.5z"/>
	<path class="st2" d="M9.8,21.6c-1.2-0.5-2.2-1.2-2.9-2.2c-0.7-0.9-1.1-2-1.2-3.1h5.9c0.1,0.6,0.3,1,0.8,1.3c0.4,0.3,1,0.5,1.6,0.5
		c0.5,0,0.9-0.1,1.2-0.3c0.3-0.2,0.4-0.5,0.4-0.8c0-0.4-0.2-0.8-0.7-1c-0.5-0.2-1.3-0.4-2.4-0.7c-1.2-0.2-2.3-0.5-3.1-0.8
		c-0.8-0.3-1.5-0.8-2.1-1.5c-0.6-0.7-0.9-1.7-0.9-2.8c0-1,0.3-2,0.8-2.8c0.6-0.8,1.4-1.5,2.5-2c1.1-0.5,2.4-0.7,3.9-0.7
		c2.3,0,4.1,0.6,5.4,1.7c1.3,1.1,2.1,2.6,2.3,4.4h-5.5c-0.1-0.6-0.3-1-0.7-1.3c-0.4-0.3-0.9-0.4-1.5-0.4c-0.5,0-0.9,0.1-1.1,0.3
		C12.1,9.4,12,9.7,12,10c0,0.4,0.2,0.7,0.7,0.9c0.5,0.2,1.2,0.4,2.3,0.7c1.3,0.3,2.3,0.6,3.1,0.9c0.8,0.3,1.6,0.9,2.2,1.6
		c0.6,0.7,0.9,1.7,0.9,3c0,1-0.3,1.9-0.9,2.7c-0.6,0.8-1.4,1.4-2.5,1.9c-1.1,0.5-2.4,0.7-3.8,0.7C12.5,22.4,11.1,22.1,9.8,21.6z"/>
</g>
</svg>
