<?xml version="1.0" encoding="utf-8"?>
<!-- Generator: Adobe Illustrator 23.0.0, SVG Export Plug-In . SVG Version: 6.00 Build 0)  -->
<svg version="1.1" id="Layer_1" xmlns="http://www.w3.org/2000/svg" xmlns:xlink="http://www.w3.org/1999/xlink" x="0px" y="0px"
	 viewBox="0 0 27 27" style="enable-background:new 0 0 27 27;" xml:space="preserve">
<style type="text/css">
	.st0{fill:#3DBFFF;}
	.st1{fill:#466961;}
	.st2{fill:#FFFFFF;}
</style>
<g>
	<path class="st0" d="M19,27H8c-4.4,0-8-3.6-8-8L0,8c0-4.4,3.6-8,8-8l11,0c4.4,0,8,3.6,8,8v11C27,23.4,23.4,27,19,27z"/>
	<path class="st1" d="M11.6,16.3l4.8,4.8c0.4-0.1,0.7-0.2,1.1-0.4c0.9-0.4,1.6-0.9,2.1-1.6c0.5-0.6,0.7-1.3,0.7-2.1
		c0-1-0.2-1.8-0.7-2.3c-0.5-0.6-1.1-1-1.8-1.3c-0.8-0.3-1.8-0.6-3-0.9c-1.1-0.2-1.9-0.5-2.5-0.7C11.1,11.3,11,10.5,11,10
		c0-0.7,0.3-1.2,0.8-1.6c0.4-0.3,1-0.5,1.7-0.5c0.9,0,1.6,0.2,2.1,0.7c0.4,0.3,0.6,0.6,0.8,1.1H20c-0.3-1.1-0.9-1.9-1.7-2.6
		c-0.4-0.3-0.8-0.5-1.2-0.7c0.9-0.1,1.7-0.1,2,0.2l7.9,7.9V19c0,4.4-3.6,8-8,8h-4.5l-7.4-7.4L11.6,16.3z"/>
	<g>
		<path class="st2" d="M9.8,21.6c-1.2-0.5-2.2-1.2-2.9-2.2c-0.7-0.9-1.1-2-1.2-3.1h5.9c0.1,0.6,0.3,1,0.8,1.3c0.4,0.3,1,0.5,1.6,0.5
			c0.5,0,0.9-0.1,1.2-0.3c0.3-0.2,0.4-0.5,0.4-0.8c0-0.4-0.2-0.8-0.7-1c-0.5-0.2-1.3-0.4-2.4-0.7c-1.2-0.2-2.3-0.5-3.1-0.8
			c-0.8-0.3-1.5-0.8-2.1-1.5c-0.6-0.7-0.9-1.7-0.9-2.8c0-1,0.3-2,0.8-2.8c0.6-0.8,1.4-1.5,2.5-2c1.1-0.5,2.4-0.7,3.9-0.7
			c2.3,0,4.1,0.6,5.4,1.7c1.3,1.1,2.1,2.6,2.3,4.4h-5.5c-0.1-0.6-0.3-1-0.7-1.3c-0.4-0.3-0.9-0.4-1.5-0.4c-0.5,0-0.9,0.1-1.1,0.3
			C12.1,9.4,12,9.7,12,10c0,0.4,0.2,0.7,0.7,0.9c0.5,0.2,1.2,0.4,2.3,0.7c1.3,0.3,2.3,0.6,3.1,0.9c0.8,0.3,1.6,0.9,2.2,1.6
			c0.6,0.7,0.9,1.7,0.9,3c0,1-0.3,1.9-0.9,2.7c-0.6,0.8-1.4,1.4-2.5,1.9c-1.1,0.5-2.4,0.7-3.8,0.7C12.5,22.4,11.1,22.1,9.8,21.6z"/>
	</g>
</g>
</svg>
