<?xml version="1.0" encoding="utf-8"?>
<!-- Generator: Adobe Illustrator 23.0.0, SVG Export Plug-In . SVG Version: 6.00 Build 0)  -->
<svg version="1.1"
	 id="svg3070" inkscape:version="0.48.0 r9654" sodipodi:docname="New document 4" xmlns:cc="http://creativecommons.org/ns#" xmlns:dc="http://purl.org/dc/elements/1.1/" xmlns:inkscape="http://www.inkscape.org/namespaces/inkscape" xmlns:rdf="http://www.w3.org/1999/02/22-rdf-syntax-ns#" xmlns:sodipodi="http://sodipodi.sourceforge.net/DTD/sodipodi-0.dtd" xmlns:svg="http://www.w3.org/2000/svg"
	 xmlns="http://www.w3.org/2000/svg" xmlns:xlink="http://www.w3.org/1999/xlink" x="0px" y="0px" viewBox="0 0 73.6 73.6"
	 style="enable-background:new 0 0 73.6 73.6;" xml:space="preserve">
<style type="text/css">
	.st0{fill:#006699;}
	.st1{fill-rule:evenodd;clip-rule:evenodd;fill:#FFFFFF;}
</style>
<sodipodi:namedview  bordercolor="#666666" borderopacity="1.0" fit-margin-bottom="0" fit-margin-left="0" fit-margin-right="0" fit-margin-top="0" id="base" inkscape:current-layer="layer1" inkscape:cx="142.93233" inkscape:cy="33.703355" inkscape:document-units="px" inkscape:pageopacity="0.0" inkscape:pageshadow="2" inkscape:window-height="750" inkscape:window-maximized="1" inkscape:window-width="1280" inkscape:window-x="-8" inkscape:window-y="-8" inkscape:zoom="2.8" pagecolor="#ffffff" showgrid="false">
	</sodipodi:namedview>
<g>
	<path id="path14" inkscape:connector-curvature="0" class="st0" d="M0.4,5.4c0-2.9,2.4-5.2,5.4-5.2h62c3,0,5.4,2.3,5.4,5.2v62.8
		c0,2.9-2.4,5.2-5.4,5.2h-62c-3,0-5.4-2.3-5.4-5.2C0.4,68.2,0.4,5.4,0.4,5.4z"/>
	<path id="path28" inkscape:connector-curvature="0" class="st1" d="M22.5,61.5V28.4h-11v33.1C11.5,61.5,22.5,61.5,22.5,61.5z
		 M17,23.9c3.8,0,6.2-2.5,6.2-5.7c-0.1-3.2-2.4-5.7-6.1-5.7c-3.8,0-6.2,2.5-6.2,5.7C10.8,21.4,13.2,23.9,17,23.9L17,23.9L17,23.9z"
		/>
	<path id="path30" inkscape:connector-curvature="0" class="st1" d="M28.6,61.5h11V43c0-1,0.1-2,0.4-2.7c0.8-2,2.6-4,5.6-4
		c4,0,5.6,3,5.6,7.5v17.7h11v-19c0-10.2-5.4-14.9-12.7-14.9c-5.9,0-8.5,3.3-10,5.6h0.1v-4.8h-11C28.7,31.5,28.6,61.5,28.6,61.5
		L28.6,61.5z"/>
</g>
</svg>
