<?xml version="1.0" encoding="utf-8"?>
<!-- Generator: Adobe Illustrator 23.0.0, SVG Export Plug-In . SVG Version: 6.00 Build 0)  -->
<svg version="1.1" id="Layer_1" xmlns="http://www.w3.org/2000/svg" xmlns:xlink="http://www.w3.org/1999/xlink" x="0px" y="0px"
	 viewBox="0 0 500 114.2" style="enable-background:new 0 0 500 114.2;" xml:space="preserve">
<style type="text/css">
	.st0{fill:#FFFFFF;}
</style>
<g>
	<path class="st0" d="M105.4,35.1c1.1,6.2-1.1,12.3-4.9,17.2c-3.4,4.3-8,7.7-12.9,10c-12,5.7-27.1,6.4-40,2c0.5-0.8,1-1.6,1.5-2.4
		c5.4-8.3,10.6-16.8,16.2-24.9c6.3-9,17.9-21,30-15.4C100.6,24.2,104.3,29.3,105.4,35.1z M17.7,74.3c5.3-0.7,11.5,0.3,16.3,3.2
		c2.4-3.6,4.7-7.2,7-10.8c-9.4-5-17-12.9-20.7-23.6c-0.6-1.9,2.2-2.6,2.9-0.8C27,52,34.6,58.8,43.6,62.8l0.6-0.9
		c4.2-6.4,8.4-12.9,12.6-19.3c3.7-5.6,7-11.6,11.3-16.7c5.4-6.5,11.9-12.3,20.3-14.2c0.9-0.2,1.9-0.4,2.8-0.4
		C81.7,4.2,69.9,0,57.1,0C25.6,0,0,25.6,0,57.1c0,9.1,2.2,17.8,6,25.5C8,78.1,12.8,75,17.7,74.3z M80.4,92.5
		c-0.8-1.2-1.4-2.6-1.9-3.9c-1,2.3-2.7,4.2-5.4,4.2c-2.1,0.1-4-0.9-5.5-2.4c-2.6,3.7-8.4,4.7-12,1.8c-1.4,2-3.5,3.5-6,3.7
		c-2.3,0.1-4.6-0.8-6.4-2.3c-1.6-1.3-2.9-3-4.2-4.7c-0.7-0.9-1.3-1.7-2-2.6L34.9,84c-0.6,0.9-1.2,1.7-1.8,2.6
		c-3.8,5.4-9,11.3-16.3,11.1l0,0c10.3,10.3,24.6,16.6,40.3,16.6c15.5,0,29.6-6.2,39.9-16.3C90.8,99.4,84,98,80.4,92.5z M104,62.3
		c-15.7,12.4-40.3,14.5-59.2,6.2c-2.5,3.9-4.9,7.8-7.4,11.6l0.6,0.7c1.1,1.3,2.2,2.7,3.2,4.1c0-0.9,0.2-1.9,0.5-2.8
		c1.7-5,5.9-8.5,11.3-8.1c4.7,0.4,8.6,4.2,7.5,9.1c-0.4,1.9-3.6,2-3.9,0c-0.9-5.6-7.8-5.4-10-0.6c-1,2.2-0.8,5,0.7,7
		c2.1,2.7,5.1,0.6,5.4-2.4c0.2-2.5,4-3.4,4.6-0.6c1.1,5,8.7,4.1,7.3-1.2c-0.7-2.5,3.2-3.6,3.9-1.1c0.5,1.7,1.8,4.9,4,5
		c3.4,0.1,4-5.6,4.2-7.9c0.2-2,2.8-2,3,0c0.4,3.2,0.5,6.5,2.4,9.3c3.2,4.7,9.7,4.9,14.6,3.2l0.6-0.2c3.9-1.5,7.2-4.5,9.2-8.1
		c4.7-8.3,7.4-17.9,7.4-28.2c0-2.5-0.2-5-0.5-7.4C111.5,54.6,108.1,59.1,104,62.3z M17.6,93.1c6.6-0.5,10.7-6.9,14-11.9
		c-0.3-0.2-0.6-0.4-1-0.5c-4.4-2.1-9.9-3.1-14.6-1.3c-3.5,1.3-7.5,4.7-6.3,8.9C10.6,91.6,14.4,93.4,17.6,93.1z"/>
	<rect x="131.9" y="31.2" class="st0" width="9.8" height="51.8"/>
	<path class="st0" d="M146.6,53c1.6-3,3.7-5.4,6.4-7s5.7-2.5,9-2.5c2.9,0,5.4,0.6,7.6,1.8c2.2,1.2,3.9,2.6,5.2,4.4v-5.5h9.8V83h-9.8
		v-5.7c-1.3,1.8-3,3.3-5.2,4.5s-4.8,1.8-7.6,1.8c-3.3,0-6.2-0.8-8.9-2.5s-4.8-4.1-6.4-7.1c-1.6-3.1-2.3-6.6-2.3-10.6
		C144.3,59.5,145.1,56,146.6,53z M173.2,57.7c-0.9-1.7-2.2-3-3.8-3.9s-3.3-1.4-5.1-1.4s-3.5,0.4-5,1.3c-1.5,0.9-2.8,2.2-3.7,3.9
		c-1,1.7-1.4,3.7-1.4,6c0,2.3,0.5,4.4,1.4,6.1c1,1.7,2.2,3.1,3.8,4s3.2,1.4,5,1.4s3.5-0.5,5.1-1.4s2.8-2.2,3.8-3.9
		c0.9-1.7,1.4-3.7,1.4-6.1C174.6,61.4,174.1,59.4,173.2,57.7z"/>
	<path class="st0" d="M223.9,44.2V83h-9.8v-4.9c-1.3,1.7-2.9,3-4.9,4s-4.2,1.4-6.6,1.4c-3,0-5.7-0.6-8-1.9s-4.1-3.2-5.5-5.7
		c-1.3-2.5-2-5.5-2-8.9V44.2h9.8v21.3c0,3.1,0.8,5.4,2.3,7.1c1.5,1.6,3.6,2.5,6.2,2.5c2.7,0,4.8-0.8,6.3-2.5c1.5-1.6,2.3-4,2.3-7.1
		V44.2H223.9z"/>
	<path class="st0" d="M241.3,45.4c2-1.2,4.4-1.8,7-1.8V54h-2.6c-3.1,0-5.4,0.7-7,2.2s-2.3,4-2.3,7.6V83h-9.8V44.2h9.8v6.1
		C237.6,48.2,239.2,46.5,241.3,45.4z"/>
	<path class="st0" d="M286.4,66.7h-28.2c0.2,2.8,1.2,5,2.9,6.6c1.7,1.6,3.8,2.4,6.3,2.4c3.6,0,6.2-1.6,7.7-4.7h10.5
		c-1.1,3.7-3.3,6.8-6.4,9.2c-3.2,2.4-7,3.6-11.6,3.6c-3.7,0-7.1-0.8-10-2.5c-3-1.6-5.3-4-6.9-7c-1.6-3-2.5-6.5-2.5-10.5
		s0.8-7.5,2.4-10.5c1.6-3,3.9-5.3,6.8-7c2.9-1.6,6.3-2.4,10.1-2.4c3.7,0,7,0.8,9.9,2.4c2.9,1.6,5.2,3.8,6.8,6.7
		c1.6,2.9,2.4,6.2,2.4,10C286.6,64.3,286.6,65.6,286.4,66.7z M276.5,60.1c0-2.5-1-4.5-2.7-6c-1.8-1.5-3.9-2.3-6.5-2.3
		c-2.4,0-4.4,0.7-6.1,2.2s-2.7,3.5-3,6.1H276.5z"/>
	<path class="st0" d="M321.8,48.3c2.8,2.9,4.3,7,4.3,12.2v22.7h-9.8V61.7c0-3.1-0.8-5.4-2.3-7.1c-1.5-1.6-3.6-2.5-6.3-2.5
		c-2.7,0-4.8,0.8-6.4,2.5c-1.6,1.6-2.3,4-2.3,7.1V83h-9.8V44.5h9.8v4.8c1.3-1.7,3-3,5-3.9c2-1,4.2-1.4,6.7-1.4
		C315.2,43.9,319,45.4,321.8,48.3z"/>
	<path class="st0" d="M341.5,52.5v18.7c0,1.3,0.3,2.2,0.9,2.8c0.6,0.6,1.7,0.9,3.2,0.9h4.5v8.2H344c-8.2,0-12.3-4-12.3-12V52.5h-4.6
		v-8h4.6V35h9.8v9.5h8.6v8H341.5z"/>
	<path class="st0" d="M353.6,38.2c-1.1-1.1-1.7-2.5-1.7-4.1s0.6-3,1.7-4.1s2.6-1.6,4.3-1.6c1.7,0,3.1,0.5,4.3,1.6
		c1.1,1.1,1.7,2.5,1.7,4.1c0,1.6-0.6,3-1.7,4.1s-2.6,1.6-4.3,1.6C356.2,39.9,354.8,39.3,353.6,38.2z M362.7,44.5v38.6H353V44.5
		H362.7z"/>
	<path class="st0" d="M402.1,44.5v38.6h-9.8v-4.9c-1.3,1.7-2.9,3-4.9,3.9c-2,1-4.2,1.4-6.6,1.4c-3,0-5.7-0.6-8-1.9s-4.1-3.2-5.5-5.6
		c-1.3-2.5-2-5.4-2-8.9V44.5h9.8v21.3c0,3.1,0.8,5.4,2.3,7.1c1.5,1.6,3.6,2.5,6.3,2.5c2.7,0,4.8-0.8,6.3-2.5c1.5-1.6,2.3-4,2.3-7.1
		V44.5H402.1z"/>
	<path class="st0" d="M419.7,45.6c2.2-1.2,4.7-1.8,7.6-1.8c3.3,0,6.3,0.8,9,2.4c2.7,1.6,4.8,3.9,6.3,6.9c1.6,3,2.3,6.5,2.3,10.4
		s-0.8,7.4-2.3,10.5c-1.6,3-3.7,5.4-6.3,7.1c-2.7,1.7-5.7,2.5-9,2.5c-2.8,0-5.3-0.6-7.5-1.7c-2.2-1.2-3.9-2.6-5.3-4.4v23.9h-9.8v-57
		h9.8V50C415.7,48.3,417.4,46.8,419.7,45.6z M433.5,57.6c-1-1.7-2.2-3-3.8-3.9c-1.6-0.9-3.2-1.3-5.1-1.3c-1.8,0-3.4,0.5-5,1.4
		s-2.8,2.2-3.8,3.9s-1.4,3.7-1.4,6.1c0,2.3,0.5,4.3,1.4,6.1c1,1.7,2.2,3,3.8,3.9c1.6,0.9,3.2,1.4,5,1.4s3.5-0.5,5.1-1.4
		s2.8-2.3,3.8-4s1.4-3.8,1.4-6.1C434.9,61.3,434.4,59.3,433.5,57.6z"/>
	<path class="st0" d="M449.8,53.2c1.6-3,3.7-5.3,6.3-7c2.7-1.6,5.7-2.4,9-2.4c2.9,0,5.4,0.6,7.6,1.7c2.2,1.2,3.9,2.6,5.2,4.4v-5.5
		h9.8V83h-9.8v-5.6c-1.3,1.8-3,3.3-5.2,4.5s-4.8,1.8-7.6,1.8c-3.3,0-6.2-0.8-8.9-2.5c-2.7-1.7-4.8-4-6.3-7.1
		c-1.6-3-2.3-6.5-2.3-10.5C447.4,59.7,448.2,56.3,449.8,53.2z M476.4,57.7c-0.9-1.7-2.2-3-3.8-3.9c-1.6-0.9-3.3-1.4-5.1-1.4
		c-1.8,0-3.5,0.4-5,1.3c-1.5,0.9-2.8,2.2-3.7,3.9c-1,1.7-1.4,3.7-1.4,6c0,2.3,0.5,4.4,1.4,6.1c1,1.7,2.2,3.1,3.8,4
		c1.6,0.9,3.2,1.4,5,1.4s3.5-0.5,5.1-1.4s2.8-2.2,3.8-3.9c0.9-1.7,1.4-3.7,1.4-6.1C477.8,61.4,477.4,59.4,476.4,57.7z"/>
	<rect x="490.2" y="31.5" class="st0" width="9.8" height="51.6"/>
</g>
</svg>
