<?xml version="1.0" encoding="utf-8"?>
<!-- Generator: Adobe Illustrator 23.0.0, SVG Export Plug-In . SVG Version: 6.00 Build 0)  -->
<svg version="1.1" baseProfile="tiny"
	 id="svg32847" xmlns:cc="http://creativecommons.org/ns#" xmlns:dc="http://purl.org/dc/elements/1.1/" xmlns:inkscape="http://www.inkscape.org/namespaces/inkscape" xmlns:rdf="http://www.w3.org/1999/02/22-rdf-syntax-ns#" xmlns:sodipodi="http://sodipodi.sourceforge.net/DTD/sodipodi-0.dtd"
	 xmlns="http://www.w3.org/2000/svg" xmlns:xlink="http://www.w3.org/1999/xlink" x="0px" y="0px" viewBox="0 0 111.3 89.6"
	 xml:space="preserve">
<g display="none">
	<path display="inline" fill="#FFFFFF" d="M0.8-34.4c-1,0-2-0.2-2.8-0.7c-2.2-1.3-3.5-4-3.5-7.2c0-3.4,1.6-7.9,6-10.5
		c1.6-0.9,3-1.8,4.7-2.8c2.2-1.4,4.8-3,8.5-5.2l-0.3-0.9c-5.2,0.4-11.8,0.9-16.3,1.9c-0.7,0.2-1.4,0.2-2,0.2c-1.8,0-3.4-0.6-4.5-1.9
		c-1.7-1.9-2.1-4.8-1.1-7.8c1.4-4.1,5-7.1,9.7-8c4.3-0.9,8.3-1.3,12.1-1.7c3.5-0.4,6.7-0.7,10.3-1.3l0.4-0.1l0-0.4
		c0-0.2,0-0.5,0.1-0.7c0.3-3.2,0.9-9.8,8.6-13.5c2.7-1.3,6.3-2,10.3-2c6,0,12.3,1.5,17.2,4.2l0.3,0.2l0.3-0.3
		c1.1-1.2,2.5-1.8,4.1-1.8c1.8,0,3.9,0.8,5.8,2.2c0.1,0.1,0.2,0.2,0.3,0.3l0.2,0.2l17.3-7.8c1.1-0.5,2.3-0.8,3.6-0.8
		c3.1,0,6,1.7,7.5,4.4c1.1,2.1,1.4,4.4,0.7,6.7c-0.7,2.3-2.2,4.1-4.3,5.2L77.9-76l0.1,0.4c0.2,1.1,0.3,2,0.2,2.8
		c-0.3,3.1-1,5.1-2.5,6.2c-0.8,0.6-1.8,1-3,1c-0.1,0-0.2,0-0.3,0l-0.5,0l-0.1,0.4c-2.3,8-6.9,14.1-14.7,19.3
		c-2.5,1.6-5.7,3.2-8.7,4.2c-2.3,0.7-4.6,1.1-6.9,1.1c-5,0-10.3-1.7-15.7-5.1l-0.2-0.1l-0.2,0.1c-5.8,2.3-12.9,5.9-20,10
		C3.7-34.9,2.2-34.4,0.8-34.4z"/>
	<path display="inline" d="M56.6-62.4c-0.3,0-0.6-0.1-0.8-0.4c-0.3-0.4-0.2-1.1,0.2-1.4c0.6-0.4,1.2-0.8,1.7-1.2
		c1.7-1.1,3.4-2.3,6.7-5.6c0.4-0.4,1-0.4,1.4,0c0.4,0.4,0.4,1,0,1.4c-3.5,3.5-5.3,4.7-7,5.8c-0.5,0.4-1.1,0.7-1.6,1.1
		C57.1-62.4,56.9-62.4,56.6-62.4z M50.4-68c1.1-0.5,2.2-1,3.2-1.5c2.9-1.3,5.9-2.7,10.4-5.3c0.5-0.3,0.6-0.9,0.3-1.4
		c-0.3-0.5-0.9-0.6-1.4-0.3c-4.4,2.6-7.3,3.9-10.2,5.2c-1,0.5-2.1,0.9-3.2,1.5C49-69.6,48.8-69,49-68.5c0.2,0.4,0.5,0.6,0.9,0.6
		C50.1-67.9,50.2-67.9,50.4-68z M51.8-77.8c0.7-0.2,1.3-0.4,1.9-0.6c2.1-0.6,4.3-1.2,7.8-2.7c0.5-0.2,0.7-0.8,0.5-1.3
		c-0.2-0.5-0.8-0.7-1.3-0.5c-3.4,1.4-5.5,2-7.6,2.6c-0.6,0.2-1.3,0.4-2,0.6c-0.5,0.2-0.8,0.7-0.7,1.2c0.1,0.4,0.5,0.7,1,0.7
		C51.6-77.8,51.7-77.8,51.8-77.8z"/>
	<path display="inline" d="M98.2-96.3c-2.3-4.2-7.3-5.8-11.7-3.9l-17.1,7.7c-0.1-0.1-0.2-0.2-0.3-0.3c-4.1-3-8.2-3.1-10.6-0.3
		c-8.7-4.8-21-5.6-28-2.3l0,0c-7.9,3.8-8.6,10.6-8.9,13.9c0,0.2,0,0.5-0.1,0.7c-3.5,0.6-6.8,1-10.2,1.3c-3.8,0.4-7.8,0.8-12.1,1.7
		c-4.9,1-8.7,4.1-10.1,8.4c-1,3.1-0.6,6.3,1.2,8.3c1.6,1.8,4.1,2.4,7,1.8c4.4-1,10.6-1.5,16.2-1.9c-3.8,2.1-6.4,3.8-8.6,5.2
		c-1.7,1-3.1,1.9-4.6,2.8C-4.3-50.6-6-45.9-6-42.4c0,3.4,1.4,6.3,3.7,7.6c0.8,0.4,1.8,0.8,3.1,0.8c1.3,0,2.9-0.4,4.8-1.5
		c7.1-4.1,14.1-7.7,19.9-10c8,5,15.8,6.4,23.1,4c3.1-1.1,6.3-2.6,8.8-4.3c7.9-5.2,12.7-11.4,14.9-19.6c0.1,0,0.3,0,0.4,0
		c1.3,0,2.4-0.4,3.3-1.1c1.5-1.2,2.4-3.3,2.6-6.5c0.1-0.9,0-1.9-0.2-3l15.9-8.1c2.2-1.1,3.8-3.1,4.6-5.4S99.4-94.1,98.2-96.3z
		 M70.2-66.9c-2,8-6.5,14.1-14.2,19.2c-2.4,1.5-5.4,3-8.3,4c-6,2-12.5,1-19.3-2.8c3.5-1.2,6.7-2.4,10.5-3.8
		c-3.8-0.3-9.4,0.7-13.7,2.4l0,0c-6,2.4-13.4,6.1-20.9,10.4c-2.1,1.2-4,1.5-5.4,0.7c-1.5-0.9-2.5-3-2.5-5.5c0-2.8,1.3-6.7,5-8.8
		C3.1-52.1,4.6-53,6.2-54c2-1.3,4-2.5,6.1-3.7c1.4-0.8,2.8-1.6,4.2-2.4c1.3-0.7,2.6-1.5,4.1-1.9c1.4-0.4,2.8-0.6,4.2-0.8
		c2.5-0.4,5.1-0.7,7.6-1c-0.3,0-0.7-0.1-1-0.1c-0.4-0.1-0.8-0.1-1.2-0.2c-3.1-0.5-6.2-0.4-9.4-0.2c-5.6,0.4-11.2,1-16.9,1.5
		c-2.4,0.3-4.8,0.7-7.2,1.1c-2,0.4-3.6,0.1-4.6-1c-1.2-1.3-1.5-3.6-0.7-5.9c1.1-3.4,4.2-5.9,8.2-6.7c4.3-0.8,8.1-1.2,11.9-1.6
		c4-0.4,8.1-0.8,12.1-1.7c3.3-0.8,6.6-2,9.1-4.3c1.8-1.6,2.9-3.7,4.2-5.7c0.4-0.6,0.8-1.4,1.3-1.9c-3.6,3.5-6,7.4-14.2,9.4
		c0.3-3.3,0.8-8.7,7.5-11.8C39.6-97,56-94.6,63-86.5C66.6-82.2,71.4-71.5,70.2-66.9z M76.2-73c-0.2,2.5-0.8,4.1-1.7,4.8
		c-0.4,0.3-1,0.5-1.7,0.5c0.5-6.2-4.7-16.6-8-20.4c-1.2-1.4-2.6-2.6-4.2-3.7c1.9-1.7,4.8-0.7,7,1C71.3-88.1,76.6-77.9,76.2-73z
		 M96.6-90c-0.5,1.7-1.7,3.2-3.3,4l-15.4,7.8c-1.3-4.4-4-9.4-6.6-12.5l16.2-7.3c3.2-1.4,6.8-0.2,8.5,2.8
		C96.9-93.5,97.1-91.7,96.6-90z"/>
</g>
<g>
	<path fill="#FFFFFF" d="M27.5,89.1c-2.9,0-4.2-1.6-4.7-2.9c-1.2-2.9,0-7.3,2.6-9.5c1.4-1.2,6.3-6.4,8.8-9.6l1.1-1.4l-1.7,0.6
		c-5.5,2.1-11.9,5-18.3,8.3c-1.5,0.8-3,1.2-4.3,1.2C10,75.9,8.9,75.6,8,75c-2.1-1.3-3.3-4.1-3.2-7.4c0.2-3.4,1.9-7.9,6.5-10.2
		c1.6-0.8,3.1-1.7,4.8-2.6c2.3-1.3,4.9-2.8,8.8-4.8l-0.2-0.9c-5.3,0.2-11.8,0.4-16.3,1.2c-0.6,0.1-1.1,0.1-1.6,0.1
		c-2,0-3.7-0.7-4.8-2.1c-1.6-1.9-1.9-4.9-0.8-7.8c1.5-4,5.3-6.9,10.1-7.6c1.9-0.3,4-0.5,6.5-0.8c7.9-0.9,18.7-2.2,28.6-5.8l0.9-0.3
		l-0.8-0.5c-4.1-2.6-9.5-6.7-10.3-12.4c-0.5-3.7,1-7.4,4.6-11.2l0,0c0.9-0.9,1.8-1.3,2.9-1.3c0.2,0,0.3,0,0.5,0
		c3.2,0.4,7.2,4.6,11.8,12.5c0.6,1,2.9,2.1,6.7,3.7c2.5,1.1,5.4,2.3,8,3.8l0.3,0.2l0.3-0.3c0.9-1,2.1-1.7,3.5-1.8c0.2,0,0.4,0,0.6,0
		c1.9,0,4,0.9,6,2.5c0.4,0.3,0.8,0.7,1.2,1.2l0.2,0.2l16.5-6c1-0.3,2-0.5,3-0.5c3.4,0,6.3,1.9,7.8,5c1,2.1,1.1,4.5,0.2,6.7
		c-0.9,2.2-2.5,3.9-4.7,4.8L89.9,39l0,0.3c0,0.6,0,1.1-0.1,1.6c-0.4,3.1-1.3,5-2.7,6.1c-0.8,0.6-1.7,0.8-2.8,0.8c-0.2,0-0.4,0-0.6,0
		l-0.4,0l-0.1,0.4c-2.6,7.9-7.6,13.8-15.6,18.6c-2.6,1.5-5.8,2.9-8.9,3.8c-5.4,1.6-14.6,8-21.3,12.8c-5.8,4.1-8.1,5.7-9.2,5.8
		C28,89.1,27.7,89.1,27.5,89.1z"/>
	<path d="M110.5,20.8c-2-4.3-6.9-6.3-11.3-4.7L83,21.9c-0.4-0.5-0.9-0.9-1.3-1.3c-2.3-1.9-4.8-2.8-7-2.6c-1.5,0.2-2.8,0.9-3.8,2
		c-2.7-1.5-5.5-2.8-8.1-3.8c-2.9-1.2-5.9-2.5-6.5-3.5C51.6,4.7,47.5,0.4,44.2,0c-1.4-0.2-2.8,0.3-3.8,1.5l0,0
		c-3.7,3.9-5.3,7.8-4.7,11.6c0.8,5.5,5.7,9.6,10.6,12.7c-9.8,3.6-20.5,4.9-28.5,5.8c-2.5,0.3-4.6,0.5-6.5,0.8
		c-4.9,0.8-8.8,3.7-10.4,7.9c-1.2,3.1-0.9,6.3,0.8,8.3c1.5,1.9,4,2.6,6.9,2.1c4.4-0.8,10.7-1,16.3-1.2c-3.9,2-6.5,3.5-8.8,4.8
		c-1.7,1-3.2,1.8-4.8,2.6c-4.7,2.4-6.6,7.1-6.8,10.6c-0.2,3.4,1.1,6.4,3.4,7.8c1.5,1,4.1,1.7,7.9-0.3c6.4-3.4,12.7-6.3,18.2-8.3
		c-2.5,3.2-7.4,8.4-8.8,9.5c-2.7,2.3-4,7-2.7,10.1c0.5,1.2,1.8,3.2,5.2,3.2c0.2,0,0.5,0,0.8,0c1.2-0.1,3.4-1.6,9.4-5.8
		C44.4,79,53.5,72.6,58.8,71c3.1-0.9,6.4-2.3,9-3.9c8.1-4.8,13.1-10.8,15.8-18.8c0.2,0,0.5,0,0.7,0c1.2,0,2.2-0.3,3-0.9
		c1.6-1.1,2.5-3.2,2.9-6.4c0.1-0.5,0.1-1.1,0.1-1.7l15.3-6.4c2.3-1,4.1-2.8,5-5.1C111.6,25.6,111.5,23,110.5,20.8z M81.6,46.6
		c-2.4,7.9-7.2,13.8-15,18.5c-2.4,1.4-5.5,2.8-8.4,3.6c-5.7,1.7-14.7,8-21.9,13c-3.5,2.4-7.4,5.2-8.2,5.4c-1.8,0.2-2.9-0.4-3.5-1.7
		c-0.9-2.1,0.1-5.7,2-7.2c0.9-0.8,3.9-3.9,6.3-6.6c0.9-1.1,1.9-2.1,2.8-3.2c1.1-1.4,2-2.8,3.7-3.6c1.7-0.8,3.6-1,5.4-1.6
		c1.6-0.5,3.2-1,4.8-1.5c-0.4,0.1-1.2-0.1-1.6-0.1c-0.7,0-1.3,0-2,0c-8.2,0.3-15.9,3.7-23.2,7.2c-1,0.5-2,1-3,1.5
		C18,71.1,16.2,72,14.5,73c-2.2,1.1-4,1.3-5.4,0.4c-1.5-1-2.4-3.1-2.3-5.6c0.1-2.8,1.6-6.6,5.4-8.5c1.6-0.8,3.1-1.7,4.9-2.7
		c2.4-1.4,4.7-2.7,7.2-3.9c1.7-0.9,3.4-1.8,5.1-2.6c2.1-1,4.5-1.4,6.9-1.6c2.5-0.2,4.9-0.4,7.4-0.6c-1,0.1-2.3-0.5-3.2-0.6
		c-4.2-0.7-8.4-0.5-12.6-0.3c-4.2,0.3-8.4,0.4-12.6,0.7c-1.3,0.1-2.6,0.2-3.9,0.3C10.2,48,9.1,48.2,8,48.4c-2,0.4-3.6-0.1-4.6-1.2
		c-1.1-1.4-1.3-3.6-0.4-5.9c1.3-3.4,4.5-5.7,8.5-6.4c1.8-0.3,4-0.5,6.4-0.8c8.7-1,20.7-2.4,31.4-6.8c0.4-0.2,0.7-0.6,0.8-1
		c0-0.5-0.2-0.9-0.6-1.1c-5-2.9-10.8-7-11.5-12.3c-0.4-3,0.9-6.3,4.1-9.6l0,0c0.6-0.6,1.1-0.8,1.8-0.7c2.5,0.3,6.2,4.5,10.3,11.5
		c1,1.7,3.8,2.9,7.6,4.5c4.6,2,10.4,4.4,13.4,8.2C78.6,30.9,83,41.9,81.6,46.6z M87.9,40.7c-0.3,2.5-1,4-1.9,4.7
		c-0.5,0.3-1,0.5-1.7,0.5c0.7-6-3.5-16.3-7.1-20.8c-1.1-1.4-2.6-2.7-4.2-3.8c0.5-0.5,1.2-0.8,1.9-0.9c1.5-0.2,3.4,0.6,5.2,2
		C83.7,25.4,88.5,35.8,87.9,40.7z M108.4,27c-0.7,1.7-2,3-3.6,3.7l-14.7,6.1c-0.8-4.2-3.1-9.4-5.5-12.9l15.4-5.6
		c3.3-1.2,6.8,0.3,8.3,3.5C109,23.5,109.1,25.3,108.4,27z"/>
	<path d="M67.9,50.5c-0.3,0-0.6-0.2-0.8-0.4c-0.3-0.5-0.2-1.1,0.3-1.4c0.6-0.4,1.2-0.8,1.7-1.1c1.8-1.1,3.5-2.1,7-5.3
		c0.4-0.4,1-0.3,1.4,0.1c0.4,0.4,0.3,1-0.1,1.4c-3.6,3.3-5.5,4.4-7.3,5.5c-0.6,0.3-1.1,0.7-1.7,1.1C68.2,50.4,68.1,50.5,67.9,50.5z
		 M61.8,44.5c1.1-0.5,2.2-0.9,3.2-1.3c3-1.2,6-2.4,10.6-4.8c0.5-0.3,0.7-0.9,0.4-1.3c-0.3-0.5-0.9-0.7-1.3-0.4
		c-4.5,2.4-7.5,3.6-10.4,4.8c-1,0.4-2.1,0.8-3.3,1.3c-0.5,0.2-0.7,0.8-0.5,1.3c0.2,0.4,0.5,0.6,0.9,0.6
		C61.5,44.6,61.7,44.6,61.8,44.5z M63.7,34.8c0.7-0.2,1.4-0.3,2-0.5c2.1-0.5,4.3-1.1,7.8-2.4c0.5-0.2,0.8-0.8,0.6-1.3
		c-0.2-0.5-0.8-0.8-1.3-0.6c-3.4,1.3-5.4,1.8-7.6,2.3c-0.7,0.2-1.3,0.3-2.1,0.5c-0.5,0.1-0.8,0.7-0.7,1.2c0.1,0.4,0.5,0.7,1,0.7
		C63.5,34.9,63.6,34.8,63.7,34.8z"/>
</g>
<g display="none">
	<path display="inline" fill="#FFFFFF" d="M144.8-10c-4.2,0-7.5-0.8-9.8-2.5c-1.8-1.3-2.9-3.1-3.3-5.3l-0.1-0.4l-0.4,0
		c-5.4-0.5-7.9-5.1-8.4-8.8c-0.5-3.6,0.6-6.8,2.8-8.5l0.5-0.4l-0.5-0.4c-4.2-3-4.6-7.2-3.7-10.2c1-3.2,4.4-6.4,9.6-6.4
		c0.4,0,0.8,0,1.2,0.1l0.4,0l0.2-0.9c0.7-3.1,2.2-9.6,10.3-12.2c1.8-0.6,4-0.9,6.4-0.9c7.1,0,15,2.6,20.6,6.7l0.3,0.2l0.3-0.3
		c1-0.9,2.2-1.3,3.6-1.3c2,0,4.3,1.1,6.3,3c0.3,0.3,0.6,0.6,0.9,1l0.2,0.3l16.6-5.4c0.9-0.3,1.8-0.4,2.7-0.4c3.4,0,6.5,2.1,7.9,5.3
		c0.9,2.2,0.9,4.6,0,6.7c-0.9,2.2-2.7,3.8-4.9,4.7L188-40.2l0,0.3c0,0.7-0.1,1.4-0.2,1.9c-0.7,3.1-1.7,4.9-3.2,5.8
		c-0.7,0.4-1.5,0.6-2.3,0.6c-0.4,0-0.7,0-1.2-0.1l-0.4-0.1l-0.2,0.4c-3.3,7.7-8.7,13.1-17.1,17.2c-2.7,1.3-6,2.4-9.2,3
		C150.8-10.4,147.6-10,144.8-10z"/>
	<path display="inline" d="M165.2-30.3c-0.4,0-0.7-0.2-0.9-0.5c-0.3-0.5-0.1-1.1,0.4-1.4c0.7-0.4,1.3-0.7,1.8-1
		c1.8-0.9,3.6-1.8,7.4-4.7c0.4-0.3,1.1-0.2,1.4,0.2c0.3,0.4,0.3,1.1-0.2,1.4c-3.9,3-5.8,3.9-7.7,4.9c-0.6,0.3-1.1,0.6-1.8,0.9
		C165.5-30.4,165.4-30.3,165.2-30.3z M159.6-36.8c1.2-0.4,2.3-0.7,3.3-1c3-0.9,6.2-1.9,11-3.9c0.5-0.2,0.7-0.8,0.5-1.3
		c-0.2-0.5-0.8-0.7-1.3-0.5c-4.7,2-7.8,2.9-10.8,3.8c-1.1,0.3-2.2,0.7-3.4,1c-0.5,0.2-0.8,0.7-0.6,1.3c0.1,0.4,0.5,0.7,0.9,0.7
		C159.4-36.7,159.5-36.7,159.6-36.8z M162.3-46.3c0.7-0.1,1.3-0.2,2-0.3c2.2-0.3,4.4-0.7,8.1-1.7c0.5-0.1,0.8-0.7,0.7-1.2
		c-0.1-0.5-0.7-0.8-1.2-0.7c-3.5,1-5.7,1.3-7.8,1.6c-0.7,0.1-1.3,0.2-2,0.3c-0.5,0.1-0.9,0.6-0.8,1.1c0.1,0.5,0.5,0.8,1,0.8
		C162.2-46.3,162.2-46.3,162.3-46.3z"/>
	<path display="inline" d="M209.8-58c-1.9-4.4-6.7-6.6-11.2-5.1l-16.2,5.3c-0.3-0.4-0.6-0.8-1-1.1c-3.7-3.5-7.7-4.1-10.5-1.7
		c-8-5.9-20.1-8.3-27.5-5.9l0,0c-8.4,2.7-9.9,9.4-10.6,12.6c0,0.2-0.1,0.4-0.1,0.5c-6-0.5-10.1,3-11.3,6.7c-1,3.1-0.5,7.6,3.9,10.7
		c-2.3,1.8-3.5,5.1-3,9c0.6,4.4,3.6,8.8,8.9,9.2c0.4,2.3,1.6,4.2,3.5,5.6c2.6,1.9,6.3,2.6,10.1,2.6c3.3,0,6.7-0.5,9.5-1.1
		c3.2-0.6,6.6-1.8,9.3-3.1c8.5-4.1,14-9.7,17.4-17.4c0.4,0.1,0.8,0.1,1.2,0.1c0.9,0,1.8-0.2,2.6-0.7c1.7-1,2.8-2.9,3.5-6.1
		c0.1-0.6,0.2-1.3,0.2-2l16.2-6.1c2.3-0.9,4.2-2.6,5.1-4.9C210.8-53.1,210.8-55.7,209.8-58z M179.1-33c-3,7.7-8.3,13.1-16.6,17.2
		c-2.5,1.2-5.7,2.3-8.7,2.9c-8.2,1.7-14.5,1.3-17.7-1.1c-1.3-1-2.1-2.2-2.4-3.8c4.1-0.4,8.7-1.2,11.5-2.8c-2.3,0.2-4.6,0.2-7,0.3
		c-1.3,0-2.6,0.1-3.9,0.2c-1.3,0.1-2.5,0.2-3.8,0c-1.1-0.2-2.1-0.7-2.9-1.4c-1.6-1.3-2.5-3.2-2.8-5.2c0-0.1-0.1-0.3-0.1-0.4
		c-0.4-2.6,0.3-5.6,2.4-6.9c0.4-0.2,0.8-0.4,1.2-0.5c0.7-0.1,1.4,0,2,0c0.8,0,1.6-0.1,2.4-0.1c1.2-0.1,2.3-0.2,3.4-0.4
		c1.4-0.3,2.8-0.7,4.2-1.2c0.2-0.1,0.5-0.1,0.7-0.2c-0.3,0.1-0.8,0-1.1,0c-0.3,0-0.7,0-1,0c-0.6,0-1.2,0-1.8,0c-1.1,0-2.1,0-3.2-0.1
		c-1.3-0.1-2.5-0.2-3.8-0.3c-1.2-0.1-2.3-0.3-3.3-0.9c-3.4-2.4-3.8-5.7-3.1-8c0.8-2.6,3.1-4.3,5.7-4.9c0.7-0.2,1.5-0.2,2.2-0.2
		c1,0,1.9,0.2,2.9,0.1c3.2-0.3,6.5-1,9.2-2.8c1.9-1.2,3.3-3,4.8-4.8c0.3-0.4,0.6-0.8,1-1.2c0.3-0.4,0.7-0.9,1.1-1.2
		c-4,3-7,6.6-15.3,7.4c0.7-3.2,2-8.5,9-10.8c8.5-2.7,24.5,1.7,30.3,10.7C177.5-48.7,180.9-37.4,179.1-33z M185.9-38.3
		c-0.5,2.5-1.3,3.9-2.3,4.6c-0.5,0.3-1.1,0.4-1.7,0.3c1.3-6.1-2.5-17-5.2-21.3c-1-1.5-2.3-2.9-3.7-4.2c2.1-1.4,4.8,0,6.8,1.9
		C183-53.9,186.9-43.1,185.9-38.3z M207.5-51.8c-0.7,1.7-2.1,2.9-3.8,3.6l-15.4,5.8c-0.5-4.4-2.4-9.6-4.5-13.3l15.6-5.1
		c3.3-1.1,6.8,0.5,8.2,3.7C208.2-55.3,208.2-53.5,207.5-51.8z"/>
</g>
</svg>
