<?xml version="1.0" encoding="utf-8"?>
<!-- Generator: Adobe Illustrator 23.0.0, SVG Export Plug-In . SVG Version: 6.00 Build 0)  -->
<svg version="1.1" baseProfile="tiny"
	 id="svg32847" xmlns:cc="http://creativecommons.org/ns#" xmlns:dc="http://purl.org/dc/elements/1.1/" xmlns:inkscape="http://www.inkscape.org/namespaces/inkscape" xmlns:rdf="http://www.w3.org/1999/02/22-rdf-syntax-ns#" xmlns:sodipodi="http://sodipodi.sourceforge.net/DTD/sodipodi-0.dtd"
	 xmlns="http://www.w3.org/2000/svg" xmlns:xlink="http://www.w3.org/1999/xlink" x="0px" y="0px" viewBox="0 0 89.5 57.9"
	 xml:space="preserve">
<g display="none">
	<path display="inline" fill="#FFFFFF" d="M-120.2,33c-1,0-2-0.2-2.8-0.7c-2.2-1.3-3.5-4-3.5-7.2c0-3.4,1.6-7.9,6-10.5
		c1.6-0.9,3-1.8,4.7-2.8c2.2-1.4,4.8-3,8.5-5.2l-0.3-0.9c-5.2,0.4-11.8,0.9-16.3,1.9c-0.7,0.2-1.4,0.2-2,0.2c-1.8,0-3.4-0.6-4.5-1.9
		c-1.7-1.9-2.1-4.8-1.1-7.8c1.4-4.1,5-7.1,9.7-8c4.3-0.9,8.3-1.3,12.1-1.7c3.5-0.4,6.7-0.7,10.3-1.3L-99-13l0-0.4
		c0-0.2,0-0.5,0.1-0.7c0.3-3.2,0.9-9.8,8.6-13.5c2.7-1.3,6.3-2,10.3-2c6,0,12.3,1.5,17.2,4.2l0.3,0.2l0.3-0.3
		c1.1-1.2,2.5-1.8,4.1-1.8c1.8,0,3.9,0.8,5.8,2.2c0.1,0.1,0.2,0.2,0.3,0.3l0.2,0.2l17.3-7.8c1.1-0.5,2.3-0.8,3.6-0.8
		c3.1,0,6,1.7,7.5,4.4c1.1,2.1,1.4,4.4,0.7,6.7c-0.7,2.3-2.2,4.1-4.3,5.2l-16.2,8.2l0.1,0.4c0.2,1.1,0.3,2,0.2,2.8
		c-0.3,3.1-1,5.1-2.5,6.2c-0.8,0.6-1.8,1-3,1c-0.1,0-0.2,0-0.3,0l-0.5,0l-0.1,0.4c-2.3,8-6.9,14.1-14.7,19.3
		c-2.5,1.6-5.7,3.2-8.7,4.2c-2.3,0.7-4.6,1.1-6.9,1.1c-5,0-10.3-1.7-15.7-5.1l-0.2-0.1l-0.2,0.1c-5.8,2.3-12.9,5.9-20,10
		C-117.3,32.5-118.8,33-120.2,33z"/>
	<path display="inline" d="M-64.4,5c-0.3,0-0.6-0.1-0.8-0.4c-0.3-0.4-0.2-1.1,0.2-1.4c0.6-0.4,1.2-0.8,1.7-1.2
		c1.7-1.1,3.4-2.3,6.7-5.6c0.4-0.4,1-0.4,1.4,0c0.4,0.4,0.4,1,0,1.4c-3.5,3.5-5.3,4.7-7,5.8c-0.5,0.4-1.1,0.7-1.6,1.1
		C-64,4.9-64.2,5-64.4,5z M-70.7-0.6c1.1-0.5,2.2-1,3.2-1.5c2.9-1.3,5.9-2.7,10.4-5.3c0.5-0.3,0.6-0.9,0.3-1.4
		c-0.3-0.5-0.9-0.6-1.4-0.3c-4.4,2.6-7.3,3.9-10.2,5.2c-1,0.5-2.1,0.9-3.2,1.5C-72-2.2-72.2-1.6-72-1.1c0.2,0.4,0.5,0.6,0.9,0.6
		C-70.9-0.5-70.8-0.6-70.7-0.6z M-69.2-10.4c0.7-0.2,1.3-0.4,1.9-0.6c2.1-0.6,4.3-1.2,7.8-2.7c0.5-0.2,0.7-0.8,0.5-1.3
		c-0.2-0.5-0.8-0.7-1.3-0.5c-3.4,1.4-5.5,2-7.6,2.6c-0.6,0.2-1.3,0.4-2,0.6c-0.5,0.2-0.8,0.7-0.7,1.2c0.1,0.4,0.5,0.7,1,0.7
		C-69.4-10.4-69.3-10.4-69.2-10.4z"/>
	<path display="inline" d="M-22.8-28.9c-2.3-4.2-7.3-5.8-11.7-3.9l-17.1,7.7c-0.1-0.1-0.2-0.2-0.3-0.3c-4.1-3-8.2-3.1-10.6-0.3
		c-8.7-4.8-21-5.6-28-2.3l0,0c-7.9,3.8-8.6,10.6-8.9,13.9c0,0.2,0,0.5-0.1,0.7c-3.5,0.6-6.8,1-10.2,1.3c-3.8,0.4-7.8,0.8-12.1,1.7
		c-4.9,1-8.7,4.1-10.1,8.4c-1,3.1-0.6,6.3,1.2,8.3c1.6,1.8,4.1,2.4,7,1.8c4.4-1,10.6-1.5,16.2-1.9c-3.8,2.1-6.4,3.8-8.6,5.2
		c-1.7,1-3.1,1.9-4.6,2.8c-4.6,2.6-6.3,7.4-6.3,10.9c0,3.4,1.4,6.3,3.7,7.6c0.8,0.4,1.8,0.8,3.1,0.8c1.3,0,2.9-0.4,4.8-1.5
		c7.1-4.1,14.1-7.7,19.9-10c8,5,15.8,6.4,23.1,4c3.1-1.1,6.3-2.6,8.8-4.3c7.9-5.2,12.7-11.4,14.9-19.6c0.1,0,0.3,0,0.4,0
		c1.3,0,2.4-0.4,3.3-1.1c1.5-1.2,2.4-3.3,2.6-6.5c0.1-0.9,0-1.9-0.2-3l15.9-8.1c2.2-1.1,3.8-3.1,4.6-5.4S-21.6-26.8-22.8-28.9z
		 M-50.8,0.5c-2,8-6.5,14.1-14.2,19.2c-2.4,1.5-5.4,3-8.3,4c-6,2-12.5,1-19.3-2.8c3.5-1.2,6.7-2.4,10.5-3.8
		c-3.8-0.3-9.4,0.7-13.7,2.4l0,0c-6,2.4-13.4,6.1-20.9,10.4c-2.1,1.2-4,1.5-5.4,0.7c-1.5-0.9-2.5-3-2.5-5.5c0-2.8,1.3-6.7,5-8.8
		c1.6-0.9,3.1-1.8,4.7-2.9c2-1.3,4-2.5,6.1-3.7c1.4-0.8,2.8-1.6,4.2-2.4c1.3-0.7,2.6-1.5,4.1-1.9c1.4-0.4,2.8-0.6,4.2-0.8
		c2.5-0.4,5.1-0.7,7.6-1c-0.3,0-0.7-0.1-1-0.1c-0.4-0.1-0.8-0.1-1.2-0.2c-3.1-0.5-6.2-0.4-9.4-0.2c-5.6,0.4-11.2,1-16.9,1.5
		c-2.4,0.3-4.8,0.7-7.2,1.1c-2,0.4-3.6,0.1-4.6-1c-1.2-1.3-1.5-3.6-0.7-5.9c1.1-3.4,4.2-5.9,8.2-6.7c4.3-0.8,8.1-1.2,11.9-1.6
		c4-0.4,8.1-0.8,12.1-1.7c3.3-0.8,6.6-2,9.1-4.3c1.8-1.6,2.9-3.7,4.2-5.7c0.4-0.6,0.8-1.4,1.3-1.9c-3.6,3.5-6,7.4-14.2,9.4
		c0.3-3.3,0.8-8.7,7.5-11.8c8.1-3.8,24.5-1.5,31.4,6.7C-54.4-14.8-49.6-4.1-50.8,0.5z M-44.8-5.6c-0.2,2.5-0.8,4.1-1.7,4.8
		c-0.4,0.3-1,0.5-1.7,0.5c0.5-6.2-4.7-16.6-8-20.4c-1.2-1.4-2.6-2.6-4.2-3.7c1.9-1.7,4.8-0.7,7,1C-49.7-20.7-44.4-10.5-44.8-5.6z
		 M-24.4-22.6c-0.5,1.7-1.7,3.2-3.3,4l-15.4,7.8c-1.3-4.4-4-9.4-6.6-12.5l16.2-7.3c3.2-1.4,6.8-0.2,8.5,2.8
		C-24.1-26.2-23.9-24.3-24.4-22.6z"/>
</g>
<g display="none">
	<path display="inline" fill="#FFFFFF" d="M-93.5,156.5c-2.9,0-4.2-1.6-4.7-2.9c-1.2-2.9,0-7.3,2.6-9.5c1.4-1.2,6.3-6.4,8.8-9.6
		l1.1-1.4l-1.7,0.6c-5.5,2.1-11.9,5-18.3,8.3c-1.5,0.8-3,1.2-4.3,1.2c-1.1,0-2.2-0.3-3.1-0.9c-2.1-1.3-3.3-4.1-3.2-7.4
		c0.2-3.4,1.9-7.9,6.5-10.2c1.6-0.8,3.1-1.7,4.8-2.6c2.3-1.3,4.9-2.8,8.8-4.8l-0.2-0.9c-5.3,0.2-11.8,0.4-16.3,1.2
		c-0.6,0.1-1.1,0.1-1.6,0.1c-2,0-3.7-0.7-4.8-2.1c-1.6-1.9-1.9-4.9-0.8-7.8c1.5-4,5.3-6.9,10.1-7.6c1.9-0.3,4-0.5,6.5-0.8
		c7.9-0.9,18.7-2.2,28.6-5.8l0.9-0.3l-0.8-0.5c-4.1-2.6-9.5-6.7-10.3-12.4c-0.5-3.7,1-7.4,4.6-11.2l0,0c0.9-0.9,1.8-1.3,2.9-1.3
		c0.2,0,0.3,0,0.5,0c3.2,0.4,7.2,4.6,11.8,12.5c0.6,1,2.9,2.1,6.7,3.7c2.5,1.1,5.4,2.3,8,3.8l0.3,0.2l0.3-0.3c0.9-1,2.1-1.7,3.5-1.8
		c0.2,0,0.4,0,0.6,0c1.9,0,4,0.9,6,2.5c0.4,0.3,0.8,0.7,1.2,1.2l0.2,0.2l16.5-6c1-0.3,2-0.5,3-0.5c3.4,0,6.3,1.9,7.8,5
		c1,2.1,1.1,4.5,0.2,6.7c-0.9,2.2-2.5,3.9-4.7,4.8l-15.6,6.5l0,0.3c0,0.6,0,1.1-0.1,1.6c-0.4,3.1-1.3,5-2.7,6.1
		c-0.8,0.6-1.7,0.8-2.8,0.8c-0.2,0-0.4,0-0.6,0l-0.4,0l-0.1,0.4c-2.6,7.9-7.6,13.8-15.6,18.6c-2.6,1.5-5.8,2.9-8.9,3.8
		c-5.4,1.6-14.6,8-21.3,12.8c-5.8,4.1-8.1,5.7-9.2,5.8C-93,156.5-93.3,156.5-93.5,156.5z"/>
	<path display="inline" d="M-10.6,88.2c-2-4.3-6.9-6.3-11.3-4.7l-16.2,5.9c-0.4-0.5-0.9-0.9-1.3-1.3c-2.3-1.9-4.8-2.8-7-2.6
		c-1.5,0.2-2.8,0.9-3.8,2c-2.7-1.5-5.5-2.8-8.1-3.8c-2.9-1.2-5.9-2.5-6.5-3.5c-4.7-8-8.8-12.3-12.1-12.7c-1.4-0.2-2.8,0.3-3.8,1.5
		l0,0c-3.7,3.9-5.3,7.8-4.7,11.6c0.8,5.5,5.7,9.6,10.6,12.7c-9.8,3.6-20.5,4.9-28.5,5.8c-2.5,0.3-4.6,0.5-6.5,0.8
		c-4.9,0.8-8.8,3.7-10.4,7.9c-1.2,3.1-0.9,6.3,0.8,8.3c1.5,1.9,4,2.6,6.9,2.1c4.4-0.8,10.7-1,16.3-1.2c-3.9,2-6.5,3.5-8.8,4.8
		c-1.7,1-3.2,1.8-4.8,2.6c-4.7,2.4-6.6,7.1-6.8,10.6c-0.2,3.4,1.1,6.4,3.4,7.8c1.5,1,4.1,1.7,7.9-0.3c6.4-3.4,12.7-6.3,18.2-8.3
		c-2.5,3.2-7.4,8.4-8.8,9.5c-2.7,2.3-4,7-2.7,10.1c0.5,1.2,1.8,3.2,5.2,3.2c0.2,0,0.5,0,0.8,0c1.2-0.1,3.4-1.6,9.4-5.8
		c6.7-4.7,15.8-11.1,21.1-12.7c3.1-0.9,6.4-2.3,9-3.9c8.1-4.8,13.1-10.8,15.8-18.8c0.2,0,0.5,0,0.7,0c1.2,0,2.2-0.3,3-0.9
		c1.6-1.1,2.5-3.2,2.9-6.4c0.1-0.5,0.1-1.1,0.1-1.7l15.3-6.4c2.3-1,4.1-2.8,5-5.1C-9.4,92.9-9.5,90.4-10.6,88.2z M-39.4,113.9
		c-2.4,7.9-7.2,13.8-15,18.5c-2.4,1.4-5.5,2.8-8.4,3.6c-5.7,1.7-14.7,8-21.9,13c-3.5,2.4-7.4,5.2-8.2,5.4c-1.8,0.2-2.9-0.4-3.5-1.7
		c-0.9-2.1,0.1-5.7,2-7.2c0.9-0.8,3.9-3.9,6.3-6.6c0.9-1.1,1.9-2.1,2.8-3.2c1.1-1.4,2-2.8,3.7-3.6c1.7-0.8,3.6-1,5.4-1.6
		c1.6-0.5,3.2-1,4.8-1.5c-0.4,0.1-1.2-0.1-1.6-0.1c-0.7,0-1.3,0-2,0c-8.2,0.3-15.9,3.7-23.2,7.2c-1,0.5-2,1-3,1.5
		c-1.8,0.9-3.5,1.8-5.3,2.7c-2.2,1.1-4,1.3-5.4,0.4c-1.5-1-2.4-3.1-2.3-5.6c0.1-2.8,1.6-6.6,5.4-8.5c1.6-0.8,3.1-1.7,4.9-2.7
		c2.4-1.4,4.7-2.7,7.2-3.9c1.7-0.9,3.4-1.8,5.1-2.6c2.1-1,4.5-1.4,6.9-1.6c2.5-0.2,4.9-0.4,7.4-0.6c-1,0.1-2.3-0.5-3.2-0.6
		c-4.2-0.7-8.4-0.5-12.6-0.3c-4.2,0.3-8.4,0.4-12.6,0.7c-1.3,0.1-2.6,0.2-3.9,0.3c-1.1,0.1-2.2,0.3-3.3,0.5c-2,0.4-3.6-0.1-4.6-1.2
		c-1.1-1.4-1.3-3.6-0.4-5.9c1.3-3.4,4.5-5.7,8.5-6.4c1.8-0.3,4-0.5,6.4-0.8c8.7-1,20.7-2.4,31.4-6.8c0.4-0.2,0.7-0.6,0.8-1
		c0-0.5-0.2-0.9-0.6-1.1c-5-2.9-10.8-7-11.5-12.3c-0.4-3,0.9-6.3,4.1-9.6l0,0c0.6-0.6,1.1-0.8,1.8-0.7c2.5,0.3,6.2,4.5,10.3,11.5
		c1,1.7,3.8,2.9,7.6,4.5c4.6,2,10.4,4.4,13.4,8.2C-42.4,98.3-38,109.3-39.4,113.9z M-33.1,108.1c-0.3,2.5-1,4-1.9,4.7
		c-0.5,0.3-1,0.5-1.7,0.5c0.7-6-3.5-16.3-7.1-20.8c-1.1-1.4-2.6-2.7-4.2-3.8c0.5-0.5,1.2-0.8,1.9-0.9c1.5-0.2,3.4,0.6,5.2,2
		C-37.4,92.8-32.5,103.2-33.1,108.1z M-12.6,94.4c-0.7,1.7-2,3-3.6,3.7l-14.7,6.1c-0.8-4.2-3.1-9.4-5.5-12.9l15.4-5.6
		c3.3-1.2,6.8,0.3,8.3,3.5C-12,90.8-12,92.7-12.6,94.4z"/>
	<path display="inline" d="M-53.2,117.8c-0.3,0-0.6-0.2-0.8-0.4c-0.3-0.5-0.2-1.1,0.3-1.4c0.6-0.4,1.2-0.8,1.7-1.1
		c1.8-1.1,3.5-2.1,7-5.3c0.4-0.4,1-0.3,1.4,0.1c0.4,0.4,0.3,1-0.1,1.4c-3.6,3.3-5.5,4.4-7.3,5.5c-0.6,0.3-1.1,0.7-1.7,1.1
		C-52.8,117.8-53,117.8-53.2,117.8z M-59.2,111.9c1.1-0.5,2.2-0.9,3.2-1.3c3-1.2,6-2.4,10.6-4.8c0.5-0.3,0.7-0.9,0.4-1.3
		c-0.3-0.5-0.9-0.7-1.3-0.4c-4.5,2.4-7.5,3.6-10.4,4.8c-1,0.4-2.1,0.8-3.3,1.3c-0.5,0.2-0.7,0.8-0.5,1.3c0.2,0.4,0.5,0.6,0.9,0.6
		C-59.5,112-59.3,112-59.2,111.9z M-57.4,102.2c0.7-0.2,1.4-0.3,2-0.5c2.1-0.5,4.3-1.1,7.8-2.4c0.5-0.2,0.8-0.8,0.6-1.3
		c-0.2-0.5-0.8-0.8-1.3-0.6c-3.4,1.3-5.4,1.8-7.6,2.3c-0.7,0.2-1.3,0.3-2.1,0.5c-0.5,0.1-0.8,0.7-0.7,1.2c0.1,0.4,0.5,0.7,1,0.7
		C-57.5,102.2-57.5,102.2-57.4,102.2z"/>
</g>
<g>
	<path fill="#FFFFFF" d="M23.7,57.4c-4.2,0-7.5-0.8-9.8-2.5c-1.8-1.3-2.9-3.1-3.3-5.3l-0.1-0.4l-0.4,0c-5.4-0.5-7.9-5.1-8.4-8.8
		c-0.5-3.6,0.6-6.8,2.8-8.5l0.5-0.4L4.6,31C0.4,28,0,23.8,0.9,20.9c1-3.2,4.4-6.4,9.6-6.4c0.4,0,0.8,0,1.2,0.1l0.4,0l0.2-0.9
		C13,10.5,14.5,4,22.6,1.4c1.8-0.6,4-0.9,6.4-0.9c7.1,0,15,2.6,20.6,6.7l0.3,0.2l0.3-0.3c1-0.9,2.2-1.3,3.6-1.3c2,0,4.3,1.1,6.3,3
		c0.3,0.3,0.6,0.6,0.9,1l0.2,0.3l16.6-5.4c0.9-0.3,1.8-0.4,2.7-0.4c3.4,0,6.5,2.1,7.9,5.3c0.9,2.2,0.9,4.6,0,6.7
		c-0.9,2.2-2.7,3.8-4.9,4.7L67,27.2l0,0.3c0,0.7-0.1,1.4-0.2,1.9c-0.7,3.1-1.7,4.9-3.2,5.8c-0.7,0.4-1.5,0.6-2.3,0.6
		c-0.4,0-0.7,0-1.2-0.1l-0.4-0.1l-0.2,0.4c-3.3,7.7-8.7,13.1-17.1,17.2c-2.7,1.3-6,2.4-9.2,3C29.7,57,26.6,57.4,23.7,57.4z"/>
	<path d="M44.2,37c-0.4,0-0.7-0.2-0.9-0.5c-0.3-0.5-0.1-1.1,0.4-1.4c0.7-0.4,1.3-0.7,1.8-1c1.8-0.9,3.6-1.8,7.4-4.7
		c0.4-0.3,1.1-0.2,1.4,0.2c0.3,0.4,0.3,1.1-0.2,1.4c-3.9,3-5.8,3.9-7.7,4.9c-0.6,0.3-1.1,0.6-1.8,0.9C44.5,37,44.3,37,44.2,37z
		 M38.6,30.6c1.2-0.4,2.3-0.7,3.3-1c3-0.9,6.2-1.9,11-3.9c0.5-0.2,0.7-0.8,0.5-1.3c-0.2-0.5-0.8-0.7-1.3-0.5
		c-4.7,2-7.8,2.9-10.8,3.8c-1.1,0.3-2.2,0.7-3.4,1c-0.5,0.2-0.8,0.7-0.6,1.3c0.1,0.4,0.5,0.7,0.9,0.7C38.4,30.7,38.5,30.6,38.6,30.6
		z M41.3,21.1c0.7-0.1,1.3-0.2,2-0.3c2.2-0.3,4.4-0.7,8.1-1.7c0.5-0.1,0.8-0.7,0.7-1.2c-0.1-0.5-0.7-0.8-1.2-0.7
		c-3.5,1-5.7,1.3-7.8,1.6c-0.7,0.1-1.3,0.2-2,0.3c-0.5,0.1-0.9,0.6-0.8,1.1c0.1,0.5,0.5,0.8,1,0.8C41.2,21.1,41.2,21.1,41.3,21.1z"
		/>
	<path d="M88.8,9.4C86.9,5,82.1,2.8,77.6,4.3L61.4,9.6c-0.3-0.4-0.6-0.8-1-1.1C56.7,5,52.7,4.4,49.9,6.8c-8-5.9-20.1-8.3-27.5-5.9
		l0,0c-8.4,2.7-9.9,9.4-10.6,12.6c0,0.2-0.1,0.4-0.1,0.5c-6-0.5-10.1,3-11.3,6.7c-1,3.1-0.5,7.6,3.9,10.7c-2.3,1.8-3.5,5.1-3,9
		c0.6,4.4,3.6,8.8,8.9,9.2c0.4,2.3,1.6,4.2,3.5,5.6c2.6,1.9,6.3,2.6,10.1,2.6c3.3,0,6.7-0.5,9.5-1.1c3.2-0.6,6.6-1.8,9.3-3.1
		c8.5-4.1,14-9.7,17.4-17.4c0.4,0.1,0.8,0.1,1.2,0.1c0.9,0,1.8-0.2,2.6-0.7c1.7-1,2.8-2.9,3.5-6.1c0.1-0.6,0.2-1.3,0.2-2l16.2-6.1
		c2.3-0.9,4.2-2.6,5.1-4.9C89.7,14.2,89.7,11.7,88.8,9.4z M58.1,34.3c-3,7.7-8.3,13.1-16.6,17.2c-2.5,1.2-5.7,2.3-8.7,2.9
		c-8.2,1.7-14.5,1.3-17.7-1.1c-1.3-1-2.1-2.2-2.4-3.8c4.1-0.4,8.7-1.2,11.5-2.8c-2.3,0.2-4.6,0.2-7,0.3c-1.3,0-2.6,0.1-3.9,0.2
		c-1.3,0.1-2.5,0.2-3.8,0c-1.1-0.2-2.1-0.7-2.9-1.4c-1.6-1.3-2.5-3.2-2.8-5.2c0-0.1-0.1-0.3-0.1-0.4c-0.4-2.6,0.3-5.6,2.4-6.9
		c0.4-0.2,0.8-0.4,1.2-0.5c0.7-0.1,1.4,0,2,0c0.8,0,1.6-0.1,2.4-0.1c1.2-0.1,2.3-0.2,3.4-0.4c1.4-0.3,2.8-0.7,4.2-1.2
		c0.2-0.1,0.5-0.1,0.7-0.2c-0.3,0.1-0.8,0-1.1,0c-0.3,0-0.7,0-1,0c-0.6,0-1.2,0-1.8,0c-1.1,0-2.1,0-3.2-0.1
		c-1.3-0.1-2.5-0.2-3.8-0.3c-1.2-0.1-2.3-0.3-3.3-0.9c-3.4-2.4-3.8-5.7-3.1-8c0.8-2.6,3.1-4.3,5.7-4.9c0.7-0.2,1.5-0.2,2.2-0.2
		c1,0,1.9,0.2,2.9,0.1c3.2-0.3,6.5-1,9.2-2.8c1.9-1.2,3.3-3,4.8-4.8c0.3-0.4,0.6-0.8,1-1.2c0.3-0.4,0.7-0.9,1.1-1.2
		c-4,3-7,6.6-15.3,7.4c0.7-3.2,2-8.5,9-10.8C31.7,0.5,47.6,5,53.5,13.9C56.5,18.7,59.9,29.9,58.1,34.3z M64.8,29.1
		c-0.5,2.5-1.3,3.9-2.3,4.6c-0.5,0.3-1.1,0.4-1.7,0.3c1.3-6.1-2.5-17-5.2-21.3c-1-1.5-2.3-2.9-3.7-4.2c2.1-1.4,4.8,0,6.8,1.9
		C61.9,13.4,65.9,24.2,64.8,29.1z M86.5,15.6c-0.7,1.7-2.1,2.9-3.8,3.6L67.3,25c-0.5-4.4-2.4-9.6-4.5-13.3l15.6-5.1
		c3.3-1.1,6.8,0.5,8.2,3.7C87.2,12,87.2,13.9,86.5,15.6z"/>
</g>
<g display="none">
	<g display="inline">
		<path fill="#FFFFFF" d="M-285.9,13.7c2.1,0,4-0.5,5.8-1.5c4.5-2.6,7.1-8.1,7.1-14.7c0-6.9-3.2-16.2-12.3-21.4
			c-3.2-1.8-6.1-3.7-9.5-5.8c-4.6-2.9-9.8-6.2-17.4-10.6l0.6-1.9c10.7,0.8,24,1.8,33.2,3.9c1.4,0.3,2.8,0.5,4.1,0.5
			c3.8,0,6.9-1.3,9.2-3.8c3.4-3.8,4.3-9.9,2.3-15.9c-2.8-8.4-10.2-14.5-19.8-16.4c-8.9-1.8-16.9-2.6-24.7-3.4
			c-7-0.7-13.7-1.4-21-2.7l-0.7-0.1l-0.1-0.7c0-0.4-0.1-0.9-0.1-1.4c-0.6-6.5-1.9-20-17.6-27.5c-5.6-2.6-12.8-4-21.1-4
			c-12.3,0-25.2,3.1-35.1,8.6l-0.7,0.4l-0.5-0.6c-2.2-2.5-5.1-3.8-8.5-3.8c-3.7,0-7.9,1.6-11.9,4.6c-0.2,0.2-0.4,0.3-0.7,0.5
			l-0.5,0.4l-35.4-15.9c-2.3-1-4.8-1.6-7.3-1.6c-6.3,0-12.2,3.5-15.3,9c-2.3,4.2-2.9,9.1-1.5,13.7c1.4,4.6,4.5,8.3,8.8,10.5
			l33.1,16.8l-0.1,0.7c-0.4,2.2-0.5,4.1-0.4,5.8c0.5,6.4,2.1,10.4,5,12.7c1.6,1.3,3.7,1.9,6.1,1.9c0.2,0,0.4,0,0.6,0l1-0.1l0.2,0.8
			c4.6,16.4,14.2,28.9,30.1,39.3c5.1,3.3,11.6,6.5,17.8,8.6c4.6,1.5,9.4,2.3,14.2,2.3c10.3,0,21.1-3.5,32-10.3l0.4-0.3l0.5,0.2
			c11.9,4.8,26.4,12,40.8,20.5C-291.9,12.8-288.8,13.7-285.9,13.7z"/>
		<path d="M-401.1-43.7c-1.2-0.9-2.2-1.6-3.3-2.3c-3.5-2.4-7.2-4.8-14.3-11.9c-0.8-0.8-0.8-2.1,0-2.9c0.8-0.8,2.1-0.8,2.9,0
			c6.8,6.8,10.3,9.1,13.7,11.4c1.1,0.7,2.2,1.5,3.5,2.4c0.9,0.7,1.1,1.9,0.4,2.8c-0.4,0.5-1,0.8-1.6,0.8
			C-400.3-43.3-400.8-43.5-401.1-43.7z M-386.2-54.7c0.8,0,1.5-0.4,1.8-1.2c0.5-1,0.1-2.2-1-2.7c-2.3-1.1-4.4-2.1-6.5-3
			c-5.8-2.6-11.8-5.3-20.8-10.6c-1-0.6-2.2-0.3-2.8,0.7c-0.6,1-0.3,2.2,0.7,2.8c9.2,5.4,15.3,8.2,21.2,10.8c2.1,0.9,4.2,1.9,6.5,3
			C-386.8-54.7-386.5-54.7-386.2-54.7z M-389.5-74.8c0.9,0,1.7-0.6,1.9-1.4c0.3-1.1-0.3-2.2-1.3-2.5c-1.4-0.4-2.7-0.8-4-1.2
			c-4.2-1.2-8.6-2.5-15.4-5.4c-1-0.4-2.2,0-2.7,1.1c-0.4,1,0,2.2,1.1,2.7c7.1,3,11.6,4.3,15.9,5.5c1.3,0.4,2.6,0.7,3.9,1.2
			C-389.9-74.8-389.7-74.8-389.5-74.8z"/>
		<path d="M-486.3-98.2c1.5,4.9,4.8,8.8,9.3,11.1l32.5,16.5c-0.4,2.2-0.5,4.2-0.4,6c0.6,6.7,2.3,10.9,5.4,13.4
			c1.8,1.4,4.1,2.2,6.7,2.2c0.3,0,0.6,0,0.9,0c4.7,16.6,14.4,29.3,30.5,39.9c5.1,3.4,11.7,6.5,18,8.7c14.8,4.8,30.6,2.1,47.1-8.2
			c11.9,4.7,26.3,12,40.7,20.4c3.8,2.2,7,3,9.7,3c2.6,0,4.7-0.8,6.3-1.6c4.8-2.7,7.6-8.6,7.6-15.6c0-7.2-3.4-16.9-12.8-22.3
			c-3.2-1.8-6.1-3.7-9.5-5.8c-4.5-2.8-9.8-6.2-17.5-10.6c11.3,0.9,24.1,1.9,33.1,3.8c5.9,1.3,10.9,0,14.2-3.7
			c3.6-4,4.6-10.5,2.5-16.9c-2.9-8.7-10.6-15.1-20.6-17.1c-8.9-1.8-17-2.6-24.8-3.4c-7-0.7-13.7-1.4-20.9-2.7c0-0.4-0.1-0.9-0.1-1.4
			c-0.6-6.7-1.9-20.6-18.1-28.3l0,0c-14.3-6.8-39.3-5.2-57.1,4.6c-5-5.7-13.4-5.5-21.7,0.7c-0.2,0.2-0.5,0.4-0.7,0.6l-34.8-15.7
			c-8.8-4-19.1-0.6-23.8,7.9C-487.2-108.2-487.8-103.1-486.3-98.2z M-412.9-92.6c14.2-16.6,47.7-21.4,64.2-13.6
			c13.6,6.5,14.7,17.5,15.3,24.2c-16.7-3.9-21.7-11.9-29.1-19.1c1.1,1,1.9,2.6,2.7,3.9c2.6,4.1,4.9,8.4,8.5,11.7
			c5.1,4.7,12,7.2,18.7,8.8c8.1,1.9,16.5,2.6,24.7,3.5c7.7,0.8,15.6,1.6,24.3,3.3c8.2,1.6,14.5,6.8,16.8,13.7
			c1.5,4.7,1,9.2-1.4,11.9c-2.1,2.3-5.3,3-9.4,2.1c-4.9-0.9-9.7-1.8-14.6-2.3c-11.5-0.9-22.9-2.2-34.4-3c-6.4-0.4-12.8-0.6-19.2,0.3
			c-0.9,0.1-1.7,0.3-2.5,0.4c-0.6,0.1-1.4,0.4-2,0.3c5.2,0.7,10.3,1.2,15.5,2c2.8,0.5,5.7,0.9,8.5,1.7c3,0.8,5.7,2.4,8.3,3.9
			c2.9,1.6,5.8,3.3,8.7,5c4.2,2.5,8.3,5,12.4,7.6c3.4,2.2,6.4,4,9.7,5.9c7.6,4.3,10.3,12.1,10.3,17.9c0,5.1-1.9,9.5-5.1,11.3
			c-2.9,1.6-6.7,1.2-11-1.3c-15.1-8.9-30.3-16.4-42.6-21.2l-0.1,0c-8.8-3.4-20.1-5.4-28-4.9c7.8,2.9,14.3,5.2,21.4,7.7
			c-13.9,7.8-27.2,9.7-39.5,5.7c-5.9-2-12-5-16.8-8.1c-15.7-10.3-24.9-22.8-29-39.1C-430.1-61.9-420.3-83.8-412.9-92.6z
			 M-422.4-101.4c4.6-3.4,10.5-5.4,14.4-2c-3.3,2.2-6.2,4.7-8.6,7.6c-6.7,7.9-17.2,29.1-16.3,41.7c-1.4,0-2.5-0.4-3.4-1.1
			c-1.9-1.5-3.1-4.7-3.5-9.8C-440.7-75-429.9-95.8-422.4-101.4z M-480.4-110.2c3.5-6.2,10.9-8.7,17.4-5.8l33.1,14.9
			c-5.3,6.3-10.8,16.5-13.4,25.4l-31.4-15.9c-3.3-1.7-5.7-4.6-6.8-8.1C-482.6-103.2-482.2-107-480.4-110.2z"/>
	</g>
	<g display="inline">
		<path fill="#FFFFFF" d="M-320.9,224.1c5.9,0,8.5-3.2,9.6-5.9c2.4-5.9,0-14.9-5.2-19.4c-2.8-2.4-12.8-13.1-18-19.6l-2.3-2.8
			l3.4,1.3c11.3,4.2,24.2,10.1,37.3,17c3.1,1.6,6.1,2.5,8.8,2.5c2.3,0,4.4-0.6,6.3-1.8c4.3-2.8,6.7-8.4,6.4-15
			c-0.3-6.9-4-16-13.3-20.8c-3.3-1.7-6.3-3.4-9.8-5.4c-4.7-2.7-10.1-5.7-17.9-9.8l0.5-1.9c10.7,0.3,24.1,0.8,33.3,2.4
			c1.1,0.2,2.3,0.3,3.3,0.3c4.1,0,7.5-1.5,9.7-4.2c3.2-3.9,3.8-10,1.6-16c-3.1-8.2-10.8-14-20.5-15.5c-3.8-0.6-8.1-1.1-13.2-1.7
			c-16.2-1.9-38.3-4.4-58.4-11.8l-1.9-0.7l1.7-1.1c8.3-5.3,19.5-13.6,21.1-25.3c1.1-7.5-2.1-15.2-9.4-22.9l-0.1-0.1
			c-1.7-1.8-3.8-2.7-6-2.7c-0.3,0-0.6,0-1,0.1c-6.6,0.8-14.7,9.3-24,25.4c-1.2,2.1-6,4.2-13.7,7.5c-5.1,2.2-11,4.7-16.4,7.8
			l-0.7,0.4l-0.5-0.6c-1.9-2.1-4.3-3.4-7.1-3.7c-0.4,0-0.9-0.1-1.3-0.1c-3.9,0-8.3,1.8-12.3,5.1c-0.8,0.6-1.6,1.5-2.5,2.5l-0.5,0.5
			l-33.6-12.2c-2-0.7-4-1.1-6.1-1.1c-6.9,0-12.9,3.9-15.8,10.2c-2,4.4-2.2,9.2-0.4,13.7c1.7,4.5,5.2,8,9.6,9.8l31.9,13.3l0,0.7
			c-0.1,1.2,0,2.3,0.1,3.2c0.8,6.3,2.6,10.3,5.6,12.4c1.6,1.1,3.5,1.7,5.6,1.7c0.4,0,0.8,0,1.3-0.1l0.8-0.1l0.3,0.8
			c5.4,16.2,15.5,28.2,31.8,37.9c5.2,3.1,11.8,5.9,18.1,7.8c11,3.2,29.8,16.4,43.4,26c11.9,8.4,16.6,11.6,18.8,11.8
			C-321.8,224.1-321.3,224.1-320.9,224.1z"/>
		<path d="M-490.6,99.1c1.8,4.7,5.5,8.4,10.1,10.4l31.3,13c-0.1,1.2,0,2.4,0.1,3.4c0.9,6.6,2.8,10.8,6,13.1c1.8,1.3,3.8,1.9,6.2,1.9
			c0.5,0,0.9,0,1.4-0.1c5.4,16.4,15.7,28.7,32.2,38.5c5.3,3.2,12,6,18.4,7.9c10.9,3.2,29.5,16.3,43.1,25.9
			c12.3,8.7,16.8,11.7,19.3,11.9c0.5,0,1.1,0.1,1.6,0.1c6.8,0,9.5-4,10.5-6.5c2.6-6.2,0-15.8-5.5-20.5c-2.8-2.3-12.7-13-17.9-19.5
			c11.2,4.2,24.1,10.1,37.2,17c7.7,4.1,13,2.6,16,0.7c4.6-2.9,7.2-8.9,6.9-15.9c-0.3-7.2-4.1-16.7-13.8-21.7
			c-3.3-1.7-6.2-3.4-9.7-5.4c-4.6-2.6-10.1-5.7-17.9-9.8c11.4,0.4,24.1,0.8,33.2,2.4c5.9,1,10.9-0.5,14-4.3c3.5-4.2,4.1-10.7,1.7-17
			c-3.3-8.6-11.2-14.6-21.3-16.1c-3.8-0.6-8.2-1.1-13.3-1.7c-16.3-1.9-38.1-4.4-58.1-11.8c9.9-6.3,20-14.7,21.6-26
			c1.1-7.8-2.2-15.8-9.7-23.7l-0.1-0.1c-2.2-2.3-4.9-3.3-7.8-3c-6.9,0.8-15.2,9.5-24.8,25.9c-1.1,2-7.3,4.6-13.2,7.1
			c-5.2,2.2-11.1,4.7-16.5,7.8c-2-2.3-4.7-3.7-7.8-4.1c-4.5-0.5-9.6,1.4-14.3,5.2c-0.9,0.7-1.8,1.6-2.6,2.6l-33-12
			c-9.1-3.3-19.1,0.8-23.2,9.6C-492.3,89.2-492.5,94.3-490.6,99.1z M-418.3,96.6c6.1-7.7,17.9-12.7,27.4-16.7
			c7.9-3.4,13.6-5.8,15.6-9.2c8.3-14.3,16-22.9,21-23.5c1.4-0.2,2.6,0.3,3.7,1.5l0.1,0.1c6.4,6.7,9.2,13.3,8.3,19.5
			c-1.5,10.8-13.4,19-23.5,25c-0.8,0.5-1.3,1.4-1.2,2.3c0.1,0.9,0.7,1.8,1.5,2.1c21.9,9.1,46.3,11.9,64.1,14c5,0.6,9.4,1.1,13.1,1.6
			c8.3,1.3,14.8,6.1,17.4,13c1.8,4.6,1.4,9.2-0.9,12c-2,2.4-5.2,3.3-9.3,2.5c-2.3-0.4-4.5-0.7-6.8-0.9c-2.6-0.3-5.3-0.5-7.9-0.7
			c-8.5-0.6-17.1-0.8-25.6-1.3c-8.6-0.5-17.2-0.8-25.7,0.6c-2,0.3-4.6,1.4-6.6,1.3c5,0.4,10.1,0.8,15.1,1.2c4.8,0.4,9.7,1,14,3.2
			c3.5,1.7,7,3.5,10.4,5.3c4.9,2.6,9.8,5.3,14.6,8.1c3.5,2,6.6,3.7,9.9,5.5c7.8,4,10.8,11.6,11.1,17.4c0.2,5.1-1.5,9.5-4.6,11.5
			c-2.8,1.8-6.6,1.5-11-0.9c-3.6-1.9-7.2-3.7-10.8-5.5c-2.1-1-4.1-2-6.2-3c-14.9-7.1-30.5-13.9-47.3-14.6c-1.4-0.1-2.7-0.1-4.1,0
			c-0.9,0-2.5,0.5-3.3,0.2c3.2,1.1,6.5,2.1,9.8,3.1c3.7,1.2,7.6,1.7,11.1,3.3c3.5,1.6,5.2,4.5,7.5,7.3c1.8,2.2,3.7,4.4,5.6,6.5
			c4.9,5.5,10.9,11.8,12.8,13.4c3.8,3.3,5.9,10.6,4.1,14.8c-1.1,2.6-3.4,3.7-7.1,3.4c-1.7-0.4-9.7-6-16.8-11
			c-14.7-10.3-32.9-23.2-44.6-26.6c-6-1.7-12.3-4.4-17.2-7.4c-16.1-9.6-25.9-21.6-30.7-37.8C-434.2,127.8-425.2,105.2-418.3,96.6z
			 M-428.2,88.2c3.7-3,7.5-4.5,10.6-4.2c1.5,0.2,2.9,0.8,4,1.8c-3.3,2.2-6.2,4.8-8.6,7.7c-7.3,9.1-16,30.2-14.5,42.4
			c-1.4,0-2.5-0.3-3.5-0.9c-2-1.4-3.3-4.6-3.9-9.7C-445.4,115.3-435.4,94-428.2,88.2z M-485.6,86.7c3-6.4,10.2-9.5,16.9-7l31.5,11.4
			c-4.9,7.2-9.6,17.7-11.3,26.3l-30-12.5c-3.4-1.4-6.1-4.1-7.4-7.6C-487.3,93.8-487.2,90-485.6,86.7z"/>
		<path d="M-404.3,144.8c-1.2-0.8-2.3-1.5-3.4-2.2c-3.6-2.2-7.4-4.5-14.8-11.3c-0.8-0.8-0.9-2-0.1-2.9c0.8-0.8,2-0.9,2.9-0.1
			c7.1,6.5,10.6,8.6,14.2,10.8c1.1,0.7,2.3,1.4,3.6,2.2c0.9,0.6,1.2,1.9,0.6,2.8c-0.4,0.6-1,0.9-1.7,0.9
			C-403.6,145.2-404,145.1-404.3,144.8z M-390.1,133.2c0.8,0,1.5-0.5,1.9-1.2c0.4-1,0-2.2-1.1-2.7c-2.3-1-4.5-1.9-6.7-2.7
			c-5.9-2.4-12-4.8-21.2-9.7c-1-0.5-2.2-0.2-2.7,0.8c-0.5,1-0.2,2.2,0.8,2.7c9.4,5,15.6,7.5,21.6,9.9c2.1,0.8,4.3,1.7,6.6,2.7
			C-390.6,133.2-390.3,133.2-390.1,133.2z M-394.1,113.3c0.9,0,1.7-0.6,2-1.5c0.3-1.1-0.4-2.2-1.5-2.5c-1.4-0.4-2.8-0.7-4.2-1
			c-4.4-1.1-8.6-2.1-15.6-4.7c-1.1-0.4-2.2,0.1-2.6,1.2c-0.4,1.1,0.1,2.2,1.2,2.6c7.1,2.7,11.7,3.8,16,4.8c1.3,0.3,2.7,0.7,4.1,1
			C-394.5,113.3-394.3,113.3-394.1,113.3z"/>
	</g>
	<g display="inline">
		<path fill="#FFFFFF" d="M-522.1,56.9c8.7,0,15.4-1.7,20-5.1c3.6-2.7,5.8-6.3,6.7-10.8l0.1-0.7l0.8-0.1c11-1,16.1-10.3,17.2-18
			c1-7.3-1.2-13.9-5.7-17.4l-1.1-0.8l1.1-0.8c8.5-6.2,9.5-14.8,7.5-20.7c-2.1-6.5-9-13.1-19.6-13.1c-0.8,0-1.6,0-2.4,0.1l-0.9,0.1
			l-0.4-1.9c-1.4-6.4-4.5-19.6-21-24.9c-3.7-1.2-8.1-1.8-13-1.8c-14.5,0-30.6,5.2-42.1,13.7l-0.6,0.5l-0.6-0.5
			c-2.1-1.8-4.5-2.7-7.3-2.7c-4.1,0-8.7,2.2-12.8,6.2c-0.6,0.6-1.2,1.3-1.9,2.1l-0.4,0.6l-33.8-11c-1.8-0.6-3.6-0.9-5.5-0.9
			c-7,0-13.3,4.2-16.1,10.7c-1.9,4.4-1.9,9.3,0,13.7c1.9,4.4,5.4,7.8,9.9,9.5l33.6,12.7l0,0.7c0,1.5,0.2,2.8,0.4,3.9
			c1.4,6.3,3.5,10,6.6,11.9c1.4,0.8,3,1.2,4.7,1.2c0.7,0,1.5-0.1,2.4-0.2l0.8-0.1l0.3,0.7c6.7,15.6,17.8,26.8,35,35.1
			c5.5,2.6,12.3,4.9,18.7,6.2C-534.3,56.1-527.8,56.9-522.1,56.9z"/>
		<path d="M-564.7,15.1c-1.3-0.7-2.4-1.3-3.6-1.9c-3.8-1.9-7.8-3.9-15.7-9.9c-0.9-0.7-1.1-2-0.4-2.8c0.7-0.9,2-1.1,2.8-0.4
			c7.7,5.8,11.4,7.7,15.1,9.5c1.2,0.6,2.4,1.2,3.8,1.9c1,0.5,1.3,1.8,0.8,2.8c-0.4,0.7-1.1,1.1-1.8,1.1
			C-564.1,15.3-564.4,15.2-564.7,15.1z M-551.7,2.3c0.9,0,1.7-0.5,1.9-1.4c0.3-1.1-0.2-2.2-1.3-2.6c-2.4-0.8-4.7-1.5-6.9-2.1
			c-6.1-1.8-12.4-3.7-22-7.8c-1-0.4-2.2,0-2.7,1.1s0,2.2,1.1,2.7c9.8,4.2,16.2,6.1,22.4,8c2.2,0.7,4.4,1.3,6.8,2.1
			C-552.1,2.3-551.9,2.3-551.7,2.3z M-557.5-17.2c1,0,1.8-0.7,2-1.7c0.2-1.1-0.6-2.2-1.7-2.3c-1.4-0.2-2.8-0.4-4.1-0.7
			c-4.3-0.7-8.8-1.3-16-3.3c-1.1-0.3-2.2,0.3-2.5,1.4c-0.3,1.1,0.3,2.2,1.4,2.5c7.4,2.1,12,2.8,16.5,3.4c1.3,0.2,2.7,0.4,4.1,0.6
			C-557.7-17.2-557.6-17.2-557.5-17.2z"/>
		<path d="M-654.8-26.5c2,4.7,5.7,8.2,10.5,10l33,12.5c0,1.5,0.2,2.9,0.4,4.1c1.4,6.5,3.7,10.5,7.1,12.5c1.6,0.9,3.3,1.4,5.2,1.4
			c0.8,0,1.7-0.1,2.5-0.3c6.8,15.8,18.1,27.2,35.4,35.6c5.5,2.7,12.5,5,19,6.3c5.9,1.2,12.8,2.2,19.5,2.2c7.8,0,15.2-1.4,20.6-5.3
			c3.8-2.8,6.2-6.7,7.1-11.5c10.8-1,16.9-9.9,18.1-18.9c1.1-7.8-1.3-14.7-6.1-18.3c8.9-6.4,10-15.5,7.9-21.9
			c-2.5-7.6-10.6-14.8-23-13.7c-0.1-0.3-0.2-0.7-0.2-1.1c-1.5-6.5-4.6-20.2-21.7-25.7l0,0c-15.1-4.9-39.6,0-56,12
			c-5.7-5-14-3.7-21.5,3.5c-0.7,0.6-1.3,1.4-2,2.2L-632-51.5c-9.2-3-19,1.5-22.8,10.4C-656.8-36.4-656.8-31.2-654.8-26.5z
			 M-582.8-31.8c11.9-18.3,44.5-27.4,61.9-21.8c14.3,4.6,16.8,15.5,18.3,22c-17.1-1.7-23-9-31.3-15.1c0.8,0.6,1.5,1.6,2.2,2.4
			c0.7,0.8,1.3,1.6,2,2.4c2.9,3.6,5.8,7.2,9.7,9.7c5.5,3.5,12.3,5.1,18.7,5.7c2,0.2,3.9-0.1,5.8-0.1c1.5,0,3,0.1,4.5,0.4
			c5.3,1.1,10,4.7,11.7,10c1.5,4.7,0.6,11.5-6.3,16.4c-2.2,1.2-4.4,1.6-6.8,1.8c-2.6,0.3-5.1,0.5-7.7,0.6c-2.2,0.1-4.4,0.2-6.6,0.2
			c-1.2,0-2.4,0-3.7,0.1c-0.7,0-1.4,0-2.1,0c-0.7,0-1.6,0.2-2.3,0c0.5,0.1,1,0.2,1.4,0.4c2.9,0.9,5.7,1.8,8.6,2.4
			c2.3,0.4,4.7,0.7,7,0.8c1.6,0,3.2,0.1,4.9,0.1c1.4,0,2.8-0.2,4.1,0c0.9,0.1,1.8,0.5,2.5,0.9c4.3,2.6,5.6,8.8,4.9,14.1
			c0,0.3-0.1,0.6-0.1,0.9c-0.7,4-2.6,7.9-5.8,10.6c-1.7,1.4-3.8,2.4-6,2.9c-2.5,0.5-5.1,0.2-7.7,0c-2.6-0.2-5.3-0.3-7.9-0.4
			c-4.7-0.2-9.5-0.2-14.2-0.5c5.9,3.3,15.1,5,23.6,5.8c-0.7,3.3-2.4,5.8-5,7.7c-6.6,4.9-19.4,5.7-36.1,2.2
			c-6.2-1.2-12.6-3.4-17.8-5.9c-16.9-8.2-27.7-19.3-33.8-35C-595.8,0.8-588.9-22.1-582.8-31.8z M-593.4-39.3c4.1-3.9,9.7-6.7,14-3.9
			c-2.9,2.6-5.5,5.5-7.6,8.6c-5.6,8.7-13.3,31.1-10.7,43.5c-1.4,0.2-2.6,0-3.6-0.6c-2.1-1.2-3.7-4.3-4.8-9.3
			C-608.1-10.8-600-32.8-593.4-39.3z M-650.2-39.1c2.8-6.5,9.9-9.8,16.7-7.6l31.8,10.4c-4.3,7.4-8.2,18.2-9.3,27.1l-31.5-11.9
			c-3.5-1.3-6.2-3.9-7.7-7.3S-651.6-35.7-650.2-39.1z"/>
	</g>
</g>
</svg>
