<?xml version="1.0" encoding="utf-8"?>
<!-- Generator: Adobe Illustrator 23.0.0, SVG Export Plug-In . SVG Version: 6.00 Build 0)  -->
<svg version="1.1" baseProfile="tiny"
	 id="svg32847" xmlns:cc="http://creativecommons.org/ns#" xmlns:dc="http://purl.org/dc/elements/1.1/" xmlns:inkscape="http://www.inkscape.org/namespaces/inkscape" xmlns:rdf="http://www.w3.org/1999/02/22-rdf-syntax-ns#" xmlns:sodipodi="http://sodipodi.sourceforge.net/DTD/sodipodi-0.dtd"
	 xmlns="http://www.w3.org/2000/svg" xmlns:xlink="http://www.w3.org/1999/xlink" x="0px" y="0px" viewBox="0 0 110.8 67.1"
	 xml:space="preserve">
<g>
	<path fill="#FFFFFF" d="M12.2,66.6c-1,0-2-0.2-2.8-0.7c-2.2-1.3-3.5-4-3.5-7.2c0-3.4,1.6-7.9,6-10.5c1.6-0.9,3-1.8,4.7-2.8
		c2.2-1.4,4.8-3,8.5-5.2l-0.3-0.9c-5.2,0.4-11.8,0.9-16.3,1.9c-0.7,0.2-1.4,0.2-2,0.2c-1.8,0-3.4-0.6-4.5-1.9
		C0.5,37.6,0,34.6,1,31.7c1.4-4.1,5-7.1,9.7-8c4.3-0.9,8.3-1.3,12.1-1.7c3.5-0.4,6.7-0.7,10.3-1.3l0.4-0.1l0-0.4
		c0-0.2,0-0.5,0.1-0.7c0.3-3.2,0.9-9.8,8.6-13.5c2.7-1.3,6.3-2,10.3-2c6,0,12.3,1.5,17.2,4.2L70,8.5l0.3-0.3
		c1.1-1.2,2.5-1.8,4.1-1.8c1.8,0,3.9,0.8,5.8,2.2c0.1,0.1,0.2,0.2,0.3,0.3l0.2,0.2l17.3-7.8c1.1-0.5,2.3-0.8,3.6-0.8
		c3.1,0,6,1.7,7.5,4.4c1.1,2.1,1.4,4.4,0.7,6.7c-0.7,2.3-2.2,4.1-4.3,5.2L89.4,25l0.1,0.4c0.2,1.1,0.3,2,0.2,2.8
		c-0.3,3.1-1,5.1-2.5,6.2c-0.8,0.6-1.8,1-3,1c-0.1,0-0.2,0-0.3,0l-0.5,0l-0.1,0.4c-2.3,8-6.9,14.1-14.7,19.3
		c-2.5,1.6-5.7,3.2-8.7,4.2c-2.3,0.7-4.6,1.1-6.9,1.1c-5,0-10.3-1.7-15.7-5.1L37,55.1l-0.2,0.1c-5.8,2.3-12.9,5.9-20,10
		C15.1,66.1,13.6,66.6,12.2,66.6z"/>
	<path d="M68.1,38.6c-0.3,0-0.6-0.1-0.8-0.4c-0.3-0.4-0.2-1.1,0.2-1.4c0.6-0.4,1.2-0.8,1.7-1.2c1.7-1.1,3.4-2.3,6.7-5.6
		c0.4-0.4,1-0.4,1.4,0c0.4,0.4,0.4,1,0,1.4c-3.5,3.5-5.3,4.7-7,5.8c-0.5,0.4-1.1,0.7-1.6,1.1C68.5,38.6,68.3,38.6,68.1,38.6z
		 M61.8,33c1.1-0.5,2.2-1,3.2-1.5c2.9-1.3,5.9-2.7,10.4-5.3c0.5-0.3,0.6-0.9,0.3-1.4c-0.3-0.5-0.9-0.6-1.4-0.3
		c-4.4,2.6-7.3,3.9-10.2,5.2c-1,0.5-2.1,0.9-3.2,1.5c-0.5,0.2-0.7,0.8-0.5,1.3c0.2,0.4,0.5,0.6,0.9,0.6C61.5,33.1,61.7,33.1,61.8,33
		z M63.2,23.2c0.7-0.2,1.3-0.4,1.9-0.6c2.1-0.6,4.3-1.2,7.8-2.7c0.5-0.2,0.7-0.8,0.5-1.3c-0.2-0.5-0.8-0.7-1.3-0.5
		c-3.4,1.4-5.5,2-7.6,2.6c-0.6,0.2-1.3,0.4-2,0.6c-0.5,0.2-0.8,0.7-0.7,1.2c0.1,0.4,0.5,0.7,1,0.7C63,23.2,63.1,23.2,63.2,23.2z"/>
	<path d="M109.6,4.7c-2.3-4.2-7.3-5.8-11.7-3.9L80.9,8.5c-0.1-0.1-0.2-0.2-0.3-0.3c-4.1-3-8.2-3.1-10.6-0.3c-8.7-4.8-21-5.6-28-2.3
		l0,0C34,9.4,33.4,16.2,33,19.5c0,0.2,0,0.5-0.1,0.7c-3.5,0.6-6.8,1-10.2,1.3c-3.8,0.4-7.8,0.8-12.1,1.7c-4.9,1-8.7,4.1-10.1,8.4
		c-1,3.1-0.6,6.3,1.2,8.3c1.6,1.8,4.1,2.4,7,1.8c4.4-1,10.6-1.5,16.2-1.9c-3.8,2.1-6.4,3.8-8.6,5.2c-1.7,1-3.1,1.9-4.6,2.8
		c-4.6,2.6-6.3,7.4-6.3,10.9c0,3.4,1.4,6.3,3.7,7.6c0.8,0.4,1.8,0.8,3.1,0.8c1.3,0,2.9-0.4,4.8-1.5c7.1-4.1,14.1-7.7,19.9-10
		c8,5,15.8,6.4,23.1,4c3.1-1.1,6.3-2.6,8.8-4.3c7.9-5.2,12.7-11.4,14.9-19.6c0.1,0,0.3,0,0.4,0c1.3,0,2.4-0.4,3.3-1.1
		c1.5-1.2,2.4-3.3,2.6-6.5c0.1-0.9,0-1.9-0.2-3l15.9-8.1c2.2-1.1,3.8-3.1,4.6-5.4S110.8,6.9,109.6,4.7z M81.7,34.1
		c-2,8-6.5,14.1-14.2,19.2c-2.4,1.5-5.4,3-8.3,4c-6,2-12.5,1-19.3-2.8c3.5-1.2,6.7-2.4,10.5-3.8c-3.8-0.3-9.4,0.7-13.7,2.4l0,0
		c-6,2.4-13.4,6.1-20.9,10.4c-2.1,1.2-4,1.5-5.4,0.7c-1.5-0.9-2.5-3-2.5-5.5c0-2.8,1.3-6.7,5-8.8c1.6-0.9,3.1-1.8,4.7-2.9
		c2-1.3,4-2.5,6.1-3.7c1.4-0.8,2.8-1.6,4.2-2.4c1.3-0.7,2.6-1.5,4.1-1.9c1.4-0.4,2.8-0.6,4.2-0.8c2.5-0.4,5.1-0.7,7.6-1
		c-0.3,0-0.7-0.1-1-0.1c-0.4-0.1-0.8-0.1-1.2-0.2c-3.1-0.5-6.2-0.4-9.4-0.2c-5.6,0.4-11.2,1-16.9,1.5c-2.4,0.3-4.8,0.7-7.2,1.1
		c-2,0.4-3.6,0.1-4.6-1c-1.2-1.3-1.5-3.6-0.7-5.9c1.1-3.4,4.2-5.9,8.2-6.7c4.3-0.8,8.1-1.2,11.9-1.6c4-0.4,8.1-0.8,12.1-1.7
		c3.3-0.8,6.6-2,9.1-4.3c1.8-1.6,2.9-3.7,4.2-5.7c0.4-0.6,0.8-1.4,1.3-1.9c-3.6,3.5-6,7.4-14.2,9.4c0.3-3.3,0.8-8.7,7.5-11.8
		C51,4,67.5,6.4,74.4,14.5C78,18.8,82.8,29.5,81.7,34.1z M87.7,28c-0.2,2.5-0.8,4.1-1.7,4.8c-0.4,0.3-1,0.5-1.7,0.5
		c0.5-6.2-4.7-16.6-8-20.4c-1.2-1.4-2.6-2.6-4.2-3.7c1.9-1.7,4.8-0.7,7,1C82.7,12.9,88.1,23.1,87.7,28z M108,11
		c-0.5,1.7-1.7,3.2-3.3,4l-15.4,7.8c-1.3-4.4-4-9.4-6.6-12.5L99,3c3.2-1.4,6.8-0.2,8.5,2.8C108.4,7.5,108.6,9.3,108,11z"/>
</g>
<g display="none">
	<path display="inline" fill="#FFFFFF" d="M38.9,190.1c-2.9,0-4.2-1.6-4.7-2.9c-1.2-2.9,0-7.3,2.6-9.5c1.4-1.2,6.3-6.4,8.8-9.6
		l1.1-1.4l-1.7,0.6c-5.5,2.1-11.9,5-18.3,8.3c-1.5,0.8-3,1.2-4.3,1.2c-1.1,0-2.2-0.3-3.1-0.9c-2.1-1.3-3.3-4.1-3.2-7.4
		c0.2-3.4,1.9-7.9,6.5-10.2c1.6-0.8,3.1-1.7,4.8-2.6c2.3-1.3,4.9-2.8,8.8-4.8l-0.2-0.9c-5.3,0.2-11.8,0.4-16.3,1.2
		c-0.6,0.1-1.1,0.1-1.6,0.1c-2,0-3.7-0.7-4.8-2.1c-1.6-1.9-1.9-4.9-0.8-7.8c1.5-4,5.3-6.9,10.1-7.6c1.9-0.3,4-0.5,6.5-0.8
		c7.9-0.9,18.7-2.2,28.6-5.8l0.9-0.3l-0.8-0.5c-4.1-2.6-9.5-6.7-10.3-12.4c-0.5-3.7,1-7.4,4.6-11.2l0,0c0.9-0.9,1.8-1.3,2.9-1.3
		c0.2,0,0.3,0,0.5,0c3.2,0.4,7.2,4.6,11.8,12.5c0.6,1,2.9,2.1,6.7,3.7c2.5,1.1,5.4,2.3,8,3.8l0.3,0.2l0.3-0.3c0.9-1,2.1-1.7,3.5-1.8
		c0.2,0,0.4,0,0.6,0c1.9,0,4,0.9,6,2.5c0.4,0.3,0.8,0.7,1.2,1.2l0.2,0.2l16.5-6c1-0.3,2-0.5,3-0.5c3.4,0,6.3,1.9,7.8,5
		c1,2.1,1.1,4.5,0.2,6.7c-0.9,2.2-2.5,3.9-4.7,4.8l-15.6,6.5l0,0.3c0,0.6,0,1.1-0.1,1.6c-0.4,3.1-1.3,5-2.7,6.1
		c-0.8,0.6-1.7,0.8-2.8,0.8c-0.2,0-0.4,0-0.6,0l-0.4,0l-0.1,0.4C92,157.1,87,163,79,167.8c-2.6,1.5-5.8,2.9-8.9,3.8
		c-5.4,1.6-14.6,8-21.3,12.8c-5.8,4.1-8.1,5.7-9.2,5.8C39.4,190.1,39.2,190.1,38.9,190.1z"/>
	<path display="inline" d="M121.9,121.8c-2-4.3-6.9-6.3-11.3-4.7l-16.2,5.9c-0.4-0.5-0.9-0.9-1.3-1.3c-2.3-1.9-4.8-2.8-7-2.6
		c-1.5,0.2-2.8,0.9-3.8,2c-2.7-1.5-5.5-2.8-8.1-3.8c-2.9-1.2-5.9-2.5-6.5-3.5c-4.7-8-8.8-12.3-12.1-12.7c-1.4-0.2-2.8,0.3-3.8,1.5
		l0,0c-3.7,3.9-5.3,7.8-4.7,11.6c0.8,5.5,5.7,9.6,10.6,12.7c-9.8,3.6-20.5,4.9-28.5,5.8c-2.5,0.3-4.6,0.5-6.5,0.8
		c-4.9,0.8-8.8,3.7-10.4,7.9c-1.2,3.1-0.9,6.3,0.8,8.3c1.5,1.9,4,2.6,6.9,2.1c4.4-0.8,10.7-1,16.3-1.2c-3.9,2-6.5,3.5-8.8,4.8
		c-1.7,1-3.2,1.8-4.8,2.6c-4.7,2.4-6.6,7.1-6.8,10.6c-0.2,3.4,1.1,6.4,3.4,7.8c1.5,1,4.1,1.7,7.9-0.3c6.4-3.4,12.7-6.3,18.2-8.3
		c-2.5,3.2-7.4,8.4-8.8,9.5c-2.7,2.3-4,7-2.7,10.1c0.5,1.2,1.8,3.2,5.2,3.2c0.2,0,0.5,0,0.8,0c1.2-0.1,3.4-1.6,9.4-5.8
		c6.7-4.7,15.8-11.1,21.1-12.7c3.1-0.9,6.4-2.3,9-3.9c8.1-4.8,13.1-10.8,15.8-18.8c0.2,0,0.5,0,0.7,0c1.2,0,2.2-0.3,3-0.9
		c1.6-1.1,2.5-3.2,2.9-6.4c0.1-0.5,0.1-1.1,0.1-1.7l15.3-6.4c2.3-1,4.1-2.8,5-5.1C123,126.6,122.9,124,121.9,121.8z M93.1,147.6
		c-2.4,7.9-7.2,13.8-15,18.5c-2.4,1.4-5.5,2.8-8.4,3.6c-5.7,1.7-14.7,8-21.9,13c-3.5,2.4-7.4,5.2-8.2,5.4c-1.8,0.2-2.9-0.4-3.5-1.7
		c-0.9-2.1,0.1-5.7,2-7.2c0.9-0.8,3.9-3.9,6.3-6.6c0.9-1.1,1.9-2.1,2.8-3.2c1.1-1.4,2-2.8,3.7-3.6c1.7-0.8,3.6-1,5.4-1.6
		c1.6-0.5,3.2-1,4.8-1.5c-0.4,0.1-1.2-0.1-1.6-0.1c-0.7,0-1.3,0-2,0c-8.2,0.3-15.9,3.7-23.2,7.2c-1,0.5-2,1-3,1.5
		c-1.8,0.9-3.5,1.8-5.3,2.7c-2.2,1.1-4,1.3-5.4,0.4c-1.5-1-2.4-3.1-2.3-5.6c0.1-2.8,1.6-6.6,5.4-8.5c1.6-0.8,3.1-1.7,4.9-2.7
		c2.4-1.4,4.7-2.7,7.2-3.9c1.7-0.9,3.4-1.8,5.1-2.6c2.1-1,4.5-1.4,6.9-1.6c2.5-0.2,4.9-0.4,7.4-0.6c-1,0.1-2.3-0.5-3.2-0.6
		c-4.2-0.7-8.4-0.5-12.6-0.3c-4.2,0.3-8.4,0.4-12.6,0.7c-1.3,0.1-2.6,0.2-3.9,0.3c-1.1,0.1-2.2,0.3-3.3,0.5c-2,0.4-3.6-0.1-4.6-1.2
		c-1.1-1.4-1.3-3.6-0.4-5.9c1.3-3.4,4.5-5.7,8.5-6.4c1.8-0.3,4-0.5,6.4-0.8c8.7-1,20.7-2.4,31.4-6.8c0.4-0.2,0.7-0.6,0.8-1
		c0-0.5-0.2-0.9-0.6-1.1c-5-2.9-10.8-7-11.5-12.3c-0.4-3,0.9-6.3,4.1-9.6l0,0c0.6-0.6,1.1-0.8,1.8-0.7c2.5,0.3,6.2,4.5,10.3,11.5
		c1,1.7,3.8,2.9,7.6,4.5c4.6,2,10.4,4.4,13.4,8.2C90.1,131.9,94.4,142.9,93.1,147.6z M99.3,141.7c-0.3,2.5-1,4-1.9,4.7
		c-0.5,0.3-1,0.5-1.7,0.5c0.7-6-3.5-16.3-7.1-20.8c-1.1-1.4-2.6-2.7-4.2-3.8c0.5-0.5,1.2-0.8,1.9-0.9c1.5-0.2,3.4,0.6,5.2,2
		C95.1,126.4,99.9,136.8,99.3,141.7z M119.8,128c-0.7,1.7-2,3-3.6,3.7l-14.7,6.1c-0.8-4.2-3.1-9.4-5.5-12.9l15.4-5.6
		c3.3-1.2,6.8,0.3,8.3,3.5C120.4,124.5,120.5,126.3,119.8,128z"/>
	<path display="inline" d="M79.3,151.5c-0.3,0-0.6-0.2-0.8-0.4c-0.3-0.5-0.2-1.1,0.3-1.4c0.6-0.4,1.2-0.8,1.7-1.1
		c1.8-1.1,3.5-2.1,7-5.3c0.4-0.4,1-0.3,1.4,0.1c0.4,0.4,0.3,1-0.1,1.4c-3.6,3.3-5.5,4.4-7.3,5.5c-0.6,0.3-1.1,0.7-1.7,1.1
		C79.7,151.4,79.5,151.5,79.3,151.5z M73.2,145.5c1.1-0.5,2.2-0.9,3.2-1.3c3-1.2,6-2.4,10.6-4.8c0.5-0.3,0.7-0.9,0.4-1.3
		c-0.3-0.5-0.9-0.7-1.3-0.4c-4.5,2.4-7.5,3.6-10.4,4.8c-1,0.4-2.1,0.8-3.3,1.3c-0.5,0.2-0.7,0.8-0.5,1.3c0.2,0.4,0.5,0.6,0.9,0.6
		C73,145.6,73.1,145.6,73.2,145.5z M75.1,135.8c0.7-0.2,1.4-0.3,2-0.5c2.1-0.5,4.3-1.1,7.8-2.4c0.5-0.2,0.8-0.8,0.6-1.3
		c-0.2-0.5-0.8-0.8-1.3-0.6c-3.4,1.3-5.4,1.8-7.6,2.3c-0.7,0.2-1.3,0.3-2.1,0.5c-0.5,0.1-0.8,0.7-0.7,1.2c0.1,0.4,0.5,0.7,1,0.7
		C74.9,135.9,75,135.8,75.1,135.8z"/>
</g>
<g display="none">
	<path display="inline" fill="#FFFFFF" d="M156.2,91c-4.2,0-7.5-0.8-9.8-2.5c-1.8-1.3-2.9-3.1-3.3-5.3l-0.1-0.4l-0.4,0
		c-5.4-0.5-7.9-5.1-8.4-8.8c-0.5-3.6,0.6-6.8,2.8-8.5l0.5-0.4l-0.5-0.4c-4.2-3-4.6-7.2-3.7-10.2c1-3.2,4.4-6.4,9.6-6.4
		c0.4,0,0.8,0,1.2,0.1l0.4,0l0.2-0.9c0.7-3.1,2.2-9.6,10.3-12.2c1.8-0.6,4-0.9,6.4-0.9c7.1,0,15,2.6,20.6,6.7l0.3,0.2l0.3-0.3
		c1-0.9,2.2-1.3,3.6-1.3c2,0,4.3,1.1,6.3,3c0.3,0.3,0.6,0.6,0.9,1l0.2,0.3l16.6-5.4c0.9-0.3,1.8-0.4,2.7-0.4c3.4,0,6.5,2.1,7.9,5.3
		c0.9,2.2,0.9,4.6,0,6.7c-0.9,2.2-2.7,3.8-4.9,4.7l-16.5,6.2l0,0.3c0,0.7-0.1,1.4-0.2,1.9c-0.7,3.1-1.7,4.9-3.2,5.8
		c-0.7,0.4-1.5,0.6-2.3,0.6c-0.4,0-0.7,0-1.2-0.1l-0.4-0.1l-0.2,0.4c-3.3,7.7-8.7,13.1-17.1,17.2c-2.7,1.3-6,2.4-9.2,3
		C162.2,90.6,159,91,156.2,91z"/>
	<path display="inline" d="M176.6,70.6c-0.4,0-0.7-0.2-0.9-0.5c-0.3-0.5-0.1-1.1,0.4-1.4c0.7-0.4,1.3-0.7,1.8-1
		c1.8-0.9,3.6-1.8,7.4-4.7c0.4-0.3,1.1-0.2,1.4,0.2c0.3,0.4,0.3,1.1-0.2,1.4c-3.9,3-5.8,3.9-7.7,4.9c-0.6,0.3-1.1,0.6-1.8,0.9
		C177,70.6,176.8,70.6,176.6,70.6z M171,64.2c1.2-0.4,2.3-0.7,3.3-1c3-0.9,6.2-1.9,11-3.9c0.5-0.2,0.7-0.8,0.5-1.3
		c-0.2-0.5-0.8-0.7-1.3-0.5c-4.7,2-7.8,2.9-10.8,3.8c-1.1,0.3-2.2,0.7-3.4,1c-0.5,0.2-0.8,0.7-0.6,1.3c0.1,0.4,0.5,0.7,0.9,0.7
		C170.8,64.3,170.9,64.3,171,64.2z M173.7,54.7c0.7-0.1,1.3-0.2,2-0.3c2.2-0.3,4.4-0.7,8.1-1.7c0.5-0.1,0.8-0.7,0.7-1.2
		c-0.1-0.5-0.7-0.8-1.2-0.7c-3.5,1-5.7,1.3-7.8,1.6c-0.7,0.1-1.3,0.2-2,0.3c-0.5,0.1-0.9,0.6-0.8,1.1c0.1,0.5,0.5,0.8,1,0.8
		C173.6,54.7,173.7,54.7,173.7,54.7z"/>
	<path display="inline" d="M221.2,43c-1.9-4.4-6.7-6.6-11.2-5.1l-16.2,5.3c-0.3-0.4-0.6-0.8-1-1.1c-3.7-3.5-7.7-4.1-10.5-1.7
		c-8-5.9-20.1-8.3-27.5-5.9l0,0c-8.4,2.7-9.9,9.4-10.6,12.6c0,0.2-0.1,0.4-0.1,0.5c-6-0.5-10.1,3-11.3,6.7c-1,3.1-0.5,7.6,3.9,10.7
		c-2.3,1.8-3.5,5.1-3,9c0.6,4.4,3.6,8.8,8.9,9.2c0.4,2.3,1.6,4.2,3.5,5.6c2.6,1.9,6.3,2.6,10.1,2.6c3.3,0,6.7-0.5,9.5-1.1
		c3.2-0.6,6.6-1.8,9.3-3.1c8.5-4.1,14-9.7,17.4-17.4c0.4,0.1,0.8,0.1,1.2,0.1c0.9,0,1.8-0.2,2.6-0.7c1.7-1,2.8-2.9,3.5-6.1
		c0.1-0.6,0.2-1.3,0.2-2l16.2-6.1c2.3-0.9,4.2-2.6,5.1-4.9C222.2,47.9,222.2,45.3,221.2,43z M190.6,68c-3,7.7-8.3,13.1-16.6,17.2
		c-2.5,1.2-5.7,2.3-8.7,2.9c-8.2,1.7-14.5,1.3-17.7-1.1c-1.3-1-2.1-2.2-2.4-3.8c4.1-0.4,8.7-1.2,11.5-2.8c-2.3,0.2-4.6,0.2-7,0.3
		c-1.3,0-2.6,0.1-3.9,0.2c-1.3,0.1-2.5,0.2-3.8,0c-1.1-0.2-2.1-0.7-2.9-1.4c-1.6-1.3-2.5-3.2-2.8-5.2c0-0.1-0.1-0.3-0.1-0.4
		c-0.4-2.6,0.3-5.6,2.4-6.9c0.4-0.2,0.8-0.4,1.2-0.5c0.7-0.1,1.4,0,2,0c0.8,0,1.6-0.1,2.4-0.1c1.2-0.1,2.3-0.2,3.4-0.4
		c1.4-0.3,2.8-0.7,4.2-1.2c0.2-0.1,0.5-0.1,0.7-0.2c-0.3,0.1-0.8,0-1.1,0c-0.3,0-0.7,0-1,0c-0.6,0-1.2,0-1.8,0c-1.1,0-2.1,0-3.2-0.1
		c-1.3-0.1-2.5-0.2-3.8-0.3c-1.2-0.1-2.3-0.3-3.3-0.9c-3.4-2.4-3.8-5.7-3.1-8c0.8-2.6,3.1-4.3,5.7-4.9c0.7-0.2,1.5-0.2,2.2-0.2
		c1,0,1.9,0.2,2.9,0.1c3.2-0.3,6.5-1,9.2-2.8c1.9-1.2,3.3-3,4.8-4.8c0.3-0.4,0.6-0.8,1-1.2c0.3-0.4,0.7-0.9,1.1-1.2
		c-4,3-7,6.6-15.3,7.4c0.7-3.2,2-8.5,9-10.8c8.5-2.7,24.5,1.7,30.3,10.7C189,52.3,192.3,63.6,190.6,68z M197.3,62.7
		c-0.5,2.5-1.3,3.9-2.3,4.6c-0.5,0.3-1.1,0.4-1.7,0.3c1.3-6.1-2.5-17-5.2-21.3c-1-1.5-2.3-2.9-3.7-4.2c2.1-1.4,4.8,0,6.8,1.9
		C194.4,47.1,198.3,57.9,197.3,62.7z M218.9,49.2c-0.7,1.7-2.1,2.9-3.8,3.6l-15.4,5.8c-0.5-4.4-2.4-9.6-4.5-13.3l15.6-5.1
		c3.3-1.1,6.8,0.5,8.2,3.7C219.7,45.7,219.7,47.5,218.9,49.2z"/>
</g>
</svg>
