<?xml version="1.0" encoding="utf-8"?>
<!-- Generator: Adobe Illustrator 23.0.0, SVG Export Plug-In . SVG Version: 6.00 Build 0)  -->
<svg version="1.1" id="Layer_1" xmlns="http://www.w3.org/2000/svg" xmlns:xlink="http://www.w3.org/1999/xlink" x="0px" y="0px"
	 viewBox="0 0 211.2 85.2" style="enable-background:new 0 0 211.2 85.2;" xml:space="preserve">
<style type="text/css">
	.st0{display:none;fill:#212529;}
	.st1{fill:#FFD166;}
	.st2{fill:#FFFFFF;}
</style>
<rect x="-123.6" y="-218.8" class="st0" width="512" height="512"/>
<g>
	<path d="M210.6,70.9c-0.1-0.1-0.3-0.3-0.5-0.5l-0.2-0.2c0-0.1,0-0.2,0-0.3c-0.1-0.4-0.2-0.9-0.5-1.4c-0.5-0.8-1.2-1.5-1.9-1.9
		c-0.7-0.4-1.5-0.7-2.4-0.7c0,0-0.1,0-0.2,0c-0.9,0-1.7,0.3-2.5,0.8c-1,0.6-1.7,1.4-2.2,2.3c-0.1,0.1-0.1,0.2-0.1,0.3
		c-0.6-0.3-1.2-0.4-1.8-0.4c-0.2,0-0.5,0-0.7,0.1c-0.7,0.1-1.4,0.4-1.9,0.8c-0.5-0.2-1.1-0.3-1.7-0.3c-0.2,0-0.5,0-0.7,0.1
		c-0.3,0-0.6,0.1-0.9,0.3c-0.4-0.2-0.8-0.3-1.2-0.3c-0.1,0-0.3,0-0.4,0l-0.8,0.1c-0.4,0.1-0.8,0.2-1.1,0.4c-0.6-0.5-1.5-1-2.7-1.3
		c-0.4-0.1-0.8-0.1-1.2-0.1c-0.3,0-0.6,0-0.9,0.1c-0.2,0-0.3,0.1-0.5,0.1c-0.1-0.2-0.2-0.5-0.3-0.7c-0.3-0.4-0.8-0.9-1.7-1.1
		l-0.8-0.2c-0.2,0-0.4-0.1-0.5-0.1c-0.4,0-0.8,0.1-1.2,0.3c-0.1,0-0.2,0-0.3-0.1c-0.4-0.1-0.8-0.1-1.1-0.1c-0.6,0-1.1,0.1-1.7,0.3
		c-0.9,0.3-1.7,0.8-2.4,1.6c-0.6,0.7-1.1,1.6-1.3,2.7c-0.2,1-0.2,1.9,0.1,2.8c0.1,0.3,0.2,0.7,0.4,1L172,76
		c-0.1,0.2-0.2,0.4-0.3,0.7c-0.3,0.8-0.1,1.6,0.4,2.2c0.5,0.6,1.1,1.1,1.9,1.4c0.6,0.3,1.3,0.5,1.9,0.6c0.4,0.1,0.9,0.1,1.3,0.1
		c0.4,0,0.8,0,1.2-0.1c0.9-0.2,1.7-0.6,2.4-1.3c0.2-0.2,0.3-0.4,0.5-0.6c0.6,0.5,1.3,0.8,2.1,0.9c0.1,0,0.3,0,0.4,0
		c0.1,0,0.3,0,0.4,0c0.1,0,0.2,0,0.2,0c0.3,0.3,0.8,0.5,1.2,0.6l1.1,0.2c0.2,0,0.3,0,0.5,0c0.7,0,1.4-0.3,1.9-0.9
		c0.4,0.7,1.2,1.1,2.1,1.1c0.1,0,0.3,0,0.4,0l0.8-0.1c0.6-0.1,1.1-0.4,1.5-0.7c0.4,0.3,1,0.5,1.6,0.5c0.1,0,0.3,0,0.4,0l0.8-0.1
		c0.8-0.1,1.4-0.5,1.8-1.1c0.4,0.2,0.8,0.3,1.2,0.3c0.1,0,0.3,0,0.4,0l0.8-0.1c1.5-0.2,2.4-1.4,2.2-2.9c0.7,0.3,1.4,0.5,2.2,0.5
		l0.2,0c1,0,1.9-0.3,2.9-0.9c0.5-0.3,1.1-0.8,1.5-1.3c0.5-0.6,0.9-1.2,1.1-1.9C211.3,72.3,211.1,71.5,210.6,70.9z"/>
	<g>
		<path class="st1" d="M176.2,78.9c-0.5-0.1-1-0.2-1.4-0.5c-0.5-0.2-0.9-0.5-1.2-0.9c-0.1-0.1-0.1-0.2-0.1-0.3
			c0-0.1,0.1-0.2,0.1-0.3l0.5-0.8c0.1-0.1,0.2-0.2,0.3-0.2c0.1,0,0.2,0,0.3,0.1c0.1,0.1,0.3,0.2,0.5,0.3c0.2,0.1,0.4,0.2,0.6,0.3
			c0.2,0.1,0.5,0.1,0.7,0.2c0.3,0,0.5,0.1,0.7,0c0.2,0,0.4-0.1,0.5-0.3c0.1-0.2,0.3-0.4,0.3-0.7l0.1-0.7c-0.3,0.2-0.6,0.3-1,0.4
			c-0.4,0.1-0.7,0.1-1.1,0c-0.5-0.1-1-0.3-1.4-0.7c-0.4-0.4-0.7-0.8-0.8-1.3c-0.2-0.5-0.2-1.1-0.1-1.8c0.1-0.7,0.4-1.3,0.8-1.8
			s0.9-0.8,1.5-1s1.2-0.2,1.8-0.1c0.2,0,0.5,0.1,0.7,0.2c0.2,0.1,0.4,0.2,0.7,0.3l0-0.1c0.1-0.4,0.3-0.5,0.7-0.4l0.8,0.2
			c0.4,0.1,0.5,0.3,0.4,0.7l-1.3,6.9c-0.1,0.7-0.4,1.3-0.8,1.7c-0.4,0.4-0.8,0.6-1.3,0.7S176.8,79,176.2,78.9z M177,73.7
			c0.3,0.1,0.6,0,0.9-0.1s0.5-0.3,0.6-0.5c0.2-0.3,0.3-0.6,0.4-1l0.1-0.8c-0.2-0.1-0.4-0.2-0.6-0.3c-0.2-0.1-0.5-0.1-0.7-0.2
			c-0.4-0.1-0.8,0-1.2,0.2c-0.3,0.2-0.6,0.6-0.7,1.1c0,0.2,0,0.5,0,0.7c0.1,0.2,0.2,0.4,0.4,0.5C176.5,73.6,176.7,73.7,177,73.7z"/>
		<path class="st1" d="M187,78.8l-1.1-0.2c-0.3,0-0.4-0.2-0.3-0.5l0.1-0.6c-0.2,0.2-0.5,0.3-0.9,0.4c-0.3,0.1-0.6,0.1-1,0.1
			c-0.1,0-0.2,0-0.2,0c-0.5-0.1-0.9-0.3-1.2-0.5c-0.3-0.3-0.6-0.6-0.7-1c-0.1-0.4-0.2-0.8-0.1-1.2c0.1-0.4,0.2-0.8,0.5-1.1
			c0.2-0.3,0.6-0.5,1-0.7c0.4-0.1,1-0.2,1.6,0c0.3,0,0.5,0.1,0.8,0.2s0.5,0.2,0.8,0.4c0,0,0-0.1,0-0.1s0-0.1,0-0.1
			c0-0.3-0.1-0.6-0.3-0.8c-0.2-0.2-0.5-0.3-0.9-0.4c-0.3,0-0.5,0-0.8,0c-0.3,0-0.6,0.1-0.9,0.2c-0.2,0.1-0.4,0-0.5-0.3l-0.1-0.4
			l-0.1-0.4c0,0,0-0.1,0-0.1c0,0,0-0.1,0-0.1c0-0.1,0.1-0.3,0.2-0.3c0.4-0.2,0.8-0.3,1.3-0.4s1-0.1,1.5,0c1,0.2,1.7,0.6,2.2,1.2
			c0.5,0.7,0.6,1.5,0.4,2.5l-0.7,4c0,0,0,0.1,0,0.1c0,0,0,0.1,0,0.1C187.3,78.8,187.2,78.8,187,78.8z M184.4,76.3c0.2,0,0.4,0,0.6,0
			c0.2,0,0.4-0.1,0.5-0.1c0.2-0.1,0.3-0.2,0.4-0.3c0,0,0-0.1,0.1-0.1s0-0.1,0-0.1l0-0.1c-0.2-0.1-0.4-0.2-0.7-0.3s-0.5-0.2-0.7-0.2
			c-0.3-0.1-0.6,0-0.7,0s-0.3,0.2-0.3,0.4c0,0.2,0,0.4,0.2,0.5C183.9,76.2,184.1,76.2,184.4,76.3z"/>
		<path class="st1" d="M196.8,77.9c0.1,0.4-0.1,0.6-0.5,0.6l-0.8,0.1c-0.4,0.1-0.6-0.1-0.6-0.5l-0.5-3.3c-0.1-0.5-0.2-0.9-0.5-1.1
			c-0.2-0.2-0.5-0.3-0.8-0.3c-0.5,0.1-0.8,0.3-0.9,0.6s-0.2,0.8-0.1,1.5l0.4,2.7c0.1,0.4-0.1,0.6-0.5,0.6l-0.8,0.1
			c-0.4,0.1-0.6-0.1-0.6-0.5l-0.9-6.4c-0.1-0.4,0.1-0.6,0.5-0.6l0.8-0.1c0.4-0.1,0.6,0.1,0.6,0.5l0.1,1c0.2-0.4,0.4-0.7,0.8-1
			c0.3-0.2,0.7-0.4,1-0.4c0.5-0.1,0.9,0,1.3,0.2c0.4,0.2,0.7,0.5,1,1c0.2-0.5,0.4-0.8,0.8-1.1s0.8-0.4,1.2-0.5
			c0.7-0.1,1.3,0,1.8,0.4s0.8,1.1,1,2.1l0.5,3.5c0.1,0.4-0.1,0.6-0.5,0.6l-0.8,0.1c-0.4,0.1-0.6-0.1-0.6-0.5l-0.4-2.9
			c-0.1-0.5-0.2-0.9-0.5-1.1c-0.2-0.2-0.5-0.3-0.8-0.3c-0.5,0.1-0.8,0.3-0.9,0.6s-0.2,0.8-0.1,1.5L196.8,77.9z"/>
		<path class="st1" d="M207.3,74.6c-0.6,0.4-1.3,0.6-1.9,0.6c-0.6,0-1.2-0.1-1.8-0.4s-1-0.8-1.4-1.4c-0.4-0.6-0.6-1.2-0.6-1.8
			c-0.1-0.6,0-1.2,0.3-1.7c0.3-0.6,0.7-1,1.4-1.4c0.5-0.3,1-0.5,1.6-0.5c0.5,0,1,0.1,1.5,0.4c0.5,0.3,0.9,0.7,1.2,1.2
			c0.1,0.2,0.2,0.4,0.2,0.6s-0.1,0.3-0.3,0.4l-3.1,2.4c0.3,0.2,0.6,0.3,1,0.3c0.4,0,0.8-0.1,1.2-0.4c0.2-0.1,0.4-0.3,0.6-0.6
			c0.2-0.3,0.3-0.5,0.5-0.7c0.1-0.1,0.1-0.2,0.2-0.2s0.2,0,0.3,0.1l0.6,0.5c0.1,0.1,0.2,0.2,0.2,0.2c0.1,0.1,0.1,0.2,0,0.3
			c-0.2,0.4-0.4,0.8-0.7,1.2C208.1,74.1,207.7,74.4,207.3,74.6z M204.2,70c-0.3,0.2-0.5,0.4-0.6,0.7c-0.1,0.3-0.1,0.6,0.1,1l2-1.6
			c-0.2-0.2-0.4-0.3-0.7-0.3C204.7,69.8,204.5,69.9,204.2,70z"/>
	</g>
	<path d="M203.5,39.8c-1.6-1.5-3.2-2.9-5-4.1l-4.6-3.3c-1.3-0.9-2.3-1.8-3-2.6c-0.1-0.1-0.3-0.3-0.4-0.5c0.2,0,0.5-0.1,0.8-0.1
		c0.3,0,0.5,0,0.8,0.1c0.9,0.1,1.9,0.4,3.1,0.9c1.3,0.5,2.5,1.2,3.6,1.8c0.1,0,0.1,0.1,0.2,0.1c1.1,0.6,2,0.8,3,0.8
		c0.3,0,0.7,0,1-0.1c1.2-0.3,2.2-1.1,3.1-2.3c0,0,2.5-4.1,2.5-4.1c0.9-1.4,1.2-2.8,0.9-4c-0.2-1.2-1-2.3-2.2-3.3
		c-1.1-1-2.5-1.9-4-2.6c-1.4-0.7-2.9-1.3-4.5-1.8c-1.6-0.5-3.1-0.8-4.7-1c-1-0.1-2-0.2-2.9-0.2c-4.1,0-7.6,1.1-10.4,3.2
		c-3.5,2.7-5.6,6.4-6.1,11.3c-0.2,2-0.1,3.9,0.4,5.7c-0.6-0.4-1.3-0.8-2-1.1c-2.8-1.3-6.1-2.1-9.7-2.4l-9.2-0.7c-0.2,0-0.4,0-0.6,0
		c-1.5,0-2.7,0.5-3.6,1.3c0-0.3-0.1-0.6-0.1-1c-1.3-6.9-4.6-11.8-9.8-14.5c-3.2-1.6-6.9-2.4-11.2-2.4c-2.4,0-5,0.3-7.7,0.8
		l-11.7,2.2c-2.2,0.4-3.4,1.5-4,2.4c-0.9,1.3-1.1,2.8-0.8,4.6l8.1,43.6c0.6,3.1,2.7,5,5.6,5c0.4,0,0.9,0,1.4-0.1l4.8-0.9
		c2.2-0.4,3.4-1.5,4-2.4c0.6-0.9,1.2-2.4,0.8-4.6l-1.5-8l1-0.2c1-0.2,1.9-0.4,2.7-0.6c0.2-0.1,0.4-0.1,0.6-0.2l9,10.4
		c0.8,1,1.5,1.7,2.2,2.3c0.4,0.4,0.9,0.7,1.4,0.9c0.3,0.2,0.7,0.2,1.1,0.3l-0.1,1.4c-0.2,2,0.5,3.3,1.2,4c0.6,0.7,1.8,1.6,3.7,1.8
		l3.8,0.3c0.2,0,0.4,0,0.6,0c2.9,0,4.9-1.9,5.2-4.9l0.4-4.9l0.3,0c3.4-0.1,6.6-0.6,9.6-1.6c1.5-0.5,3-1.2,4.3-2
		c0.2,0.3,0.5,0.5,0.8,0.7c0.5,0.3,1,0.6,1.6,0.9c1.8,1,3.7,1.8,5.7,2.4c1.9,0.6,3.9,1.1,5.9,1.3c1.1,0.1,2.1,0.2,3.1,0.2h0
		c4.2,0,7.8-1.1,10.8-3.2c3.7-2.7,5.9-6.7,6.5-11.9c0.3-2.7-0.1-5.2-1.1-7.5C206.6,43.3,205.2,41.4,203.5,39.8z"/>
	<g>
		<path class="st2" d="M146.6,30.2c-1.1-6-3.9-10.1-8.2-12.4c-4.3-2.2-10-2.7-17-1.4l-11.7,2.2c-2,0.4-2.8,1.5-2.4,3.5l8.1,43.6
			c0.4,2,1.5,2.8,3.5,2.4l4.8-0.9c2-0.4,2.8-1.5,2.4-3.5l-2-10.9l3.9-0.7c0.9-0.2,1.7-0.3,2.5-0.5c0.8-0.2,1.6-0.4,2.4-0.7
			l10.2,11.9c0.8,0.9,1.4,1.6,1.9,2c0.2,0.2,0.4,0.3,0.6,0.4l1.1-13.7l-4.6-5.6C146.4,42.1,147.8,36.8,146.6,30.2z M134.2,37.6
			c-1.5,1.5-4.2,2.6-8,3.3l-4.2,0.8l-2.5-13.5l4.2-0.8c3.8-0.7,6.7-0.6,8.6,0.2c1.9,0.9,3.1,2.4,3.5,4.5
			C136.3,34.3,135.7,36.1,134.2,37.6z"/>
		<path class="st2" d="M154.3,72.7l-3.8-0.3c-1.5-0.1-2.3-1-2.1-2.5l2.8-35.4c0.1-1.5,1-2.3,2.5-2.1l9.2,0.7c3.3,0.3,6.2,1,8.7,2.1
			c2.5,1.2,4.4,2.9,5.8,5.2c1.3,2.3,1.8,5.2,1.6,8.9c-0.3,3.3-1.3,5.9-3,7.9c-1.8,2-4,3.4-6.7,4.3c-2.7,0.9-5.6,1.4-8.8,1.4l-3,0.1
			l-0.6,7.6C156.6,72.1,155.8,72.8,154.3,72.7z M162.3,41.8l-3.3-0.3l-1,12.7l3.2,0c1.5,0,3-0.2,4.3-0.6s2.5-1,3.4-1.8
			c0.9-0.8,1.4-1.9,1.5-3.2c0.1-1.6-0.2-2.9-0.9-3.8c-0.7-1-1.7-1.7-3-2.1C165.2,42.2,163.9,41.9,162.3,41.8z"/>
		<path class="st2" d="M189.1,26.5c1-0.3,2.1-0.4,3.4-0.3c1.2,0.1,2.5,0.5,3.9,1.1c1.4,0.6,2.7,1.3,3.9,2c0.8,0.4,1.4,0.6,1.9,0.5
			c0.4-0.1,0.9-0.5,1.3-1.1l2.4-4c0.5-0.7,0.6-1.4,0.5-1.9c-0.1-0.5-0.5-1-1.3-1.6c-0.9-0.8-2.1-1.5-3.4-2.2
			c-1.3-0.6-2.7-1.2-4.1-1.6c-1.4-0.4-2.8-0.7-4.1-0.9c-4.6-0.5-8.4,0.3-11.2,2.5c-2.9,2.2-4.5,5.2-5,9.2c-0.3,2.3,0,4.3,0.8,6
			c0.8,1.8,1.9,3.4,3.4,4.8c1.4,1.4,3,2.7,4.6,3.8c1.6,1.1,3.2,2.2,4.7,3.2c1.5,1,2.7,2,3.5,3.1c0.9,1,1.3,2.1,1.1,3.3
			c-0.2,1.3-0.7,2.1-1.7,2.4c-1,0.3-2.2,0.4-3.7,0.3c-1.6-0.2-3.4-0.7-5.5-1.5c-1.1-0.4-2.1-0.9-3.1-1.5c-0.6,2.8-1.7,5.2-3.4,7.1
			c-0.4,0.5-0.9,0.9-1.4,1.4c0.5,0.3,0.9,0.6,1.4,0.8c1.7,0.9,3.4,1.6,5.2,2.2c1.8,0.6,3.6,1,5.3,1.2c4.9,0.5,8.8-0.3,11.8-2.5
			c3-2.2,4.8-5.4,5.3-9.8c0.2-2.2,0-4.1-0.9-5.8s-1.9-3.3-3.4-4.7c-1.4-1.4-3-2.7-4.6-3.8c-1.6-1.1-3.2-2.2-4.6-3.3
			c-1.5-1-2.7-2-3.5-3.1c-0.9-1-1.3-2-1.2-3.1S188.2,26.9,189.1,26.5z"/>
	</g>
</g>
<g>
	<g>
		<path class="st1" d="M4.6,35.2c2.3-6.1,9-4.7,15.1-5.6c5.8-0.9,8.2-5.2,7.4-10.8c-0.6-4.4-3-9.5-0.8-13.8
			c1.9-3.8,6.2-5.1,10.2-4.9c5.5,0.3,8.2,4.9,12.2,7.9c8.1,6,18.9,8.7,28.3,4.4c3.8-1.7,9.1-3.1,13.1-1.1
			c5.8,2.8,9.5,10.6,10.3,16.7c1,7.7-3.6,12.3-9.1,16.8c-3.9,3.2-8,7.8-8.5,13.2c-0.6,6.2,5.3,10.8,4.5,17.1c-1.1,9-14,12-21.3,9.1
			c-8.8-3.5-11.2-15-20.3-18.4c-4.2-1.6-8.9-2.4-13.4-2.4c-6.1,0-13.1,2.4-18.8-0.9C5.8,57.9,1.4,43.7,4.6,35.2z"/>
	</g>
	<g>
		<path class="st2" d="M65,23.1c0.4-0.3,0.8-0.8,1-1.3c0.5-1.3,0.2-3-0.9-4.4c-1.2-1.5-3.4-3-6.3-2.6c-1,0.1-2,0.2-3.1,0.4
			c-1.5,0.1-3.2,0.3-5.6,0.6l-0.2-0.5c2.5-1.6,5.6-3.7,7.9-4.8c0.4-0.2,0.7-0.4,1-0.6c0.8-0.6,1.3-1.4,1.4-2.4
			C60.3,6,59.5,4.6,58,3.6c-2-1.4-4.7-1.5-7.1-0.2c-2.2,1.1-4.2,2.3-6,3.4c-1.7,1-3.2,2-5.1,3l-0.2,0.1l-0.1-0.2
			c-0.1-0.1-0.2-0.2-0.3-0.3C38,8,35.4,5.3,30.7,6.3c-1.7,0.3-3.5,1.3-5.3,2.7c-2.7,2.1-5,4.9-6.2,7.8l-0.1,0.2l-0.2,0
			c-0.9-0.1-1.7,0.1-2.5,0.7c-0.8,0.6-1.5,1.7-1.8,3c0,0.1,0,0.2,0,0.2L14.5,21L4,23.5c-0.7,0.2-1.3,0.4-1.9,0.9
			c-1.4,1.1-2.1,2.8-1.8,4.5c0.2,1.3,1,2.5,2,3.2c1.1,0.8,2.4,1.1,3.7,0.8L16.1,31l0.1,0.2c0.3,0.6,0.6,1,0.9,1.3
			c1.2,1.3,2.2,1.9,3.3,1.9c0.6,0,1.1-0.2,1.7-0.6c0,0,0.1-0.1,0.1-0.1l0.2-0.2l0.2,0.1c3.8,2.8,7.9,3.9,13.2,3.6
			c1.7-0.1,3.6-0.5,5.3-1.1c1.3-0.5,2.4-1.1,3.5-1.9c2.2-1.7,4-4.3,5.3-7.7l0.1-0.1l0.1,0c3.4-1,7.8-1.8,12.4-2.4
			C63.4,23.9,64.3,23.5,65,23.1z"/>
		<path d="M30,29.9c-0.4,0-0.8,0-1.1,0.1c-1.2,0-2.4,0.1-5.1-0.2c-0.3,0-0.5-0.3-0.5-0.6c0-0.3,0.3-0.5,0.6-0.5
			c2.6,0.3,3.8,0.3,4.9,0.2c0.4,0,0.7-0.1,1.2,0c0.3,0,0.5,0.2,0.6,0.6c0,0.2-0.1,0.4-0.2,0.5C30.2,29.8,30.1,29.9,30,29.9z
			 M31.4,25c0.2-0.1,0.2-0.3,0.2-0.6c-0.1-0.3-0.4-0.5-0.7-0.4c-0.7,0.2-1.3,0.3-1.9,0.4c-1.7,0.4-3.5,0.8-6.3,1.2
			c-0.3,0-0.5,0.3-0.5,0.6c0,0.3,0.3,0.5,0.6,0.5c2.9-0.3,4.7-0.8,6.5-1.2c0.6-0.1,1.2-0.3,1.9-0.4C31.3,25.1,31.4,25,31.4,25z
			 M27.3,21.1c0.2-0.1,0.3-0.4,0.2-0.7c-0.1-0.3-0.4-0.5-0.7-0.3c-0.4,0.2-0.7,0.3-1.1,0.4c-1.1,0.5-2.3,0.9-4.3,1.5
			c-0.3,0.1-0.5,0.4-0.4,0.7s0.4,0.5,0.7,0.4c2.1-0.5,3.3-1,4.4-1.5c0.3-0.1,0.7-0.3,1.1-0.4C27.2,21.2,27.3,21.2,27.3,21.1z"/>
		<path d="M2.2,32.3c1.1,0.8,2.6,1.1,3.9,0.8l9.9-1.9c0.3,0.6,0.6,1,0.9,1.4c1.3,1.4,2.3,2,3.4,2c0.6,0,1.3-0.2,1.9-0.6
			c0,0,0.1-0.1,0.2-0.1c3.8,2.8,8.1,4,13.4,3.6c1.7-0.1,3.6-0.5,5.4-1.1c4.1-1.4,7-4.7,9-9.7c3.4-1,7.8-1.8,12.3-2.4
			c1.2-0.2,2-0.5,2.7-1c0.6-0.4,0.9-1,1.1-1.4c0.6-1.4,0.2-3.2-1-4.7c-1.2-1.6-3.6-3.1-6.6-2.7c-1,0.1-2,0.2-3,0.3
			c-1.5,0.1-3.2,0.3-5.6,0.6c2.6-1.7,5.6-3.7,7.9-4.7c1.5-0.7,2.4-1.8,2.5-3.2c0.1-1.5-0.8-3-2.3-4.1C56,2,53.3,1.9,50.7,3.2
			c-2.3,1.1-4.2,2.3-6,3.4c-1.7,1-3.2,2-5,2.9c-0.1-0.1-0.2-0.2-0.3-0.3c-1.3-1.4-3.9-4.2-8.8-3.2l0,0c-4.3,0.9-9.5,5.5-11.7,10.7
			c-2.1-0.4-3.9,1.1-4.6,3.8c0,0.1,0,0.2,0,0.2L4,23.2c-2.6,0.6-4.3,3.1-3.9,5.8C0.3,30.3,1.1,31.5,2.2,32.3z M19.2,21.2
			c0.3-6,6.8-12.7,11.7-13.8c4.1-0.9,6.2,1.4,7.4,2.7c-4.3,2-6.8,1-9.6,0.7c0.4,0.1,0.8,0.3,1.2,0.4c1.3,0.4,2.5,1,3.8,1.1
			c1.9,0.2,3.8-0.5,5.5-1.2c2.1-0.9,4.1-2.2,6-3.4c1.8-1.1,3.7-2.3,5.9-3.4c2.1-1,4.3-1,6,0.2C58.4,5.2,59,6.3,59,7.3
			c-0.1,0.8-0.6,1.6-1.7,2c-1.2,0.6-2.4,1.2-3.6,2c-2.6,1.7-5.4,3.4-8.1,5.1c-1.5,1-2.9,2-4.1,3.3c-0.1,0.2-0.3,0.3-0.5,0.5
			c-0.1,0.1-0.2,0.3-0.4,0.4c1.2-0.7,2.5-1.5,3.7-2.2c0.7-0.4,1.4-0.8,2.2-1.1c0.8-0.3,1.7-0.4,2.5-0.6c0.9-0.1,1.8-0.2,2.7-0.4
			c1.3-0.2,2.7-0.3,4-0.4c1.1-0.1,2.1-0.2,3.1-0.3c2.4-0.3,4.3,0.9,5.3,2.2c0.9,1.1,1.1,2.4,0.8,3.3c-0.2,0.9-1.2,1.5-2.5,1.6
			c-4.8,0.6-9.4,1.5-12.9,2.5l0,0c-2.5,0.7-5.4,2.2-7,3.6c2.2-0.7,4-1.2,6-1.9c-1.7,4-4.3,6.7-7.7,7.9c-1.6,0.6-3.5,1-5.1,1.1
			c-5.2,0.4-9.3-0.8-13-3.7C20.6,30.8,19,24.4,19.2,21.2z M15.6,20.9c0.4-1.5,1.4-3,2.8-2.9c-0.3,1-0.5,2.1-0.6,3.1
			C17.7,24,19,30.4,21.3,33c-0.3,0.2-0.6,0.3-0.9,0.4c-0.6,0-1.5-0.5-2.4-1.6C16.1,29.7,14.9,23.3,15.6,20.9z M1.5,28.7
			c-0.3-2,0.9-3.7,2.8-4.2l9.8-2.3c-0.1,2.3,0.4,5.4,1.4,7.9l-9.6,1.7c-1,0.2-2,0-2.9-0.7C2.1,30.6,1.6,29.7,1.5,28.7z"/>
	</g>
	<g>
		<path class="st2" d="M53.4,83.2c2.1,1.1,3.9,1.6,5.5,1.3c1.2-0.2,2.3-0.8,3-1.8l0.2-0.2l0.2,0.1c2.8,1.2,5.3-0.5,6.5-2.2
			c1.2-1.7,1.5-3.5,0.9-5l-0.1-0.3l0.4-0.1c2.9-0.4,4.2-2.4,4.5-4.1c0.3-1.9-0.5-4.4-3.1-5.7c-0.2-0.1-0.4-0.2-0.6-0.3L70.6,65
			l0.1-0.5c0.5-1.8,1.5-5.4-1.9-8.9c-0.7-0.8-1.8-1.5-3-2.1c-3.5-1.9-8.2-2.7-12-2.1l-0.2,0l-0.1-0.2c-0.3-0.7-0.8-1.2-1.4-1.6
			c-1-0.5-2.4-0.6-3.9-0.2c-0.2,0.1-0.5,0.1-0.7,0.3l-0.2,0.1l-6.9-7c-0.3-0.4-0.7-0.7-1.2-0.9c-1.7-0.9-3.8-0.7-5.3,0.6
			c-1,0.9-1.7,2.1-1.8,3.3c-0.1,1.3,0.3,2.6,1.2,3.6l6.6,7.5l-0.1,0.1c-0.2,0.3-0.3,0.7-0.4,1c-0.5,1.7-0.4,2.9,0.1,3.7
			c0.2,0.4,0.6,0.7,1,0.9c0.2,0.1,0.3,0.2,0.6,0.3l0.2,0.1l0,0.3c-0.4,4.7,0.9,8.8,4,13.1c1,1.4,2.4,2.8,3.8,3.9
			C50.6,81.4,52.1,82.5,53.4,83.2z"/>
		<path d="M48.5,67.5c-0.2-0.3-0.4-0.6-0.7-0.9c-0.7-1-1.4-2-2.5-4.5c-0.1-0.3,0-0.6,0.3-0.8c0.3-0.1,0.6,0,0.8,0.3
			c1.1,2.5,1.8,3.4,2.4,4.3c0.2,0.3,0.4,0.6,0.6,1c0.2,0.3,0.1,0.6-0.2,0.8c-0.1,0.1-0.3,0.1-0.5,0C48.6,67.6,48.5,67.6,48.5,67.5z
			 M53.3,66.1c0.2,0.1,0.5,0.1,0.6-0.1c0.2-0.2,0.2-0.6,0-0.8c-0.5-0.5-1-1-1.4-1.4c-1.3-1.2-2.6-2.5-4.4-4.8
			c-0.2-0.2-0.5-0.3-0.8-0.1c-0.2,0.2-0.3,0.5-0.1,0.8c1.8,2.3,3.1,3.6,4.4,4.9c0.5,0.4,0.9,0.9,1.4,1.4C53.2,66,53.2,66,53.3,66.1z
			 M54.4,60.5c0.2,0.1,0.5,0.1,0.7-0.1c0.2-0.2,0.1-0.6-0.1-0.8c-0.3-0.2-0.6-0.5-0.9-0.7c-1-0.7-2-1.5-3.5-2.9
			c-0.2-0.2-0.6-0.2-0.8,0c-0.2,0.2-0.2,0.6,0,0.8c1.5,1.5,2.6,2.3,3.6,3C53.8,60.1,54.1,60.4,54.4,60.5
			C54.4,60.5,54.4,60.5,54.4,60.5z"/>
		<path d="M31.9,45.6c-0.1,1.4,0.3,2.7,1.2,3.8l6.4,7.4c-0.2,0.3-0.3,0.7-0.4,1c-0.5,1.8-0.5,3.1,0.1,4c0.3,0.4,0.6,0.8,1.1,1
			c0.2,0.1,0.4,0.2,0.6,0.3c-0.4,4.8,0.9,9,4.1,13.3c1,1.4,2.4,2.8,3.8,4c1.3,1.1,2.8,2.2,4.4,3.1c1.9,1,3.9,1.6,5.7,1.4
			c1.3-0.2,2.4-0.9,3.2-1.9c2.8,1.2,5.4-0.2,6.9-2.2c1.3-1.8,1.6-3.8,0.9-5.3c3-0.4,4.5-2.5,4.8-4.3c0.4-2.2-0.7-5-3.9-6.3
			c0.1-0.1,0-0.2,0.1-0.3c0.5-1.8,1.5-5.5-1.9-9.1l0,0c-3.1-3.2-9.7-5.1-15.3-4.3c-0.7-2-2.9-2.7-5.7-2c-0.2,0.1-0.5,0.2-0.8,0.3
			l-6.7-6.9c-1.8-1.9-4.8-2.1-6.9-0.4C32.7,43,32,44.2,31.9,45.6z M50.2,53.7c5.3-2.9,14.4-0.9,17.9,2.7c2.9,3,2.1,6,1.6,7.8
			c-4-2.6-4.5-5.2-5.7-7.8c0.1,0.3,0.2,0.6,0.2,0.9c0,0.3,0.1,0.6,0.2,0.9c0.2,1.3,0.5,2.5,1.1,3.7c0.9,1.6,2.3,2.8,3.8,3.8
			c0.5,0.3,1,0.5,1.5,0.7c0.3,0.2,0.7,0.4,1,0.7c1.2,0.9,1.8,2.4,1.5,3.9c-0.2,1.4-1.3,2.9-3.7,3.2c-0.7,0-1.3-0.2-1.9-0.4
			c-0.7-0.3-1.3-0.6-2-0.9c-0.6-0.2-1.1-0.5-1.6-0.8c-0.3-0.2-0.6-0.3-0.9-0.5c-0.1-0.1-0.3-0.2-0.5-0.3c-0.1-0.1-0.4-0.2-0.5-0.3
			c0.1,0.1,0.2,0.2,0.3,0.3c0.6,0.6,1.2,1.2,1.8,1.7c0.5,0.4,1.1,0.8,1.6,1.1c0.4,0.2,0.8,0.5,1.2,0.7c0.3,0.2,0.7,0.3,1,0.5
			c0.2,0.2,0.4,0.3,0.5,0.6c0.7,1.2,0.3,2.9-0.6,4.1c0,0-0.1,0.1-0.2,0.2c-0.7,0.9-1.7,1.6-2.8,1.9c-0.6,0.1-1.3,0.1-1.8-0.1
			c-0.7-0.2-1.3-0.6-1.9-1c-0.6-0.4-1.3-0.7-1.9-1.1c-1.1-0.7-2.3-1.3-3.4-2c1,1.6,3,3.2,5,4.4c-0.6,0.7-1.3,1.1-2.2,1.3
			c-2.2,0.3-5.5-1.1-9.1-4.1c-1.3-1.1-2.6-2.5-3.6-3.7c-3.1-4.2-4.3-8.3-3.7-13C42.7,59.9,47.4,55.3,50.2,53.7z M48.5,50.5
			c1.5-0.4,3.2-0.4,3.9,0.9c-1,0.3-2.1,0.6-3,1.1c-2.5,1.4-7.3,5.9-8.2,9.2c-0.4-0.1-0.6-0.3-0.8-0.6c-0.3-0.6-0.3-1.5,0.1-2.9
			C41.3,55.5,46.1,51.2,48.5,50.5z M34.6,43.2c1.5-1.2,3.7-1.1,5.1,0.3l6.4,6.7c-2,1.2-4.3,3.4-5.8,5.4l-6.2-7.1
			c-0.7-0.7-1-1.7-0.9-2.8C33.3,44.7,33.9,43.8,34.6,43.2z"/>
	</g>
	<g>
		<path class="st2" d="M107.8,56c1.5-0.7,1.8-1.8,1.7-2.6c-0.1-1.8-1.7-3.8-3.5-4.3c-1-0.3-4.7-1.8-6.7-2.9l-0.9-0.5l1-0.1
			c3.3-0.2,7.3-0.2,11.3,0c1,0.1,1.8-0.1,2.5-0.4c0.6-0.3,1.1-0.7,1.4-1.2c0.8-1.2,0.7-2.9-0.1-4.5c-0.9-1.7-2.8-3.6-5.7-3.7
			c-1,0-2-0.2-3.1-0.2c-1.5-0.1-3.2-0.3-5.6-0.4l-0.1-0.5c2.8-1.1,6.2-2.5,8.7-3.2c0.3-0.1,0.6-0.2,0.8-0.3c1-0.5,1.7-1.2,2-2.2
			c0.4-1.3-0.2-3-1.4-4.2c-1.7-1.7-4.3-2.3-7-1.6c-1,0.3-2.2,0.7-3.5,1.1c-4.2,1.4-10.1,3.3-16,3.7l-0.5,0.1l0.3-0.4
			c1.5-2.3,3.3-5.6,2.4-8.8c-0.6-2-2.2-3.6-5-4.7l0,0c-0.7-0.3-1.2-0.3-1.8,0c-0.1,0-0.2,0.1-0.3,0.1c-1.6,0.9-2.7,4-3.2,9.1
			c-0.1,0.7-1,1.8-2.6,3.5c-1,1.1-2.2,2.4-3.2,3.8l-0.1,0.2l-0.2-0.1c-0.7-0.3-1.5-0.4-2.2-0.1c-0.1,0-0.2,0.1-0.3,0.1
			c-1,0.4-1.8,1.4-2.5,2.7c-0.1,0.2-0.2,0.5-0.3,0.9L64,34.5l-9.9,0.7c-0.6,0.1-1.1,0.2-1.7,0.4c-1.7,0.8-2.8,2.4-2.9,4.4
			c0,1.3,0.5,2.6,1.4,3.5c1,0.9,2.2,1.4,3.5,1.4l9.5-0.3l0.1,0.2c0.1,0.3,0.3,0.6,0.4,0.8c0.9,1.5,1.8,2.3,2.8,2.5
			c0.6,0.1,1.1,0,1.6-0.2c0.1,0,0.2-0.1,0.3-0.1l0.2-0.1l0.1,0.2c3.2,3.5,7.1,5.3,12.3,6c1.7,0.2,3.7,0.1,5.5-0.1
			c3.1-0.4,9.4,0.7,13.9,1.7c3.9,0.8,5.5,1.1,6.1,0.9C107.5,56.1,107.7,56,107.8,56z"/>
		<path d="M50.8,43.7c1,1,2.3,1.5,3.8,1.5l9.4-0.2c0.1,0.3,0.3,0.6,0.4,0.9c0.9,1.6,1.9,2.4,3,2.6c0.6,0.1,1.2,0,1.8-0.2
			c0.1,0,0.3-0.1,0.4-0.2c3.2,3.5,7.2,5.4,12.5,6c1.7,0.2,3.7,0.2,5.5-0.1c3.1-0.4,9.3,0.8,13.8,1.6c4.1,0.8,5.5,1,6.2,0.8
			c0.2-0.1,0.3-0.1,0.4-0.2c1.7-0.8,1.9-2.1,1.9-2.8c0-1.9-1.8-4-3.7-4.6c-1-0.2-4.7-1.9-6.7-2.9c3.3-0.2,7.2-0.2,11.3,0.1
			c2.4,0.1,3.6-0.8,4.1-1.7c0.9-1.3,0.8-3.1-0.1-4.8c-0.9-1.8-2.9-3.8-6-3.9c-1,0-2-0.2-3.1-0.2c-1.5-0.1-3.2-0.3-5.6-0.4
			c2.9-1.2,6.2-2.5,8.7-3.2c1.6-0.4,2.7-1.3,3.1-2.7c0.4-1.5-0.2-3.1-1.5-4.5c-1.8-1.8-4.5-2.4-7.2-1.7c-1,0.3-2.2,0.7-3.5,1.1
			c-4.3,1.4-10.1,3.2-16,3.6c1.8-2.7,3.4-6,2.5-9c-0.6-2.1-2.3-3.7-5.1-4.9l0,0c-0.8-0.3-1.6-0.3-2.3,0.1c-1.7,0.9-2.8,4.1-3.4,9.3
			c-0.1,0.7-1.3,2-2.5,3.3c-1.1,1.2-2.2,2.4-3.3,3.8c-0.8-0.3-1.6-0.4-2.4-0.1c-1.2,0.4-2.3,1.4-3,3c-0.1,0.2-0.3,0.6-0.4,1L54,34.9
			c-2.7,0.2-4.7,2.4-4.7,5C49.3,41.4,49.8,42.8,50.8,43.7z M68.8,34.9c0.7-2.6,3.1-5.2,5-7.3c1.6-1.7,2.8-3,2.9-4.1
			c0.5-4.6,1.4-7.6,2.6-8.3c0.3-0.2,0.7-0.2,1.1-0.1l0,0c2.4,1,3.8,2.3,4.3,4c0.9,2.9-1.2,6.3-3.1,9c-0.2,0.2-0.1,0.5-0.1,0.7
			c0.1,0.3,0.4,0.4,0.6,0.3c6.5-0.2,13-2.3,17.7-3.8c1.4-0.4,2.5-0.8,3.5-1.1c2.2-0.6,4.4-0.1,5.9,1.3c1,0.9,1.4,2.2,1.2,3.1
			c-0.2,0.8-0.9,1.4-2.1,1.7c-0.6,0.2-1.2,0.4-1.8,0.5c-0.7,0.2-1.4,0.5-2.1,0.7c-2.2,0.8-4.4,1.7-6.6,2.6s-4.4,1.7-6.4,3.1
			c-0.5,0.3-1,0.9-1.5,1c1.3-0.5,2.6-0.9,3.9-1.4c1.2-0.4,2.5-0.8,3.9-0.8c1.1,0,2.1,0.1,3.2,0.2c1.5,0.1,3.1,0.2,4.6,0.3
			c1.1,0.1,2.1,0.2,3.1,0.3c2.4,0.1,4,1.7,4.7,3.1c0.6,1.3,0.7,2.6,0.1,3.4c-0.5,0.8-1.5,1.1-2.9,1c-1.1,0-2.2-0.1-3.4-0.2
			c-0.6,0-1.3-0.1-1.9-0.1c-4.6-0.1-9.3,0-13.6,1.7c-0.4,0.2-0.7,0.3-1,0.5c-0.2,0.1-0.6,0.4-0.8,0.4c0.9-0.1,1.9-0.2,2.8-0.3
			c1.1-0.1,2.1-0.4,3.1-0.4c1.1,0,1.8,0.5,2.7,1c0.7,0.4,1.4,0.7,2.2,1c1.9,0.8,4.1,1.8,4.8,1.9c1.3,0.4,2.7,2,2.7,3.2
			c0,0.8-0.5,1.3-1.4,1.7c-0.5,0.1-3.2-0.4-5.5-0.9c-4.9-1-10.9-2.1-14.3-1.6c-1.7,0.2-3.6,0.3-5.2,0.1c-5.2-0.6-9-2.5-12-6
			C68.3,44.5,68,37.9,68.8,34.9z M65.3,33.9c0.6-1.2,1.4-2,2.2-2.2c0.4-0.1,0.8-0.1,1.2,0c-0.6,0.9-1.1,1.9-1.3,2.9
			c-0.8,3.1-0.6,9.4,1.2,12.3c-0.4,0.2-0.6,0.2-1,0.1c-0.7-0.1-1.4-0.8-2.1-2C64.1,42.7,64.2,36.2,65.3,33.9z M50.7,40
			c0-2,1.5-3.5,3.5-3.7l9.2-0.7c-0.4,2.4-0.4,5.6,0.2,7.9l-9,0.3c-1,0-2-0.3-2.7-1.1C51,42,50.7,41.1,50.7,40z"/>
		<path d="M77.8,45.5c-0.4-0.1-0.7-0.1-1.1-0.2c-1.2-0.1-2.4-0.3-5-1.1c-0.3-0.1-0.4-0.4-0.4-0.7c0.1-0.3,0.4-0.4,0.7-0.4
			c2.5,0.8,3.6,1,4.8,1.1c0.4,0,0.7,0.1,1.1,0.2c0.3,0,0.5,0.3,0.5,0.7c0,0.2-0.2,0.3-0.3,0.4C78,45.5,77.9,45.5,77.8,45.5z
			 M80,40.9c0.2-0.1,0.4-0.3,0.3-0.5c0-0.3-0.3-0.6-0.6-0.6c-0.7,0-1.3,0-2,0.1c-1.8,0.1-3.6,0.2-6.5-0.1c-0.3,0-0.6,0.2-0.6,0.5
			c0,0.3,0.2,0.6,0.5,0.6c2.9,0.2,4.8,0.1,6.6,0c0.6,0,1.3-0.1,1.9-0.1C79.9,41,80,41,80,40.9z M76.8,36.4c0.2-0.1,0.3-0.3,0.4-0.6
			c-0.1-0.3-0.4-0.5-0.6-0.5c-0.4,0.1-0.8,0.2-1.2,0.2c-1.2,0.3-2.4,0.5-4.4,0.6c-0.3,0-0.5,0.3-0.5,0.6c0,0.3,0.3,0.5,0.6,0.5
			c2.1-0.1,3.3-0.4,4.6-0.6c0.4-0.1,0.7-0.1,1.1-0.2C76.6,36.4,76.7,36.4,76.8,36.4z"/>
	</g>
</g>
</svg>
