<?xml version="1.0" encoding="utf-8"?>
<!-- Generator: Adobe Illustrator 23.0.0, SVG Export Plug-In . SVG Version: 6.00 Build 0)  -->
<svg version="1.1" id="Layer_1" xmlns="http://www.w3.org/2000/svg" xmlns:xlink="http://www.w3.org/1999/xlink" x="0px" y="0px"
	 viewBox="0 0 117.2 161.1" style="enable-background:new 0 0 117.2 161.1;" xml:space="preserve">
<style type="text/css">
	.st0{fill:#FFD166;}
	.st1{fill:#FFFFFF;}
</style>
<g>
	<path class="st0" d="M26.5,141.5c-9.2-7-17.2-15.4-22.8-24.5c-1.7-2.8-3.2-5.8-3.6-9.1C-1,99,8.4,92.6,14.1,87.4
		c11-10.1,21.3-17.8,20.3-34.2c-0.6-10.2-2-19.4,2-29.1c3.6-8.6,10-16.2,18.3-20.6c14.6-7.8,31.8-1.9,42.2,10
		c7,8.1,11.7,18.7,12.8,29.3c1.5,15.2-8.1,27.6-9.2,42.2c-1,13,5.2,25.3,8.1,38c1.4,5.8,1.6,12.3,0.6,18.2c-0.9,5-3,9.9-6.7,13.3
		c-9,8.3-25,7.1-36.1,5C51.9,156.9,38.2,150.3,26.5,141.5z"/>
</g>
<path d="M51.6,160.8c-3.7,0-7.3-0.8-10.9-2.3c-5.4-2.4-9.2-6.2-11.4-11.3c-1.5-4-1.7-7.7-0.6-11.3c1.5-5.6,4.9-9.9,10.2-12.8
	c3.4-1.8,7.1-2.8,11-2.8c1.9,0,3.9,0.2,5.9,0.7c5.4,1.1,9.6,4.2,12.5,9c2.8,4.7,3.6,10.1,2.6,16.1c-0.3,2.3-0.8,4.1-1.3,5.6
	c-0.7,1.7-1.6,3.1-2.8,4.2c-1.1,1-2.5,1.9-4.1,2.6c-1.5,0.7-3.3,1.2-5.6,1.8C55.2,160.6,53.4,160.8,51.6,160.8z M65.1,116.6
	c-0.6,0-1.2,0-1.8-0.1c-0.9-0.1-1.9-0.2-3-0.3c-1.1-0.1-2.2-0.2-3.4-0.4c-1.3,0-2.7-0.2-4.2-0.4c-1.9-0.3-3.8-0.5-5.6-0.7
	c-1.9-0.2-3.9-0.5-6-1c-2.7-0.6-4.6-1.7-5.7-3.3c-1.1-1.6-1.4-3.7-1-6.5c0.7-4.7,2.1-9,4.2-12.9c2.2-4,5.5-7.4,9.9-9.9
	c2.9-1.8,5.9-3.4,8.9-4.7c3.1-1.4,6.5-2.4,10.1-3.1c2.4-0.4,4.1-1.3,5.2-2.7c1.4-1.7,2.5-3.8,3.3-6.2c1.2-3.7,0.4-6.7-2.5-9.5
	c-1-1-1.5-1.2-1.5-1.2c-2.1-0.8-4.5-1.4-7.1-1.6C63.8,52,62.9,52,61.9,52c-1.7,0-3.4,0.2-5.1,0.5c-2.5,0.5-4.9,1.3-7.1,2.5
	c-2,1.1-3.5,2.5-4.5,4.3c0,0.1-0.1,0.1-0.1,0.2c-0.4,0.6-0.8,1.3-1.2,2c-0.6,1.3-2.1,2.9-5.4,3.1c-1.1,0.1-2.1,0.2-3.1,0.2
	c-0.6,0-1.2,0-1.7-0.1c-1.9-0.2-3.8-1.1-5.7-2.7c0,0-0.1-0.1-0.1-0.1c-2.2-2.1-4.4-4.1-6.7-6c-2.4-1.9-4.7-3.8-7.2-5.7
	c-2.4-1.8-3.4-3.8-2.9-5.8c0.3-1.1,0.9-2.3,1.8-3.7c6-8.5,13.1-15.2,21.2-19.8c8.2-4.7,17.7-7.2,28.3-7.6c0.8,0,1.7,0,2.5,0
	c5,0,9.8,0.5,14.4,1.6c5.3,1.2,10.7,3,16,5.4c6.1,2.7,10.9,6.7,14.3,11.8c3.2,4.9,5.5,10.6,6.7,16.8c1.4,6.9,1.3,13.5-0.4,19.6
	c-1.7,6-4.4,11.7-8,17.2c-1.3,2-3.1,3.8-5.2,5.2c-1.9,1.2-3.7,2.3-5.5,3.2c-1.8,1-3.7,1.8-5.7,2.4c-1.7,0.6-3.3,1.2-4.9,1.9
	c0,0-0.1,0-0.1,0.1c-3.2,1.2-5.9,2.8-8.3,4.8c-2.2,1.9-3.8,4.2-4.8,7.3c-1,2.8-2.5,4.5-4.4,5.3C67.7,116.4,66.4,116.6,65.1,116.6z"
	/>
<path class="st1" d="M53.2,112.5c-2-0.3-3.8-0.5-5.7-0.7c-1.8-0.2-3.7-0.5-5.6-0.9c-1.9-0.4-3.2-1.1-3.9-2.1
	c-0.6-0.9-0.8-2.4-0.6-4.4c0.6-4.3,1.9-8.3,3.8-11.9c1.9-3.6,4.9-6.5,8.7-8.8c2.8-1.7,5.7-3.2,8.6-4.5c2.9-1.3,6-2.3,9.4-2.9
	c3.1-0.6,5.4-1.8,7-3.8c1.6-2,2.8-4.3,3.8-7c1.6-4.9,0.5-9.1-3.3-12.7c-1-1-1.8-1.6-2.5-1.9C70.6,50,68,49.4,65,49.1
	c-3-0.3-5.9-0.2-8.7,0.4c-2.9,0.5-5.5,1.5-8,2.8c-2.5,1.4-4.4,3.2-5.7,5.4c-0.5,0.8-1,1.6-1.4,2.5c-0.4,0.9-1.4,1.3-3,1.4
	c-1.6,0.2-3,0.2-4.3,0.1c-1.3-0.1-2.6-0.8-4-2c-2.3-2.2-4.6-4.2-6.9-6.1c-2.4-1.9-4.8-3.8-7.2-5.7c-1.4-1.1-2-2-1.9-2.7
	c0.2-0.8,0.6-1.7,1.3-2.7C21,34.3,27.8,28,35.6,23.5c7.8-4.4,16.7-6.9,26.9-7.3c5.6-0.2,11,0.3,16.2,1.5c5.2,1.2,10.3,2.9,15.4,5.2
	c5.6,2.5,10,6.1,13,10.7c3,4.6,5.1,9.9,6.3,15.8c1.4,6.5,1.2,12.5-0.4,18.2c-1.6,5.7-4.1,11.1-7.6,16.3c-1.1,1.7-2.6,3.1-4.4,4.3
	c-1.8,1.2-3.6,2.2-5.3,3.1c-1.7,0.9-3.4,1.6-5.2,2.2c-1.8,0.6-3.5,1.3-5.2,2c-3.5,1.4-6.5,3.1-9.1,5.3c-2.6,2.2-4.5,5.1-5.7,8.6
	c-0.7,1.9-1.6,3.1-2.8,3.6c-1.1,0.5-2.5,0.6-4,0.4c-1-0.1-2-0.3-3.2-0.3c-1.1-0.1-2.3-0.2-3.4-0.4C55.9,112.8,54.5,112.7,53.2,112.5
	z M68,145.6c-0.3,2.1-0.7,3.8-1.2,5c-0.5,1.2-1.2,2.3-2.1,3.1c-0.9,0.8-2,1.5-3.3,2.1c-1.3,0.6-3,1.1-5.1,1.6
	c-4.9,1-9.7,0.5-14.4-1.6c-4.7-2.1-8-5.3-9.8-9.7c-1.2-3.3-1.4-6.4-0.5-9.3c1.3-4.9,4.2-8.6,8.7-11c4.5-2.4,9.4-3,14.8-1.8
	c4.6,1,8.2,3.5,10.6,7.6C68.1,135.6,68.9,140.3,68,145.6z"/>
</svg>
