<?xml version="1.0" encoding="utf-8"?>
<!-- Generator: Adobe Illustrator 23.0.0, SVG Export Plug-In . SVG Version: 6.00 Build 0)  -->
<svg version="1.1" baseProfile="tiny"
	 id="svg32847" xmlns:cc="http://creativecommons.org/ns#" xmlns:dc="http://purl.org/dc/elements/1.1/" xmlns:inkscape="http://www.inkscape.org/namespaces/inkscape" xmlns:rdf="http://www.w3.org/1999/02/22-rdf-syntax-ns#" xmlns:sodipodi="http://sodipodi.sourceforge.net/DTD/sodipodi-0.dtd"
	 xmlns="http://www.w3.org/2000/svg" xmlns:xlink="http://www.w3.org/1999/xlink" x="0px" y="0px" viewBox="0 0 89.5 57.9"
	 xml:space="preserve">
<g display="none">
	<g display="inline">
		<path fill="#FFFFFF" d="M268.9,33c-1,0-2-0.2-2.8-0.7c-2.2-1.3-3.5-4-3.5-7.2c0-3.4,1.6-7.9,6-10.5c1.6-0.9,3-1.8,4.7-2.8
			c2.2-1.4,4.8-3,8.5-5.2l-0.3-0.9c-5.2,0.4-11.8,0.9-16.3,1.9c-0.7,0.2-1.4,0.2-2,0.2c-1.8,0-3.4-0.6-4.5-1.9
			c-1.7-1.9-2.1-4.8-1.1-7.8c1.4-4.1,5-7.1,9.7-8c4.3-0.9,8.3-1.3,12.1-1.7c3.5-0.4,6.7-0.7,10.3-1.3l0.4-0.1l0-0.4
			c0-0.2,0-0.5,0.1-0.7c0.3-3.2,0.9-9.8,8.6-13.5c2.7-1.3,6.3-2,10.3-2c6,0,12.3,1.5,17.2,4.2l0.3,0.2l0.3-0.3
			c1.1-1.2,2.5-1.8,4.1-1.8c1.8,0,3.9,0.8,5.8,2.2c0.1,0.1,0.2,0.2,0.3,0.3l0.2,0.2l17.3-7.8c1.1-0.5,2.3-0.8,3.6-0.8
			c3.1,0,6,1.7,7.5,4.4c1.1,2.1,1.4,4.4,0.7,6.7c-0.7,2.3-2.2,4.1-4.3,5.2l-16.2,8.2l0.1,0.4c0.2,1.1,0.3,2,0.2,2.8
			c-0.3,3.1-1,5.1-2.5,6.2c-0.8,0.6-1.8,1-3,1c-0.1,0-0.2,0-0.3,0l-0.5,0L340,2.1c-2.3,8-6.9,14.1-14.7,19.3
			c-2.5,1.6-5.7,3.2-8.7,4.2c-2.3,0.7-4.6,1.1-6.9,1.1c-5,0-10.3-1.7-15.7-5.1l-0.2-0.1l-0.2,0.1c-5.8,2.3-12.9,5.9-20,10
			C271.8,32.5,270.3,33,268.9,33z"/>
		<path d="M324.8,5c-0.3,0-0.6-0.1-0.8-0.4c-0.3-0.4-0.2-1.1,0.2-1.4c0.6-0.4,1.2-0.8,1.7-1.2c1.7-1.1,3.4-2.3,6.7-5.6
			c0.4-0.4,1-0.4,1.4,0c0.4,0.4,0.4,1,0,1.4c-3.5,3.5-5.3,4.7-7,5.8c-0.5,0.4-1.1,0.7-1.6,1.1C325.2,4.9,325,5,324.8,5z M318.5-0.6
			c1.1-0.5,2.2-1,3.2-1.5c2.9-1.3,5.9-2.7,10.4-5.3c0.5-0.3,0.6-0.9,0.3-1.4c-0.3-0.5-0.9-0.6-1.4-0.3c-4.4,2.6-7.3,3.9-10.2,5.2
			c-1,0.5-2.1,0.9-3.2,1.5c-0.5,0.2-0.7,0.8-0.5,1.3c0.2,0.4,0.5,0.6,0.9,0.6C318.2-0.5,318.4-0.6,318.5-0.6z M319.9-10.4
			c0.7-0.2,1.3-0.4,1.9-0.6c2.1-0.6,4.3-1.2,7.8-2.7c0.5-0.2,0.7-0.8,0.5-1.3c-0.2-0.5-0.8-0.7-1.3-0.5c-3.4,1.4-5.5,2-7.6,2.6
			c-0.6,0.2-1.3,0.4-2,0.6c-0.5,0.2-0.8,0.7-0.7,1.2c0.1,0.4,0.5,0.7,1,0.7C319.7-10.4,319.8-10.4,319.9-10.4z"/>
		<path d="M366.3-28.9c-2.3-4.2-7.3-5.8-11.7-3.9l-17.1,7.7c-0.1-0.1-0.2-0.2-0.3-0.3c-4.1-3-8.2-3.1-10.6-0.3
			c-8.7-4.8-21-5.6-28-2.3l0,0c-7.9,3.8-8.6,10.6-8.9,13.9c0,0.2,0,0.5-0.1,0.7c-3.5,0.6-6.8,1-10.2,1.3c-3.8,0.4-7.8,0.8-12.1,1.7
			c-4.9,1-8.7,4.1-10.1,8.4c-1,3.1-0.6,6.3,1.2,8.3c1.6,1.8,4.1,2.4,7,1.8c4.4-1,10.6-1.5,16.2-1.9c-3.8,2.1-6.4,3.8-8.6,5.2
			c-1.7,1-3.1,1.9-4.6,2.8c-4.6,2.6-6.3,7.4-6.3,10.9c0,3.4,1.4,6.3,3.7,7.6c0.8,0.4,1.8,0.8,3.1,0.8c1.3,0,2.9-0.4,4.8-1.5
			c7.1-4.1,14.1-7.7,19.9-10c8,5,15.8,6.4,23.1,4c3.1-1.1,6.3-2.6,8.8-4.3c7.9-5.2,12.7-11.4,14.9-19.6c0.1,0,0.3,0,0.4,0
			c1.3,0,2.4-0.4,3.3-1.1c1.5-1.2,2.4-3.3,2.6-6.5c0.1-0.9,0-1.9-0.2-3l15.9-8.1c2.2-1.1,3.8-3.1,4.6-5.4S367.5-26.8,366.3-28.9z
			 M338.4,0.5c-2,8-6.5,14.1-14.2,19.2c-2.4,1.5-5.4,3-8.3,4c-6,2-12.5,1-19.3-2.8c3.5-1.2,6.7-2.4,10.5-3.8
			c-3.8-0.3-9.4,0.7-13.7,2.4l0,0c-6,2.4-13.4,6.1-20.9,10.4c-2.1,1.2-4,1.5-5.4,0.7c-1.5-0.9-2.5-3-2.5-5.5c0-2.8,1.3-6.7,5-8.8
			c1.6-0.9,3.1-1.8,4.7-2.9c2-1.3,4-2.5,6.1-3.7c1.4-0.8,2.8-1.6,4.2-2.4c1.3-0.7,2.6-1.5,4.1-1.9c1.4-0.4,2.8-0.6,4.2-0.8
			c2.5-0.4,5.1-0.7,7.6-1c-0.3,0-0.7-0.1-1-0.1c-0.4-0.1-0.8-0.1-1.2-0.2c-3.1-0.5-6.2-0.4-9.4-0.2c-5.6,0.4-11.2,1-16.9,1.5
			c-2.4,0.3-4.8,0.7-7.2,1.1c-2,0.4-3.6,0.1-4.6-1c-1.2-1.3-1.5-3.6-0.7-5.9c1.1-3.4,4.2-5.9,8.2-6.7c4.3-0.8,8.1-1.2,11.9-1.6
			c4-0.4,8.1-0.8,12.1-1.7c3.3-0.8,6.6-2,9.1-4.3c1.8-1.6,2.9-3.7,4.2-5.7c0.4-0.6,0.8-1.4,1.3-1.9c-3.6,3.5-6,7.4-14.2,9.4
			c0.3-3.3,0.8-8.7,7.5-11.8c8.1-3.8,24.5-1.5,31.4,6.7C334.7-14.8,339.5-4.1,338.4,0.5z M344.4-5.6c-0.2,2.5-0.8,4.1-1.7,4.8
			c-0.4,0.3-1,0.5-1.7,0.5c0.5-6.2-4.7-16.6-8-20.4c-1.2-1.4-2.6-2.6-4.2-3.7c1.9-1.7,4.8-0.7,7,1C339.4-20.7,344.8-10.5,344.4-5.6z
			 M364.7-22.6c-0.5,1.7-1.7,3.2-3.3,4L346-10.8c-1.3-4.4-4-9.4-6.6-12.5l16.2-7.3c3.2-1.4,6.8-0.2,8.5,2.8
			C365.1-26.2,365.3-24.3,364.7-22.6z"/>
	</g>
	<g display="inline">
		<path fill="#FFFFFF" d="M295.6,156.5c-2.9,0-4.2-1.6-4.7-2.9c-1.2-2.9,0-7.3,2.6-9.5c1.4-1.2,6.3-6.4,8.8-9.6l1.1-1.4l-1.7,0.6
			c-5.5,2.1-11.9,5-18.3,8.3c-1.5,0.8-3,1.2-4.3,1.2c-1.1,0-2.2-0.3-3.1-0.9c-2.1-1.3-3.3-4.1-3.2-7.4c0.2-3.4,1.9-7.9,6.5-10.2
			c1.6-0.8,3.1-1.7,4.8-2.6c2.3-1.3,4.9-2.8,8.8-4.8l-0.2-0.9c-5.3,0.2-11.8,0.4-16.3,1.2c-0.6,0.1-1.1,0.1-1.6,0.1
			c-2,0-3.7-0.7-4.8-2.1c-1.6-1.9-1.9-4.9-0.8-7.8c1.5-4,5.3-6.9,10.1-7.6c1.9-0.3,4-0.5,6.5-0.8c7.9-0.9,18.7-2.2,28.6-5.8l0.9-0.3
			l-0.8-0.5c-4.1-2.6-9.5-6.7-10.3-12.4c-0.5-3.7,1-7.4,4.6-11.2l0,0c0.9-0.9,1.8-1.3,2.9-1.3c0.2,0,0.3,0,0.5,0
			c3.2,0.4,7.2,4.6,11.8,12.5c0.6,1,2.9,2.1,6.7,3.7c2.5,1.1,5.4,2.3,8,3.8l0.3,0.2l0.3-0.3c0.9-1,2.1-1.7,3.5-1.8
			c0.2,0,0.4,0,0.6,0c1.9,0,4,0.9,6,2.5c0.4,0.3,0.8,0.7,1.2,1.2l0.2,0.2l16.5-6c1-0.3,2-0.5,3-0.5c3.4,0,6.3,1.9,7.8,5
			c1,2.1,1.1,4.5,0.2,6.7c-0.9,2.2-2.5,3.9-4.7,4.8l-15.6,6.5l0,0.3c0,0.6,0,1.1-0.1,1.6c-0.4,3.1-1.3,5-2.7,6.1
			c-0.8,0.6-1.7,0.8-2.8,0.8c-0.2,0-0.4,0-0.6,0l-0.4,0l-0.1,0.4c-2.6,7.9-7.6,13.8-15.6,18.6c-2.6,1.5-5.8,2.9-8.9,3.8
			c-5.4,1.6-14.6,8-21.3,12.8c-5.8,4.1-8.1,5.7-9.2,5.8C296.1,156.5,295.9,156.5,295.6,156.5z"/>
		<path d="M378.6,88.2c-2-4.3-6.9-6.3-11.3-4.7l-16.2,5.9c-0.4-0.5-0.9-0.9-1.3-1.3c-2.3-1.9-4.8-2.8-7-2.6c-1.5,0.2-2.8,0.9-3.8,2
			c-2.7-1.5-5.5-2.8-8.1-3.8c-2.9-1.2-5.9-2.5-6.5-3.5c-4.7-8-8.8-12.3-12.1-12.7c-1.4-0.2-2.8,0.3-3.8,1.5l0,0
			c-3.7,3.9-5.3,7.8-4.7,11.6c0.8,5.5,5.7,9.6,10.6,12.7c-9.8,3.6-20.5,4.9-28.5,5.8c-2.5,0.3-4.6,0.5-6.5,0.8
			c-4.9,0.8-8.8,3.7-10.4,7.9c-1.2,3.1-0.9,6.3,0.8,8.3c1.5,1.9,4,2.6,6.9,2.1c4.4-0.8,10.7-1,16.3-1.2c-3.9,2-6.5,3.5-8.8,4.8
			c-1.7,1-3.2,1.8-4.8,2.6c-4.7,2.4-6.6,7.1-6.8,10.6c-0.2,3.4,1.1,6.4,3.4,7.8c1.5,1,4.1,1.7,7.9-0.3c6.4-3.4,12.7-6.3,18.2-8.3
			c-2.5,3.2-7.4,8.4-8.8,9.5c-2.7,2.3-4,7-2.7,10.1c0.5,1.2,1.8,3.2,5.2,3.2c0.2,0,0.5,0,0.8,0c1.2-0.1,3.4-1.6,9.4-5.8
			c6.7-4.7,15.8-11.1,21.1-12.7c3.1-0.9,6.4-2.3,9-3.9c8.1-4.8,13.1-10.8,15.8-18.8c0.2,0,0.5,0,0.7,0c1.2,0,2.2-0.3,3-0.9
			c1.6-1.1,2.5-3.2,2.9-6.4c0.1-0.5,0.1-1.1,0.1-1.7l15.3-6.4c2.3-1,4.1-2.8,5-5.1C379.7,92.9,379.6,90.4,378.6,88.2z M349.8,113.9
			c-2.4,7.9-7.2,13.8-15,18.5c-2.4,1.4-5.5,2.8-8.4,3.6c-5.7,1.7-14.7,8-21.9,13c-3.5,2.4-7.4,5.2-8.2,5.4c-1.8,0.2-2.9-0.4-3.5-1.7
			c-0.9-2.1,0.1-5.7,2-7.2c0.9-0.8,3.9-3.9,6.3-6.6c0.9-1.1,1.9-2.1,2.8-3.2c1.1-1.4,2-2.8,3.7-3.6c1.7-0.8,3.6-1,5.4-1.6
			c1.6-0.5,3.2-1,4.8-1.5c-0.4,0.1-1.2-0.1-1.6-0.1c-0.7,0-1.3,0-2,0c-8.2,0.3-15.9,3.7-23.2,7.2c-1,0.5-2,1-3,1.5
			c-1.8,0.9-3.5,1.8-5.3,2.7c-2.2,1.1-4,1.3-5.4,0.4c-1.5-1-2.4-3.1-2.3-5.6c0.1-2.8,1.6-6.6,5.4-8.5c1.6-0.8,3.1-1.7,4.9-2.7
			c2.4-1.4,4.7-2.7,7.2-3.9c1.7-0.9,3.4-1.8,5.1-2.6c2.1-1,4.5-1.4,6.9-1.6c2.5-0.2,4.9-0.4,7.4-0.6c-1,0.1-2.3-0.5-3.2-0.6
			c-4.2-0.7-8.4-0.5-12.6-0.3c-4.2,0.3-8.4,0.4-12.6,0.7c-1.3,0.1-2.6,0.2-3.9,0.3c-1.1,0.1-2.2,0.3-3.3,0.5c-2,0.4-3.6-0.1-4.6-1.2
			c-1.1-1.4-1.3-3.6-0.4-5.9c1.3-3.4,4.5-5.7,8.5-6.4c1.8-0.3,4-0.5,6.4-0.8c8.7-1,20.7-2.4,31.4-6.8c0.4-0.2,0.7-0.6,0.8-1
			c0-0.5-0.2-0.9-0.6-1.1c-5-2.9-10.8-7-11.5-12.3c-0.4-3,0.9-6.3,4.1-9.6l0,0c0.6-0.6,1.1-0.8,1.8-0.7c2.5,0.3,6.2,4.5,10.3,11.5
			c1,1.7,3.8,2.9,7.6,4.5c4.6,2,10.4,4.4,13.4,8.2C346.8,98.3,351.1,109.3,349.8,113.9z M356,108.1c-0.3,2.5-1,4-1.9,4.7
			c-0.5,0.3-1,0.5-1.7,0.5c0.7-6-3.5-16.3-7.1-20.8c-1.1-1.4-2.6-2.7-4.2-3.8c0.5-0.5,1.2-0.8,1.9-0.9c1.5-0.2,3.4,0.6,5.2,2
			C351.8,92.8,356.6,103.2,356,108.1z M376.5,94.4c-0.7,1.7-2,3-3.6,3.7l-14.7,6.1c-0.8-4.2-3.1-9.4-5.5-12.9l15.4-5.6
			c3.3-1.2,6.8,0.3,8.3,3.5C377.1,90.8,377.2,92.7,376.5,94.4z"/>
		<path d="M336,117.8c-0.3,0-0.6-0.2-0.8-0.4c-0.3-0.5-0.2-1.1,0.3-1.4c0.6-0.4,1.2-0.8,1.7-1.1c1.8-1.1,3.5-2.1,7-5.3
			c0.4-0.4,1-0.3,1.4,0.1c0.4,0.4,0.3,1-0.1,1.4c-3.6,3.3-5.5,4.4-7.3,5.5c-0.6,0.3-1.1,0.7-1.7,1.1
			C336.4,117.8,336.2,117.8,336,117.8z M329.9,111.9c1.1-0.5,2.2-0.9,3.2-1.3c3-1.2,6-2.4,10.6-4.8c0.5-0.3,0.7-0.9,0.4-1.3
			c-0.3-0.5-0.9-0.7-1.3-0.4c-4.5,2.4-7.5,3.6-10.4,4.8c-1,0.4-2.1,0.8-3.3,1.3c-0.5,0.2-0.7,0.8-0.5,1.3c0.2,0.4,0.5,0.6,0.9,0.6
			C329.7,112,329.8,112,329.9,111.9z M331.8,102.2c0.7-0.2,1.4-0.3,2-0.5c2.1-0.5,4.3-1.1,7.8-2.4c0.5-0.2,0.8-0.8,0.6-1.3
			c-0.2-0.5-0.8-0.8-1.3-0.6c-3.4,1.3-5.4,1.8-7.6,2.3c-0.7,0.2-1.3,0.3-2.1,0.5c-0.5,0.1-0.8,0.7-0.7,1.2c0.1,0.4,0.5,0.7,1,0.7
			C331.6,102.2,331.7,102.2,331.8,102.2z"/>
	</g>
	<g display="inline">
		<path fill="#FFFFFF" d="M412.9,57.4c-4.2,0-7.5-0.8-9.8-2.5c-1.8-1.3-2.9-3.1-3.3-5.3l-0.1-0.4l-0.4,0c-5.4-0.5-7.9-5.1-8.4-8.8
			c-0.5-3.6,0.6-6.8,2.8-8.5l0.5-0.4l-0.5-0.4c-4.2-3-4.6-7.2-3.7-10.2c1-3.2,4.4-6.4,9.6-6.4c0.4,0,0.8,0,1.2,0.1l0.4,0l0.2-0.9
			c0.7-3.1,2.2-9.6,10.3-12.2c1.8-0.6,4-0.9,6.4-0.9c7.1,0,15,2.6,20.6,6.7l0.3,0.2l0.3-0.3c1-0.9,2.2-1.3,3.6-1.3
			c2,0,4.3,1.1,6.3,3c0.3,0.3,0.6,0.6,0.9,1l0.2,0.3l16.6-5.4c0.9-0.3,1.8-0.4,2.7-0.4c3.4,0,6.5,2.1,7.9,5.3c0.9,2.2,0.9,4.6,0,6.7
			c-0.9,2.2-2.7,3.8-4.9,4.7l-16.5,6.2l0,0.3c0,0.7-0.1,1.4-0.2,1.9c-0.7,3.1-1.7,4.9-3.2,5.8c-0.7,0.4-1.5,0.6-2.3,0.6
			c-0.4,0-0.7,0-1.2-0.1l-0.4-0.1l-0.2,0.4c-3.3,7.7-8.7,13.1-17.1,17.2c-2.7,1.3-6,2.4-9.2,3C418.9,57,415.7,57.4,412.9,57.4z"/>
		<path d="M433.3,37c-0.4,0-0.7-0.2-0.9-0.5c-0.3-0.5-0.1-1.1,0.4-1.4c0.7-0.4,1.3-0.7,1.8-1c1.8-0.9,3.6-1.8,7.4-4.7
			c0.4-0.3,1.1-0.2,1.4,0.2c0.3,0.4,0.3,1.1-0.2,1.4c-3.9,3-5.8,3.9-7.7,4.9c-0.6,0.3-1.1,0.6-1.8,0.9C433.7,37,433.5,37,433.3,37z
			 M427.7,30.6c1.2-0.4,2.3-0.7,3.3-1c3-0.9,6.2-1.9,11-3.9c0.5-0.2,0.7-0.8,0.5-1.3c-0.2-0.5-0.8-0.7-1.3-0.5
			c-4.7,2-7.8,2.9-10.8,3.8c-1.1,0.3-2.2,0.7-3.4,1c-0.5,0.2-0.8,0.7-0.6,1.3c0.1,0.4,0.5,0.7,0.9,0.7
			C427.5,30.7,427.6,30.6,427.7,30.6z M430.4,21.1c0.7-0.1,1.3-0.2,2-0.3c2.2-0.3,4.4-0.7,8.1-1.7c0.5-0.1,0.8-0.7,0.7-1.2
			c-0.1-0.5-0.7-0.8-1.2-0.7c-3.5,1-5.7,1.3-7.8,1.6c-0.7,0.1-1.3,0.2-2,0.3c-0.5,0.1-0.9,0.6-0.8,1.1c0.1,0.5,0.5,0.8,1,0.8
			C430.3,21.1,430.4,21.1,430.4,21.1z"/>
		<path d="M477.9,9.4c-1.9-4.4-6.7-6.6-11.2-5.1l-16.2,5.3c-0.3-0.4-0.6-0.8-1-1.1c-3.7-3.5-7.7-4.1-10.5-1.7
			c-8-5.9-20.1-8.3-27.5-5.9l0,0c-8.4,2.7-9.9,9.4-10.6,12.6c0,0.2-0.1,0.4-0.1,0.5c-6-0.5-10.1,3-11.3,6.7c-1,3.1-0.5,7.6,3.9,10.7
			c-2.3,1.8-3.5,5.1-3,9c0.6,4.4,3.6,8.8,8.9,9.2c0.4,2.3,1.6,4.2,3.5,5.6c2.6,1.9,6.3,2.6,10.1,2.6c3.3,0,6.7-0.5,9.5-1.1
			c3.2-0.6,6.6-1.8,9.3-3.1c8.5-4.1,14-9.7,17.4-17.4c0.4,0.1,0.8,0.1,1.2,0.1c0.9,0,1.8-0.2,2.6-0.7c1.7-1,2.8-2.9,3.5-6.1
			c0.1-0.6,0.2-1.3,0.2-2l16.2-6.1c2.3-0.9,4.2-2.6,5.1-4.9C478.9,14.2,478.9,11.7,477.9,9.4z M447.3,34.3
			c-3,7.7-8.3,13.1-16.6,17.2c-2.5,1.2-5.7,2.3-8.7,2.9c-8.2,1.7-14.5,1.3-17.7-1.1c-1.3-1-2.1-2.2-2.4-3.8
			c4.1-0.4,8.7-1.2,11.5-2.8c-2.3,0.2-4.6,0.2-7,0.3c-1.3,0-2.6,0.1-3.9,0.2c-1.3,0.1-2.5,0.2-3.8,0c-1.1-0.2-2.1-0.7-2.9-1.4
			c-1.6-1.3-2.5-3.2-2.8-5.2c0-0.1-0.1-0.3-0.1-0.4c-0.4-2.6,0.3-5.6,2.4-6.9c0.4-0.2,0.8-0.4,1.2-0.5c0.7-0.1,1.4,0,2,0
			c0.8,0,1.6-0.1,2.4-0.1c1.2-0.1,2.3-0.2,3.4-0.4c1.4-0.3,2.8-0.7,4.2-1.2c0.2-0.1,0.5-0.1,0.7-0.2c-0.3,0.1-0.8,0-1.1,0
			c-0.3,0-0.7,0-1,0c-0.6,0-1.2,0-1.8,0c-1.1,0-2.1,0-3.2-0.1c-1.3-0.1-2.5-0.2-3.8-0.3c-1.2-0.1-2.3-0.3-3.3-0.9
			c-3.4-2.4-3.8-5.7-3.1-8c0.8-2.6,3.1-4.3,5.7-4.9c0.7-0.2,1.5-0.2,2.2-0.2c1,0,1.9,0.2,2.9,0.1c3.2-0.3,6.5-1,9.2-2.8
			c1.9-1.2,3.3-3,4.8-4.8c0.3-0.4,0.6-0.8,1-1.2c0.3-0.4,0.7-0.9,1.1-1.2c-4,3-7,6.6-15.3,7.4c0.7-3.2,2-8.5,9-10.8
			c8.5-2.7,24.5,1.7,30.3,10.7C445.7,18.7,449,29.9,447.3,34.3z M454,29.1c-0.5,2.5-1.3,3.9-2.3,4.6c-0.5,0.3-1.1,0.4-1.7,0.3
			c1.3-6.1-2.5-17-5.2-21.3c-1-1.5-2.3-2.9-3.7-4.2c2.1-1.4,4.8,0,6.8,1.9C451.1,13.4,455,24.2,454,29.1z M475.7,15.6
			c-0.7,1.7-2.1,2.9-3.8,3.6L456.5,25c-0.5-4.4-2.4-9.6-4.5-13.3l15.6-5.1c3.3-1.1,6.8,0.5,8.2,3.7C476.4,12,476.4,13.9,475.7,15.6z
			"/>
	</g>
</g>
<g display="none">
	<path display="inline" fill="#FFFFFF" d="M209.7,33c1,0,2-0.2,2.8-0.7c2.2-1.3,3.5-4,3.5-7.2c0-3.4-1.6-7.9-6-10.5
		c-1.6-0.9-3-1.8-4.7-2.8c-2.2-1.4-4.8-3-8.5-5.2l0.3-0.9c5.2,0.4,11.8,0.9,16.3,1.9c0.7,0.2,1.4,0.2,2,0.2c1.8,0,3.4-0.6,4.5-1.9
		c1.7-1.9,2.1-4.8,1.1-7.8c-1.4-4.1-5-7.1-9.7-8c-4.3-0.9-8.3-1.3-12.1-1.7c-3.5-0.4-6.7-0.7-10.3-1.3l-0.4-0.1l0-0.4
		c0-0.2,0-0.5-0.1-0.7c-0.3-3.2-0.9-9.8-8.6-13.5c-2.7-1.3-6.3-2-10.3-2c-6,0-12.3,1.5-17.2,4.2l-0.3,0.2l-0.3-0.3
		c-1.1-1.2-2.5-1.8-4.1-1.8c-1.8,0-3.9,0.8-5.8,2.2c-0.1,0.1-0.2,0.2-0.3,0.3l-0.2,0.2l-17.3-7.8c-1.1-0.5-2.3-0.8-3.6-0.8
		c-3.1,0-6,1.7-7.5,4.4c-1.1,2.1-1.4,4.4-0.7,6.7c0.7,2.3,2.2,4.1,4.3,5.2l16.2,8.2l-0.1,0.4c-0.2,1.1-0.3,2-0.2,2.8
		c0.3,3.1,1,5.1,2.5,6.2c0.8,0.6,1.8,1,3,1c0.1,0,0.2,0,0.3,0l0.5,0l0.1,0.4c2.3,8,6.9,14.1,14.7,19.3c2.5,1.6,5.7,3.2,8.7,4.2
		c2.3,0.7,4.6,1.1,6.9,1.1c5,0,10.3-1.7,15.7-5.1l0.2-0.1l0.2,0.1c5.8,2.3,12.9,5.9,20,10C206.8,32.5,208.3,33,209.7,33z"/>
	<path display="inline" d="M153.3,4.8c-0.6-0.4-1.1-0.8-1.6-1.1c-1.7-1.2-3.5-2.4-7-5.8c-0.4-0.4-0.4-1,0-1.4c0.4-0.4,1-0.4,1.4,0
		c3.3,3.3,5.1,4.5,6.7,5.6c0.5,0.4,1.1,0.7,1.7,1.2c0.4,0.3,0.5,0.9,0.2,1.4c-0.2,0.3-0.5,0.4-0.8,0.4C153.7,5,153.5,4.9,153.3,4.8z
		 M160.6-0.5c0.4,0,0.7-0.2,0.9-0.6c0.2-0.5,0-1.1-0.5-1.3c-1.1-0.5-2.2-1-3.2-1.5c-2.8-1.3-5.8-2.6-10.2-5.2
		c-0.5-0.3-1.1-0.1-1.4,0.3c-0.3,0.5-0.1,1.1,0.3,1.4c4.5,2.7,7.5,4,10.4,5.3c1,0.5,2.1,0.9,3.2,1.5C160.3-0.6,160.4-0.5,160.6-0.5z
		 M159-10.4c0.4,0,0.8-0.3,1-0.7c0.2-0.5-0.1-1.1-0.7-1.2c-0.7-0.2-1.3-0.4-2-0.6c-2.1-0.6-4.2-1.2-7.6-2.6c-0.5-0.2-1.1,0-1.3,0.5
		c-0.2,0.5,0,1.1,0.5,1.3c3.5,1.5,5.7,2.1,7.8,2.7c0.6,0.2,1.3,0.4,1.9,0.6C158.8-10.4,158.9-10.4,159-10.4z"/>
	<path display="inline" d="M111.6-21.9c0.7,2.4,2.4,4.3,4.6,5.4L132-8.3c-0.2,1.1-0.3,2.1-0.2,3c0.3,3.3,1.1,5.3,2.6,6.5
		c0.9,0.7,2,1.1,3.3,1.1c0.1,0,0.3,0,0.4,0c2.3,8.1,7.1,14.4,14.9,19.6c2.5,1.7,5.7,3.2,8.8,4.3c7.3,2.4,15,1,23.1-4
		c5.8,2.3,12.9,5.9,19.9,10c1.9,1.1,3.4,1.5,4.8,1.5c1.3,0,2.3-0.4,3.1-0.8c2.3-1.3,3.7-4.2,3.7-7.6c0-3.5-1.7-8.3-6.3-10.9
		c-1.6-0.9-3-1.8-4.6-2.8c-2.2-1.4-4.8-3-8.6-5.2c5.6,0.4,11.8,0.9,16.2,1.9c2.9,0.6,5.3,0,7-1.8c1.8-2,2.2-5.1,1.2-8.3
		c-1.4-4.3-5.2-7.4-10.1-8.4c-4.4-0.9-8.3-1.3-12.1-1.7c-3.4-0.4-6.7-0.7-10.2-1.3c0-0.2,0-0.5-0.1-0.7c-0.3-3.3-0.9-10.1-8.9-13.9
		l0,0c-7-3.3-19.3-2.5-28,2.3c-2.5-2.8-6.6-2.7-10.6,0.3c-0.1,0.1-0.2,0.2-0.3,0.3L124-32.8c-4.3-2-9.4-0.3-11.7,3.9
		C111.1-26.8,110.8-24.3,111.6-21.9z M147.5-19.1c7-8.1,23.4-10.5,31.4-6.7c6.7,3.2,7.2,8.6,7.5,11.8c-8.2-1.9-10.6-5.9-14.2-9.4
		c0.5,0.5,0.9,1.3,1.3,1.9c1.3,2,2.4,4.1,4.2,5.7c2.5,2.3,5.9,3.5,9.1,4.3c3.9,1,8.1,1.3,12.1,1.7c3.8,0.4,7.6,0.8,11.9,1.6
		c4,0.8,7.1,3.3,8.2,6.7c0.8,2.3,0.5,4.5-0.7,5.9c-1,1.1-2.6,1.5-4.6,1c-2.4-0.5-4.7-0.9-7.2-1.1C201,4,195.4,3.3,189.7,3
		c-3.1-0.2-6.3-0.3-9.4,0.2c-0.4,0.1-0.8,0.1-1.2,0.2c-0.3,0-0.7,0.2-1,0.1c2.5,0.3,5.1,0.6,7.6,1c1.4,0.2,2.8,0.4,4.2,0.8
		c1.5,0.4,2.8,1.2,4.1,1.9c1.4,0.8,2.8,1.6,4.2,2.4c2,1.2,4.1,2.5,6.1,3.7c1.7,1.1,3.1,2,4.7,2.9c3.7,2.1,5,5.9,5,8.8
		c0,2.5-1,4.6-2.5,5.5c-1.4,0.8-3.3,0.6-5.4-0.7c-7.4-4.3-14.8-8-20.9-10.4l0,0c-4.3-1.7-9.9-2.7-13.7-2.4c3.8,1.4,7,2.6,10.5,3.8
		c-6.8,3.8-13.3,4.8-19.3,2.8c-2.9-1-5.9-2.4-8.3-4c-7.7-5.1-12.2-11.1-14.2-19.2C139.1-4.1,143.9-14.8,147.5-19.1z M142.8-23.4
		c2.2-1.6,5.1-2.7,7-1c-1.6,1.1-3,2.3-4.2,3.7c-3.3,3.9-8.4,14.3-8,20.4c-0.7,0-1.2-0.2-1.7-0.5c-0.9-0.7-1.5-2.3-1.7-4.8
		C133.9-10.5,139.2-20.7,142.8-23.4z M114.5-27.8c1.7-3,5.4-4.2,8.5-2.8l16.2,7.3c-2.6,3.1-5.3,8.1-6.6,12.5l-15.4-7.8
		c-1.6-0.8-2.8-2.2-3.3-4C113.4-24.3,113.6-26.2,114.5-27.8z"/>
</g>
<g display="none">
	<path display="inline" fill="#FFFFFF" d="M183,156.5c2.9,0,4.2-1.6,4.7-2.9c1.2-2.9,0-7.3-2.6-9.5c-1.4-1.2-6.3-6.4-8.8-9.6
		l-1.1-1.4l1.7,0.6c5.5,2.1,11.9,5,18.3,8.3c1.5,0.8,3,1.2,4.3,1.2c1.1,0,2.2-0.3,3.1-0.9c2.1-1.3,3.3-4.1,3.2-7.4
		c-0.2-3.4-1.9-7.9-6.5-10.2c-1.6-0.8-3.1-1.7-4.8-2.6c-2.3-1.3-4.9-2.8-8.8-4.8l0.2-0.9c5.3,0.2,11.8,0.4,16.3,1.2
		c0.6,0.1,1.1,0.1,1.6,0.1c2,0,3.7-0.7,4.8-2.1c1.6-1.9,1.9-4.9,0.8-7.8c-1.5-4-5.3-6.9-10.1-7.6c-1.9-0.3-4-0.5-6.5-0.8
		c-7.9-0.9-18.7-2.2-28.6-5.8l-0.9-0.3l0.8-0.5c4.1-2.6,9.5-6.7,10.3-12.4c0.5-3.7-1-7.4-4.6-11.2l0,0c-0.9-0.9-1.8-1.3-2.9-1.3
		c-0.2,0-0.3,0-0.5,0c-3.2,0.4-7.2,4.6-11.8,12.5c-0.6,1-2.9,2.1-6.7,3.7c-2.5,1.1-5.4,2.3-8,3.8l-0.3,0.2l-0.3-0.3
		c-0.9-1-2.1-1.7-3.5-1.8c-0.2,0-0.4,0-0.6,0c-1.9,0-4,0.9-6,2.5c-0.4,0.3-0.8,0.7-1.2,1.2l-0.2,0.2l-16.5-6c-1-0.3-2-0.5-3-0.5
		c-3.4,0-6.3,1.9-7.8,5c-1,2.1-1.1,4.5-0.2,6.7c0.9,2.2,2.5,3.9,4.7,4.8l15.6,6.5l0,0.3c0,0.6,0,1.1,0.1,1.6c0.4,3.1,1.3,5,2.7,6.1
		c0.8,0.6,1.7,0.8,2.8,0.8c0.2,0,0.4,0,0.6,0l0.4,0l0.1,0.4c2.6,7.9,7.6,13.8,15.6,18.6c2.6,1.5,5.8,2.9,8.9,3.8
		c5.4,1.6,14.6,8,21.3,12.8c5.8,4.1,8.1,5.7,9.2,5.8C182.5,156.5,182.8,156.5,183,156.5z"/>
	<path display="inline" d="M99.8,95.3c0.9,2.3,2.7,4.1,5,5.1l15.3,6.4c0,0.6,0,1.2,0.1,1.7c0.4,3.2,1.4,5.3,2.9,6.4
		c0.9,0.6,1.9,0.9,3,0.9c0.2,0,0.5,0,0.7,0c2.7,8,7.7,14,15.8,18.8c2.6,1.5,5.9,3,9,3.9c5.3,1.6,14.5,8,21.1,12.7
		c6,4.2,8.2,5.7,9.4,5.8c0.3,0,0.5,0,0.8,0c3.3,0,4.6-2,5.2-3.2c1.3-3.1,0-7.8-2.7-10.1c-1.4-1.1-6.2-6.4-8.8-9.5
		c5.5,2.1,11.8,4.9,18.2,8.3c3.8,2,6.4,1.3,7.9,0.3c2.3-1.4,3.5-4.4,3.4-7.8c-0.2-3.5-2-8.2-6.8-10.6c-1.6-0.8-3.1-1.7-4.8-2.6
		c-2.3-1.3-4.9-2.8-8.8-4.8c5.6,0.2,11.8,0.4,16.3,1.2c2.9,0.5,5.3-0.2,6.9-2.1c1.7-2.1,2-5.2,0.8-8.3c-1.6-4.2-5.5-7.1-10.4-7.9
		c-1.9-0.3-4-0.5-6.5-0.8c-8-0.9-18.7-2.1-28.5-5.8c4.9-3.1,9.8-7.2,10.6-12.7c0.5-3.8-1.1-7.7-4.7-11.6l0,0
		c-1.1-1.1-2.4-1.6-3.8-1.5c-3.4,0.4-7.5,4.7-12.1,12.7c-0.6,1-3.6,2.2-6.5,3.5c-2.6,1.1-5.4,2.3-8.1,3.8c-1-1.1-2.3-1.8-3.8-2
		c-2.2-0.2-4.7,0.7-7,2.6c-0.4,0.3-0.9,0.8-1.3,1.3l-16.2-5.9c-4.5-1.6-9.3,0.4-11.3,4.7C99,90.4,98.9,92.9,99.8,95.3z M135.3,94
		c3-3.8,8.8-6.2,13.4-8.2c3.9-1.6,6.7-2.8,7.6-4.5c4.1-7,7.8-11.2,10.3-11.5c0.7-0.1,1.3,0.2,1.8,0.7l0,0c3.1,3.3,4.5,6.5,4.1,9.6
		c-0.7,5.3-6.5,9.3-11.5,12.3c-0.4,0.2-0.6,0.7-0.6,1.1c0,0.5,0.3,0.9,0.8,1c10.7,4.5,22.7,5.8,31.4,6.8c2.5,0.3,4.6,0.5,6.4,0.8
		c4.1,0.6,7.2,3,8.5,6.4c0.9,2.2,0.7,4.5-0.4,5.9c-1,1.2-2.5,1.6-4.6,1.2c-1.1-0.2-2.2-0.3-3.3-0.5c-1.3-0.1-2.6-0.2-3.9-0.3
		c-4.2-0.3-8.4-0.4-12.6-0.7c-4.2-0.3-8.4-0.4-12.6,0.3c-1,0.2-2.3,0.7-3.2,0.6c2.5,0.2,4.9,0.4,7.4,0.6c2.3,0.2,4.7,0.5,6.9,1.6
		c1.7,0.8,3.4,1.7,5.1,2.6c2.4,1.3,4.8,2.6,7.2,3.9c1.7,1,3.2,1.8,4.9,2.7c3.8,2,5.3,5.7,5.4,8.5c0.1,2.5-0.7,4.7-2.3,5.6
		c-1.4,0.9-3.2,0.7-5.4-0.4c-1.8-0.9-3.5-1.8-5.3-2.7c-1-0.5-2-1-3-1.5c-7.3-3.5-15-6.8-23.2-7.2c-0.7,0-1.3,0-2,0
		c-0.4,0-1.2,0.2-1.6,0.1c1.6,0.5,3.2,1,4.8,1.5c1.8,0.6,3.7,0.8,5.4,1.6c1.7,0.8,2.6,2.2,3.7,3.6c0.9,1.1,1.8,2.2,2.8,3.2
		c2.4,2.7,5.3,5.8,6.3,6.6c1.9,1.6,2.9,5.2,2,7.2c-0.5,1.3-1.7,1.8-3.5,1.7c-0.8-0.2-4.8-3-8.2-5.4c-7.2-5.1-16.1-11.4-21.9-13
		c-2.9-0.9-6-2.2-8.4-3.6c-7.9-4.7-12.7-10.6-15-18.5C127.5,109.3,131.9,98.3,135.3,94z M130.4,89.9c1.8-1.5,3.7-2.2,5.2-2
		c0.7,0.1,1.4,0.4,1.9,0.9c-1.6,1.1-3.1,2.3-4.2,3.8c-3.6,4.5-7.8,14.8-7.1,20.8c-0.7,0-1.2-0.1-1.7-0.5c-1-0.7-1.6-2.3-1.9-4.7
		C122,103.2,126.9,92.8,130.4,89.9z M102.3,89.2c1.5-3.2,5-4.6,8.3-3.5l15.4,5.6c-2.4,3.5-4.7,8.7-5.5,12.9l-14.7-6.1
		c-1.7-0.7-3-2-3.6-3.7C101.5,92.7,101.5,90.8,102.3,89.2z"/>
	<path display="inline" d="M142.1,117.7c-0.6-0.4-1.1-0.7-1.7-1.1c-1.8-1.1-3.6-2.2-7.3-5.5c-0.4-0.4-0.4-1-0.1-1.4
		c0.4-0.4,1-0.4,1.4-0.1c3.5,3.2,5.2,4.2,7,5.3c0.6,0.3,1.1,0.7,1.7,1.1c0.5,0.3,0.6,0.9,0.3,1.4c-0.2,0.3-0.5,0.4-0.8,0.4
		C142.5,117.8,142.3,117.8,142.1,117.7z M149.1,112c0.4,0,0.8-0.2,0.9-0.6c0.2-0.5,0-1.1-0.5-1.3c-1.1-0.5-2.2-0.9-3.3-1.3
		c-2.9-1.2-5.9-2.3-10.4-4.8c-0.5-0.3-1.1-0.1-1.3,0.4c-0.3,0.5-0.1,1.1,0.4,1.3c4.6,2.5,7.7,3.7,10.6,4.8c1,0.4,2.1,0.8,3.2,1.3
		C148.8,112,149,112,149.1,112z M147.1,102.2c0.4,0,0.8-0.3,1-0.7c0.1-0.5-0.2-1.1-0.7-1.2c-0.7-0.2-1.4-0.3-2.1-0.5
		c-2.2-0.5-4.2-1-7.6-2.3c-0.5-0.2-1.1,0.1-1.3,0.6c-0.2,0.5,0.1,1.1,0.6,1.3c3.5,1.3,5.7,1.8,7.8,2.4c0.7,0.2,1.3,0.3,2,0.5
		C146.9,102.2,147,102.2,147.1,102.2z"/>
</g>
<g>
	<path fill="#FFFFFF" d="M65.7,57.4c4.2,0,7.5-0.8,9.8-2.5c1.8-1.3,2.9-3.1,3.3-5.3l0.1-0.4l0.4,0c5.4-0.5,7.9-5.1,8.4-8.8
		c0.5-3.6-0.6-6.8-2.8-8.5l-0.5-0.4l0.5-0.4c4.2-3,4.6-7.2,3.7-10.2c-1-3.2-4.4-6.4-9.6-6.4c-0.4,0-0.8,0-1.2,0.1l-0.4,0l-0.2-0.9
		C76.5,10.5,75,4,66.9,1.4c-1.8-0.6-4-0.9-6.4-0.9c-7.1,0-15,2.6-20.6,6.7l-0.3,0.2l-0.3-0.3c-1-0.9-2.2-1.3-3.6-1.3
		c-2,0-4.3,1.1-6.3,3c-0.3,0.3-0.6,0.6-0.9,1l-0.2,0.3L11.7,4.8C10.9,4.5,10,4.3,9.1,4.3c-3.4,0-6.5,2.1-7.9,5.3
		c-0.9,2.2-0.9,4.6,0,6.7c0.9,2.2,2.7,3.8,4.9,4.7l16.5,6.2l0,0.3c0,0.7,0.1,1.4,0.2,1.9c0.7,3.1,1.7,4.9,3.2,5.8
		c0.7,0.4,1.5,0.6,2.3,0.6c0.4,0,0.7,0,1.2-0.1l0.4-0.1l0.2,0.4c3.3,7.7,8.7,13.1,17.1,17.2c2.7,1.3,6,2.4,9.2,3
		C59.8,57,62.9,57.4,65.7,57.4z"/>
	<path d="M44.8,36.9c-0.6-0.3-1.2-0.6-1.8-0.9c-1.9-0.9-3.8-1.9-7.7-4.9c-0.4-0.3-0.5-1-0.2-1.4c0.3-0.4,1-0.5,1.4-0.2
		c3.8,2.9,5.6,3.8,7.4,4.7c0.6,0.3,1.2,0.6,1.8,1c0.5,0.3,0.7,0.9,0.4,1.4C46,36.8,45.7,37,45.3,37C45.1,37,45,37,44.8,36.9z
		 M51.2,30.7c0.4,0,0.8-0.3,0.9-0.7c0.2-0.5-0.1-1.1-0.6-1.3c-1.2-0.4-2.3-0.7-3.4-1c-3-0.9-6.1-1.8-10.8-3.8
		c-0.5-0.2-1.1,0-1.3,0.5c-0.2,0.5,0,1.1,0.5,1.3c4.8,2.1,7.9,3,11,3.9c1.1,0.3,2.2,0.7,3.3,1C51,30.6,51.1,30.7,51.2,30.7z
		 M48.4,21.1c0.5,0,0.9-0.3,1-0.8c0.1-0.5-0.3-1.1-0.8-1.1c-0.7-0.1-1.4-0.2-2-0.3c-2.1-0.3-4.3-0.7-7.8-1.6
		c-0.5-0.1-1.1,0.2-1.2,0.7c-0.1,0.5,0.2,1.1,0.7,1.2c3.6,1,5.9,1.4,8.1,1.7c0.7,0.1,1.3,0.2,2,0.3C48.3,21.1,48.3,21.1,48.4,21.1z"
		/>
	<path d="M0.7,16.5c1,2.3,2.8,4,5.1,4.9L22,27.6c0,0.7,0.1,1.4,0.2,2c0.7,3.2,1.8,5.2,3.5,6.1c0.8,0.4,1.6,0.7,2.6,0.7
		c0.4,0,0.8,0,1.2-0.1c3.3,7.8,8.9,13.3,17.4,17.4c2.7,1.3,6.1,2.4,9.3,3.1c2.9,0.6,6.3,1.1,9.5,1.1c3.8,0,7.5-0.7,10.1-2.6
		c1.9-1.4,3-3.3,3.5-5.6c5.3-0.5,8.3-4.9,8.9-9.2c0.5-3.8-0.7-7.2-3-9c4.4-3.1,4.9-7.6,3.9-10.7c-1.2-3.7-5.2-7.3-11.3-6.7
		c0-0.2-0.1-0.3-0.1-0.5c-0.7-3.2-2.2-9.9-10.6-12.6l0,0c-7.4-2.4-19.4,0-27.5,5.9C36.8,4.4,32.8,5,29.1,8.5c-0.3,0.3-0.6,0.7-1,1.1
		L11.9,4.3C7.4,2.8,2.6,5,0.7,9.4C-0.2,11.7-0.2,14.2,0.7,16.5z M36,13.9C41.9,5,57.8,0.5,66.3,3.2c7,2.3,8.2,7.6,9,10.8
		C66.9,13.2,64,9.6,59.9,6.6c0.4,0.3,0.8,0.8,1.1,1.2c0.3,0.4,0.7,0.8,1,1.2c1.4,1.8,2.8,3.5,4.8,4.8c2.7,1.7,6,2.5,9.2,2.8
		c1,0.1,1.9-0.1,2.9-0.1c0.7,0,1.5,0,2.2,0.2c2.6,0.5,4.9,2.3,5.7,4.9c0.8,2.3,0.3,5.6-3.1,8c-1.1,0.6-2.1,0.8-3.3,0.9
		c-1.3,0.1-2.5,0.2-3.8,0.3c-1.1,0.1-2.1,0.1-3.2,0.1c-0.6,0-1.2,0-1.8,0c-0.3,0-0.7,0-1,0c-0.3,0-0.8,0.1-1.1,0
		c0.2,0.1,0.5,0.1,0.7,0.2c1.4,0.4,2.8,0.9,4.2,1.2c1.1,0.2,2.3,0.3,3.4,0.4c0.8,0,1.6,0.1,2.4,0.1c0.7,0,1.4-0.1,2,0
		c0.4,0.1,0.9,0.2,1.2,0.5c2.1,1.3,2.8,4.3,2.4,6.9c0,0.1,0,0.3-0.1,0.4c-0.4,2-1.3,3.9-2.8,5.2c-0.8,0.7-1.9,1.2-2.9,1.4
		c-1.2,0.3-2.5,0.1-3.8,0c-1.3-0.1-2.6-0.1-3.9-0.2c-2.3-0.1-4.6-0.1-7-0.3c2.9,1.6,7.4,2.5,11.5,2.8c-0.4,1.6-1.2,2.8-2.4,3.8
		c-3.2,2.4-9.5,2.8-17.7,1.1c-3-0.6-6.2-1.7-8.7-2.9c-8.3-4-13.6-9.5-16.6-17.2C29.6,29.9,33,18.7,36,13.9z M30.8,10.3
		c2-1.9,4.7-3.3,6.8-1.9c-1.4,1.3-2.7,2.7-3.7,4.2c-2.7,4.3-6.5,15.2-5.2,21.3c-0.7,0.1-1.3,0-1.7-0.3c-1-0.6-1.8-2.1-2.3-4.6
		C23.6,24.2,27.5,13.4,30.8,10.3z M3,10.4c1.4-3.2,4.9-4.8,8.2-3.7l15.6,5.1c-2.1,3.6-4,8.9-4.5,13.3L6.7,19.2
		c-1.7-0.6-3-1.9-3.8-3.6S2.3,12,3,10.4z"/>
</g>
</svg>
