<?xml version="1.0" encoding="utf-8"?>
<!-- Generator: Adobe Illustrator 23.0.0, SVG Export Plug-In . SVG Version: 6.00 Build 0)  -->
<svg version="1.1" baseProfile="tiny"
	 id="svg32847" xmlns:cc="http://creativecommons.org/ns#" xmlns:dc="http://purl.org/dc/elements/1.1/" xmlns:inkscape="http://www.inkscape.org/namespaces/inkscape" xmlns:rdf="http://www.w3.org/1999/02/22-rdf-syntax-ns#" xmlns:sodipodi="http://sodipodi.sourceforge.net/DTD/sodipodi-0.dtd"
	 xmlns="http://www.w3.org/2000/svg" xmlns:xlink="http://www.w3.org/1999/xlink" x="0px" y="0px" viewBox="0 0 110.8 67.1"
	 xml:space="preserve">
<g display="none">
	<g display="inline">
		<path fill="#FFFFFF" d="M157.8,66.6c-1,0-2-0.2-2.8-0.7c-2.2-1.3-3.5-4-3.5-7.2c0-3.4,1.6-7.9,6-10.5c1.6-0.9,3-1.8,4.7-2.8
			c2.2-1.4,4.8-3,8.5-5.2l-0.3-0.9c-5.2,0.4-11.8,0.9-16.3,1.9c-0.7,0.2-1.4,0.2-2,0.2c-1.8,0-3.4-0.6-4.5-1.9
			c-1.7-1.9-2.1-4.8-1.1-7.8c1.4-4.1,5-7.1,9.7-8c4.3-0.9,8.3-1.3,12.1-1.7c3.5-0.4,6.7-0.7,10.3-1.3l0.4-0.1l0-0.4
			c0-0.2,0-0.5,0.1-0.7c0.3-3.2,0.9-9.8,8.6-13.5c2.7-1.3,6.3-2,10.3-2c6,0,12.3,1.5,17.2,4.2l0.3,0.2l0.3-0.3
			c1.1-1.2,2.5-1.8,4.1-1.8c1.8,0,3.9,0.8,5.8,2.2c0.1,0.1,0.2,0.2,0.3,0.3l0.2,0.2l17.3-7.8c1.1-0.5,2.3-0.8,3.6-0.8
			c3.1,0,6,1.7,7.5,4.4c1.1,2.1,1.4,4.4,0.7,6.7c-0.7,2.3-2.2,4.1-4.3,5.2L234.9,25l0.1,0.4c0.2,1.1,0.3,2,0.2,2.8
			c-0.3,3.1-1,5.1-2.5,6.2c-0.8,0.6-1.8,1-3,1c-0.1,0-0.2,0-0.3,0l-0.5,0l-0.1,0.4c-2.3,8-6.9,14.1-14.7,19.3
			c-2.5,1.6-5.7,3.2-8.7,4.2c-2.3,0.7-4.6,1.1-6.9,1.1c-5,0-10.3-1.7-15.7-5.1l-0.2-0.1l-0.2,0.1c-5.8,2.3-12.9,5.9-20,10
			C160.7,66.1,159.2,66.6,157.8,66.6z"/>
		<path d="M213.6,38.6c-0.3,0-0.6-0.1-0.8-0.4c-0.3-0.4-0.2-1.1,0.2-1.4c0.6-0.4,1.2-0.8,1.7-1.2c1.7-1.1,3.4-2.3,6.7-5.6
			c0.4-0.4,1-0.4,1.4,0c0.4,0.4,0.4,1,0,1.4c-3.5,3.5-5.3,4.7-7,5.8c-0.5,0.4-1.1,0.7-1.6,1.1C214,38.6,213.8,38.6,213.6,38.6z
			 M207.3,33c1.1-0.5,2.2-1,3.2-1.5c2.9-1.3,5.9-2.7,10.4-5.3c0.5-0.3,0.6-0.9,0.3-1.4c-0.3-0.5-0.9-0.6-1.4-0.3
			c-4.4,2.6-7.3,3.9-10.2,5.2c-1,0.5-2.1,0.9-3.2,1.5c-0.5,0.2-0.7,0.8-0.5,1.3c0.2,0.4,0.5,0.6,0.9,0.6
			C207,33.1,207.2,33.1,207.3,33z M208.8,23.2c0.7-0.2,1.3-0.4,1.9-0.6c2.1-0.6,4.3-1.2,7.8-2.7c0.5-0.2,0.7-0.8,0.5-1.3
			c-0.2-0.5-0.8-0.7-1.3-0.5c-3.4,1.4-5.5,2-7.6,2.6c-0.6,0.2-1.3,0.4-2,0.6c-0.5,0.2-0.8,0.7-0.7,1.2c0.1,0.4,0.5,0.7,1,0.7
			C208.6,23.2,208.7,23.2,208.8,23.2z"/>
		<path d="M255.2,4.7c-2.3-4.2-7.3-5.8-11.7-3.9l-17.1,7.7c-0.1-0.1-0.2-0.2-0.3-0.3c-4.1-3-8.2-3.1-10.6-0.3
			c-8.7-4.8-21-5.6-28-2.3l0,0c-7.9,3.8-8.6,10.6-8.9,13.9c0,0.2,0,0.5-0.1,0.7c-3.5,0.6-6.8,1-10.2,1.3c-3.8,0.4-7.8,0.8-12.1,1.7
			c-4.9,1-8.7,4.1-10.1,8.4c-1,3.1-0.6,6.3,1.2,8.3c1.6,1.8,4.1,2.4,7,1.8c4.4-1,10.6-1.5,16.2-1.9c-3.8,2.1-6.4,3.8-8.6,5.2
			c-1.7,1-3.1,1.9-4.6,2.8c-4.6,2.6-6.3,7.4-6.3,10.9c0,3.4,1.4,6.3,3.7,7.6c0.8,0.4,1.8,0.8,3.1,0.8c1.3,0,2.9-0.4,4.8-1.5
			c7.1-4.1,14.1-7.7,19.9-10c8,5,15.8,6.4,23.1,4c3.1-1.1,6.3-2.6,8.8-4.3c7.9-5.2,12.7-11.4,14.9-19.6c0.1,0,0.3,0,0.4,0
			c1.3,0,2.4-0.4,3.3-1.1c1.5-1.2,2.4-3.3,2.6-6.5c0.1-0.9,0-1.9-0.2-3l15.9-8.1c2.2-1.1,3.8-3.1,4.6-5.4
			C256.6,9.4,256.4,6.9,255.2,4.7z M227.2,34.1c-2,8-6.5,14.1-14.2,19.2c-2.4,1.5-5.4,3-8.3,4c-6,2-12.5,1-19.3-2.8
			c3.5-1.2,6.7-2.4,10.5-3.8c-3.8-0.3-9.4,0.7-13.7,2.4l0,0c-6,2.4-13.4,6.1-20.9,10.4c-2.1,1.2-4,1.5-5.4,0.7
			c-1.5-0.9-2.5-3-2.5-5.5c0-2.8,1.3-6.7,5-8.8c1.6-0.9,3.1-1.8,4.7-2.9c2-1.3,4-2.5,6.1-3.7c1.4-0.8,2.8-1.6,4.2-2.4
			c1.3-0.7,2.6-1.5,4.1-1.9c1.4-0.4,2.8-0.6,4.2-0.8c2.5-0.4,5.1-0.7,7.6-1c-0.3,0-0.7-0.1-1-0.1c-0.4-0.1-0.8-0.1-1.2-0.2
			c-3.1-0.5-6.2-0.4-9.4-0.2c-5.6,0.4-11.2,1-16.9,1.5c-2.4,0.3-4.8,0.7-7.2,1.1c-2,0.4-3.6,0.1-4.6-1c-1.2-1.3-1.5-3.6-0.7-5.9
			c1.1-3.4,4.2-5.9,8.2-6.7c4.3-0.8,8.1-1.2,11.9-1.6c4-0.4,8.1-0.8,12.1-1.7c3.3-0.8,6.6-2,9.1-4.3c1.8-1.6,2.9-3.7,4.2-5.7
			c0.4-0.6,0.8-1.4,1.3-1.9c-3.6,3.5-6,7.4-14.2,9.4c0.3-3.3,0.8-8.7,7.5-11.8C196.6,4,213,6.4,220,14.5
			C223.6,18.8,228.4,29.5,227.2,34.1z M233.2,28c-0.2,2.5-0.8,4.1-1.7,4.8c-0.4,0.3-1,0.5-1.7,0.5c0.5-6.2-4.7-16.6-8-20.4
			c-1.2-1.4-2.6-2.6-4.2-3.7c1.9-1.7,4.8-0.7,7,1C228.3,12.9,233.6,23.1,233.2,28z M253.6,11c-0.5,1.7-1.7,3.2-3.3,4l-15.4,7.8
			c-1.3-4.4-4-9.4-6.6-12.5L244.5,3c3.2-1.4,6.8-0.2,8.5,2.8C253.9,7.5,254.1,9.3,253.6,11z"/>
	</g>
	<g display="inline">
		<path fill="#FFFFFF" d="M184.5,190.1c-2.9,0-4.2-1.6-4.7-2.9c-1.2-2.9,0-7.3,2.6-9.5c1.4-1.2,6.3-6.4,8.8-9.6l1.1-1.4l-1.7,0.6
			c-5.5,2.1-11.9,5-18.3,8.3c-1.5,0.8-3,1.2-4.3,1.2c-1.1,0-2.2-0.3-3.1-0.9c-2.1-1.3-3.3-4.1-3.2-7.4c0.2-3.4,1.9-7.9,6.5-10.2
			c1.6-0.8,3.1-1.7,4.8-2.6c2.3-1.3,4.9-2.8,8.8-4.8l-0.2-0.9c-5.3,0.2-11.8,0.4-16.3,1.2c-0.6,0.1-1.1,0.1-1.6,0.1
			c-2,0-3.7-0.7-4.8-2.1c-1.6-1.9-1.9-4.9-0.8-7.8c1.5-4,5.3-6.9,10.1-7.6c1.9-0.3,4-0.5,6.5-0.8c7.9-0.9,18.7-2.2,28.6-5.8l0.9-0.3
			l-0.8-0.5c-4.1-2.6-9.5-6.7-10.3-12.4c-0.5-3.7,1-7.4,4.6-11.2l0,0c0.9-0.9,1.8-1.3,2.9-1.3c0.2,0,0.3,0,0.5,0
			c3.2,0.4,7.2,4.6,11.8,12.5c0.6,1,2.9,2.1,6.7,3.7c2.5,1.1,5.4,2.3,8,3.8l0.3,0.2l0.3-0.3c0.9-1,2.1-1.7,3.5-1.8
			c0.2,0,0.4,0,0.6,0c1.9,0,4,0.9,6,2.5c0.4,0.3,0.8,0.7,1.2,1.2l0.2,0.2l16.5-6c1-0.3,2-0.5,3-0.5c3.4,0,6.3,1.9,7.8,5
			c1,2.1,1.1,4.5,0.2,6.7c-0.9,2.2-2.5,3.9-4.7,4.8l-15.6,6.5l0,0.3c0,0.6,0,1.1-0.1,1.6c-0.4,3.1-1.3,5-2.7,6.1
			c-0.8,0.6-1.7,0.8-2.8,0.8c-0.2,0-0.4,0-0.6,0l-0.4,0l-0.1,0.4c-2.6,7.9-7.6,13.8-15.6,18.6c-2.6,1.5-5.8,2.9-8.9,3.8
			c-5.4,1.6-14.6,8-21.3,12.8c-5.8,4.1-8.1,5.7-9.2,5.8C184.9,190.1,184.7,190.1,184.5,190.1z"/>
		<path d="M267.4,121.8c-2-4.3-6.9-6.3-11.3-4.7l-16.2,5.9c-0.4-0.5-0.9-0.9-1.3-1.3c-2.3-1.9-4.8-2.8-7-2.6c-1.5,0.2-2.8,0.9-3.8,2
			c-2.7-1.5-5.5-2.8-8.1-3.8c-2.9-1.2-5.9-2.5-6.5-3.5c-4.7-8-8.8-12.3-12.1-12.7c-1.4-0.2-2.8,0.3-3.8,1.5l0,0
			c-3.7,3.9-5.3,7.8-4.7,11.6c0.8,5.5,5.7,9.6,10.6,12.7c-9.8,3.6-20.5,4.9-28.5,5.8c-2.5,0.3-4.6,0.5-6.5,0.8
			c-4.9,0.8-8.8,3.7-10.4,7.9c-1.2,3.1-0.9,6.3,0.8,8.3c1.5,1.9,4,2.6,6.9,2.1c4.4-0.8,10.7-1,16.3-1.2c-3.9,2-6.5,3.5-8.8,4.8
			c-1.7,1-3.2,1.8-4.8,2.6c-4.7,2.4-6.6,7.1-6.8,10.6c-0.2,3.4,1.1,6.4,3.4,7.8c1.5,1,4.1,1.7,7.9-0.3c6.4-3.4,12.7-6.3,18.2-8.3
			c-2.5,3.2-7.4,8.4-8.8,9.5c-2.7,2.3-4,7-2.7,10.1c0.5,1.2,1.8,3.2,5.2,3.2c0.2,0,0.5,0,0.8,0c1.2-0.1,3.4-1.6,9.4-5.8
			c6.7-4.7,15.8-11.1,21.1-12.7c3.1-0.9,6.4-2.3,9-3.9c8.1-4.8,13.1-10.8,15.8-18.8c0.2,0,0.5,0,0.7,0c1.2,0,2.2-0.3,3-0.9
			c1.6-1.1,2.5-3.2,2.9-6.4c0.1-0.5,0.1-1.1,0.1-1.7l15.3-6.4c2.3-1,4.1-2.8,5-5.1C268.5,126.6,268.5,124,267.4,121.8z M238.6,147.6
			c-2.4,7.9-7.2,13.8-15,18.5c-2.4,1.4-5.5,2.8-8.4,3.6c-5.7,1.7-14.7,8-21.9,13c-3.5,2.4-7.4,5.2-8.2,5.4c-1.8,0.2-2.9-0.4-3.5-1.7
			c-0.9-2.1,0.1-5.7,2-7.2c0.9-0.8,3.9-3.9,6.3-6.6c0.9-1.1,1.9-2.1,2.8-3.2c1.1-1.4,2-2.8,3.7-3.6c1.7-0.8,3.6-1,5.4-1.6
			c1.6-0.5,3.2-1,4.8-1.5c-0.4,0.1-1.2-0.1-1.6-0.1c-0.7,0-1.3,0-2,0c-8.2,0.3-15.9,3.7-23.2,7.2c-1,0.5-2,1-3,1.5
			c-1.8,0.9-3.5,1.8-5.3,2.7c-2.2,1.1-4,1.3-5.4,0.4c-1.5-1-2.4-3.1-2.3-5.6c0.1-2.8,1.6-6.6,5.4-8.5c1.6-0.8,3.1-1.7,4.9-2.7
			c2.4-1.4,4.7-2.7,7.2-3.9c1.7-0.9,3.4-1.8,5.1-2.6c2.1-1,4.5-1.4,6.9-1.6c2.5-0.2,4.9-0.4,7.4-0.6c-1,0.1-2.3-0.5-3.2-0.6
			c-4.2-0.7-8.4-0.5-12.6-0.3c-4.2,0.3-8.4,0.4-12.6,0.7c-1.3,0.1-2.6,0.2-3.9,0.3c-1.1,0.1-2.2,0.3-3.3,0.5c-2,0.4-3.6-0.1-4.6-1.2
			c-1.1-1.4-1.3-3.6-0.4-5.9c1.3-3.4,4.5-5.7,8.5-6.4c1.8-0.3,4-0.5,6.4-0.8c8.7-1,20.7-2.4,31.4-6.8c0.4-0.2,0.7-0.6,0.8-1
			c0-0.5-0.2-0.9-0.6-1.1c-5-2.9-10.8-7-11.5-12.3c-0.4-3,0.9-6.3,4.1-9.6l0,0c0.6-0.6,1.1-0.8,1.8-0.7c2.5,0.3,6.2,4.5,10.3,11.5
			c1,1.7,3.8,2.9,7.6,4.5c4.6,2,10.4,4.4,13.4,8.2C235.6,131.9,240,142.9,238.6,147.6z M244.8,141.7c-0.3,2.5-1,4-1.9,4.7
			c-0.5,0.3-1,0.5-1.7,0.5c0.7-6-3.5-16.3-7.1-20.8c-1.1-1.4-2.6-2.7-4.2-3.8c0.5-0.5,1.2-0.8,1.9-0.9c1.5-0.2,3.4,0.6,5.2,2
			C240.6,126.4,245.5,136.8,244.8,141.7z M265.4,128c-0.7,1.7-2,3-3.6,3.7l-14.7,6.1c-0.8-4.2-3.1-9.4-5.5-12.9l15.4-5.6
			c3.3-1.2,6.8,0.3,8.3,3.5C266,124.5,266,126.3,265.4,128z"/>
		<path d="M224.8,151.5c-0.3,0-0.6-0.2-0.8-0.4c-0.3-0.5-0.2-1.1,0.3-1.4c0.6-0.4,1.2-0.8,1.7-1.1c1.8-1.1,3.5-2.1,7-5.3
			c0.4-0.4,1-0.3,1.4,0.1c0.4,0.4,0.3,1-0.1,1.4c-3.6,3.3-5.5,4.4-7.3,5.5c-0.6,0.3-1.1,0.7-1.7,1.1
			C225.2,151.4,225,151.5,224.8,151.5z M218.8,145.5c1.1-0.5,2.2-0.9,3.2-1.3c3-1.2,6-2.4,10.6-4.8c0.5-0.3,0.7-0.9,0.4-1.3
			c-0.3-0.5-0.9-0.7-1.3-0.4c-4.5,2.4-7.5,3.6-10.4,4.8c-1,0.4-2.1,0.8-3.3,1.3c-0.5,0.2-0.7,0.8-0.5,1.3c0.2,0.4,0.5,0.6,0.9,0.6
			C218.5,145.6,218.6,145.6,218.8,145.5z M220.6,135.8c0.7-0.2,1.4-0.3,2-0.5c2.1-0.5,4.3-1.1,7.8-2.4c0.5-0.2,0.8-0.8,0.6-1.3
			c-0.2-0.5-0.8-0.8-1.3-0.6c-3.4,1.3-5.4,1.8-7.6,2.3c-0.7,0.2-1.3,0.3-2.1,0.5c-0.5,0.1-0.8,0.7-0.7,1.2c0.1,0.4,0.5,0.7,1,0.7
			C220.5,135.9,220.5,135.8,220.6,135.8z"/>
	</g>
	<g display="inline">
		<path fill="#FFFFFF" d="M301.7,91c-4.2,0-7.5-0.8-9.8-2.5c-1.8-1.3-2.9-3.1-3.3-5.3l-0.1-0.4l-0.4,0c-5.4-0.5-7.9-5.1-8.4-8.8
			c-0.5-3.6,0.6-6.8,2.8-8.5l0.5-0.4l-0.5-0.4c-4.2-3-4.6-7.2-3.7-10.2c1-3.2,4.4-6.4,9.6-6.4c0.4,0,0.8,0,1.2,0.1l0.4,0l0.2-0.9
			c0.7-3.1,2.2-9.6,10.3-12.2c1.8-0.6,4-0.9,6.4-0.9c7.1,0,15,2.6,20.6,6.7l0.3,0.2l0.3-0.3c1-0.9,2.2-1.3,3.6-1.3
			c2,0,4.3,1.1,6.3,3c0.3,0.3,0.6,0.6,0.9,1l0.2,0.3l16.6-5.4c0.9-0.3,1.8-0.4,2.7-0.4c3.4,0,6.5,2.1,7.9,5.3c0.9,2.2,0.9,4.6,0,6.7
			c-0.9,2.2-2.7,3.8-4.9,4.7L345,60.8l0,0.3c0,0.7-0.1,1.4-0.2,1.9c-0.7,3.1-1.7,4.9-3.2,5.8c-0.7,0.4-1.5,0.6-2.3,0.6
			c-0.4,0-0.7,0-1.2-0.1l-0.4-0.1l-0.2,0.4c-3.3,7.7-8.7,13.1-17.1,17.2c-2.7,1.3-6,2.4-9.2,3C307.7,90.6,304.5,91,301.7,91z"/>
		<path d="M322.2,70.6c-0.4,0-0.7-0.2-0.9-0.5c-0.3-0.5-0.1-1.1,0.4-1.4c0.7-0.4,1.3-0.7,1.8-1c1.8-0.9,3.6-1.8,7.4-4.7
			c0.4-0.3,1.1-0.2,1.4,0.2c0.3,0.4,0.3,1.1-0.2,1.4c-3.9,3-5.8,3.9-7.7,4.9c-0.6,0.3-1.1,0.6-1.8,0.9
			C322.5,70.6,322.3,70.6,322.2,70.6z M316.6,64.2c1.2-0.4,2.3-0.7,3.3-1c3-0.9,6.2-1.9,11-3.9c0.5-0.2,0.7-0.8,0.5-1.3
			c-0.2-0.5-0.8-0.7-1.3-0.5c-4.7,2-7.8,2.9-10.8,3.8c-1.1,0.3-2.2,0.7-3.4,1c-0.5,0.2-0.8,0.7-0.6,1.3c0.1,0.4,0.5,0.7,0.9,0.7
			C316.3,64.3,316.5,64.3,316.6,64.2z M319.3,54.7c0.7-0.1,1.3-0.2,2-0.3c2.2-0.3,4.4-0.7,8.1-1.7c0.5-0.1,0.8-0.7,0.7-1.2
			c-0.1-0.5-0.7-0.8-1.2-0.7c-3.5,1-5.7,1.3-7.8,1.6c-0.7,0.1-1.3,0.2-2,0.3c-0.5,0.1-0.9,0.6-0.8,1.1c0.1,0.5,0.5,0.8,1,0.8
			C319.1,54.7,319.2,54.7,319.3,54.7z"/>
		<path d="M366.8,43c-1.9-4.4-6.7-6.6-11.2-5.1l-16.2,5.3c-0.3-0.4-0.6-0.8-1-1.1c-3.7-3.5-7.7-4.1-10.5-1.7
			c-8-5.9-20.1-8.3-27.4-5.9l0,0c-8.4,2.7-9.9,9.4-10.6,12.6c0,0.2-0.1,0.4-0.1,0.5c-6-0.5-10.1,3-11.3,6.7c-1,3.1-0.5,7.6,3.9,10.7
			c-2.3,1.8-3.5,5.1-3,9c0.6,4.4,3.6,8.8,8.9,9.2c0.4,2.3,1.6,4.2,3.5,5.6c2.6,1.9,6.3,2.6,10.1,2.6c3.3,0,6.7-0.5,9.5-1.1
			c3.2-0.6,6.6-1.8,9.3-3.1c8.5-4.1,14-9.7,17.4-17.4c0.4,0.1,0.8,0.1,1.2,0.1c0.9,0,1.8-0.2,2.6-0.7c1.7-1,2.8-2.9,3.5-6.1
			c0.1-0.6,0.2-1.3,0.2-2l16.2-6.1c2.3-0.9,4.2-2.6,5.1-4.9C367.7,47.9,367.7,45.3,366.8,43z M336.1,68c-3,7.7-8.3,13.1-16.6,17.2
			c-2.5,1.2-5.7,2.3-8.7,2.9c-8.2,1.7-14.5,1.3-17.7-1.1c-1.3-1-2.1-2.2-2.4-3.8c4.1-0.4,8.7-1.2,11.5-2.8c-2.3,0.2-4.6,0.2-7,0.3
			c-1.3,0-2.6,0.1-3.9,0.2c-1.3,0.1-2.5,0.2-3.8,0c-1.1-0.2-2.1-0.7-2.9-1.4c-1.6-1.3-2.5-3.2-2.8-5.2c0-0.1-0.1-0.3-0.1-0.4
			c-0.4-2.6,0.3-5.6,2.4-6.9c0.4-0.2,0.8-0.4,1.2-0.5c0.7-0.1,1.4,0,2,0c0.8,0,1.6-0.1,2.4-0.1c1.2-0.1,2.3-0.2,3.4-0.4
			c1.4-0.3,2.8-0.7,4.2-1.2c0.2-0.1,0.5-0.1,0.7-0.2c-0.3,0.1-0.8,0-1.1,0c-0.3,0-0.7,0-1,0c-0.6,0-1.2,0-1.8,0
			c-1.1,0-2.1,0-3.2-0.1c-1.3-0.1-2.5-0.2-3.8-0.3c-1.2-0.1-2.3-0.3-3.3-0.9c-3.4-2.4-3.8-5.7-3.1-8c0.8-2.6,3.1-4.3,5.7-4.9
			c0.7-0.2,1.5-0.2,2.2-0.2c1,0,1.9,0.2,2.9,0.1c3.2-0.3,6.5-1,9.2-2.8c1.9-1.2,3.3-3,4.8-4.8c0.3-0.4,0.6-0.8,1-1.2
			c0.3-0.4,0.7-0.9,1.1-1.2c-4,3-7,6.6-15.3,7.4c0.7-3.2,2-8.5,9-10.8c8.5-2.7,24.5,1.7,30.3,10.7C334.5,52.3,337.9,63.6,336.1,68z
			 M342.8,62.7c-0.5,2.5-1.3,3.9-2.3,4.6c-0.5,0.3-1.1,0.4-1.7,0.3c1.3-6.1-2.5-17-5.2-21.3c-1-1.5-2.3-2.9-3.7-4.2
			c2.1-1.4,4.8,0,6.8,1.9C339.9,47.1,343.9,57.9,342.8,62.7z M364.5,49.2c-0.7,1.7-2.1,2.9-3.8,3.6l-15.4,5.8
			c-0.5-4.4-2.4-9.6-4.5-13.3l15.6-5.1c3.3-1.1,6.8,0.5,8.2,3.7C365.2,45.7,365.2,47.5,364.5,49.2z"/>
	</g>
</g>
<g>
	<path fill="#FFFFFF" d="M98.6,66.6c1,0,2-0.2,2.8-0.7c2.2-1.3,3.5-4,3.5-7.2c0-3.4-1.6-7.9-6-10.5c-1.6-0.9-3-1.8-4.7-2.8
		c-2.2-1.4-4.8-3-8.5-5.2l0.3-0.9c5.2,0.4,11.8,0.9,16.3,1.9c0.7,0.2,1.4,0.2,2,0.2c1.8,0,3.4-0.6,4.5-1.9c1.7-1.9,2.1-4.8,1.1-7.8
		c-1.4-4.1-5-7.1-9.7-8c-4.3-0.9-8.3-1.3-12.1-1.7c-3.5-0.4-6.7-0.7-10.3-1.3l-0.4-0.1l0-0.4c0-0.2,0-0.5-0.1-0.7
		c-0.3-3.2-0.9-9.8-8.6-13.5c-2.7-1.3-6.3-2-10.3-2c-6,0-12.3,1.5-17.2,4.2l-0.3,0.2l-0.3-0.3C39.4,7,38,6.4,36.4,6.4
		c-1.8,0-3.9,0.8-5.8,2.2c-0.1,0.1-0.2,0.2-0.3,0.3L30,9.1L12.6,1.3c-1.1-0.5-2.3-0.8-3.6-0.8c-3.1,0-6,1.7-7.5,4.4
		C0.4,7,0.2,9.4,0.9,11.6c0.7,2.3,2.2,4.1,4.3,5.2L21.4,25l-0.1,0.4c-0.2,1.1-0.3,2-0.2,2.8c0.3,3.1,1,5.1,2.5,6.2
		c0.8,0.6,1.8,1,3,1c0.1,0,0.2,0,0.3,0l0.5,0l0.1,0.4c2.3,8,6.9,14.1,14.7,19.3c2.5,1.6,5.7,3.2,8.7,4.2c2.3,0.7,4.6,1.1,6.9,1.1
		c5,0,10.3-1.7,15.7-5.1l0.2-0.1l0.2,0.1c5.8,2.3,12.9,5.9,20,10C95.6,66.1,97.2,66.6,98.6,66.6z"/>
	<path d="M42.1,38.4c-0.6-0.4-1.1-0.8-1.6-1.1c-1.7-1.2-3.5-2.4-7-5.8c-0.4-0.4-0.4-1,0-1.4c0.4-0.4,1-0.4,1.4,0
		c3.3,3.3,5.1,4.5,6.7,5.6c0.5,0.4,1.1,0.7,1.7,1.2c0.4,0.3,0.5,0.9,0.2,1.4c-0.2,0.3-0.5,0.4-0.8,0.4
		C42.5,38.6,42.3,38.6,42.1,38.4z M49.4,33.1c0.4,0,0.7-0.2,0.9-0.6c0.2-0.5,0-1.1-0.5-1.3c-1.1-0.5-2.2-1-3.2-1.5
		c-2.8-1.3-5.8-2.6-10.2-5.2c-0.5-0.3-1.1-0.1-1.4,0.3c-0.3,0.5-0.1,1.1,0.3,1.4c4.5,2.7,7.5,4,10.4,5.3c1,0.5,2.1,0.9,3.2,1.5
		C49.1,33.1,49.3,33.1,49.4,33.1z M47.8,23.2c0.4,0,0.8-0.3,1-0.7c0.2-0.5-0.1-1.1-0.7-1.2c-0.7-0.2-1.3-0.4-2-0.6
		c-2.1-0.6-4.2-1.2-7.6-2.6c-0.5-0.2-1.1,0-1.3,0.5c-0.2,0.5,0,1.1,0.5,1.3c3.5,1.5,5.7,2.1,7.8,2.7c0.6,0.2,1.3,0.4,1.9,0.6
		C47.6,23.2,47.7,23.2,47.8,23.2z"/>
	<path d="M0.4,11.7c0.7,2.4,2.4,4.3,4.6,5.4l15.9,8.1c-0.2,1.1-0.3,2.1-0.2,3c0.3,3.3,1.1,5.3,2.6,6.5c0.9,0.7,2,1.1,3.3,1.1
		c0.1,0,0.3,0,0.4,0c2.3,8.1,7.1,14.4,14.9,19.6c2.5,1.7,5.7,3.2,8.8,4.3c7.3,2.4,15,1,23.1-4c5.8,2.3,12.9,5.9,19.9,10
		c1.9,1.1,3.4,1.5,4.8,1.5c1.3,0,2.3-0.4,3.1-0.8c2.3-1.3,3.7-4.2,3.7-7.6c0-3.5-1.7-8.3-6.3-10.9c-1.6-0.9-3-1.8-4.6-2.8
		c-2.2-1.4-4.8-3-8.6-5.2c5.6,0.4,11.8,0.9,16.2,1.9c2.9,0.6,5.3,0,7-1.8c1.8-2,2.2-5.1,1.2-8.3c-1.4-4.3-5.2-7.4-10.1-8.4
		c-4.4-0.9-8.3-1.3-12.1-1.7c-3.4-0.4-6.7-0.7-10.2-1.3c0-0.2,0-0.5-0.1-0.7c-0.3-3.3-0.9-10.1-8.9-13.9l0,0c-7-3.3-19.3-2.5-28,2.3
		c-2.5-2.8-6.6-2.7-10.6,0.3c-0.1,0.1-0.2,0.2-0.3,0.3L12.8,0.8c-4.3-2-9.4-0.3-11.7,3.9C-0.1,6.9-0.3,9.4,0.4,11.7z M36.4,14.5
		c7-8.1,23.4-10.5,31.4-6.7c6.7,3.2,7.2,8.6,7.5,11.8c-8.2-1.9-10.6-5.9-14.2-9.4c0.5,0.5,0.9,1.3,1.3,1.9c1.3,2,2.4,4.1,4.2,5.7
		c2.5,2.3,5.9,3.5,9.1,4.3c3.9,1,8.1,1.3,12.1,1.7c3.8,0.4,7.6,0.8,11.9,1.6c4,0.8,7.1,3.3,8.2,6.7c0.8,2.3,0.5,4.5-0.7,5.9
		c-1,1.1-2.6,1.5-4.6,1c-2.4-0.5-4.7-0.9-7.2-1.1c-5.6-0.4-11.2-1.1-16.9-1.5c-3.1-0.2-6.3-0.3-9.4,0.2c-0.4,0.1-0.8,0.1-1.2,0.2
		c-0.3,0-0.7,0.2-1,0.1c2.5,0.3,5.1,0.6,7.6,1c1.4,0.2,2.8,0.4,4.2,0.8c1.5,0.4,2.8,1.2,4.1,1.9c1.4,0.8,2.8,1.6,4.2,2.4
		c2,1.2,4.1,2.5,6.1,3.7c1.7,1.1,3.1,2,4.7,2.9c3.7,2.1,5,5.9,5,8.8c0,2.5-1,4.6-2.5,5.5C99,65,97.1,64.7,95,63.5
		c-7.4-4.3-14.8-8-20.9-10.4l0,0c-4.3-1.7-9.9-2.7-13.7-2.4c3.8,1.4,7,2.6,10.5,3.8c-6.8,3.8-13.3,4.8-19.3,2.8
		c-2.9-1-5.9-2.4-8.3-4c-7.7-5.1-12.2-11.1-14.2-19.2C28,29.5,32.7,18.8,36.4,14.5z M31.7,10.2c2.2-1.6,5.1-2.7,7-1
		c-1.6,1.1-3,2.3-4.2,3.7c-3.3,3.9-8.4,14.3-8,20.4c-0.7,0-1.2-0.2-1.7-0.5c-0.9-0.7-1.5-2.3-1.7-4.8C22.7,23.1,28,12.9,31.7,10.2z
		 M3.3,5.9C5,2.8,8.6,1.6,11.8,3L28,10.4c-2.6,3.1-5.3,8.1-6.6,12.5L6.1,15c-1.6-0.8-2.8-2.2-3.3-4C2.2,9.3,2.4,7.5,3.3,5.9z"/>
</g>
<g display="none">
	<path display="inline" fill="#FFFFFF" d="M71.8,190.1c2.9,0,4.2-1.6,4.7-2.9c1.2-2.9,0-7.3-2.6-9.5c-1.4-1.2-6.3-6.4-8.8-9.6
		l-1.1-1.4l1.7,0.6c5.5,2.1,11.9,5,18.3,8.3c1.5,0.8,3,1.2,4.3,1.2c1.1,0,2.2-0.3,3.1-0.9c2.1-1.3,3.3-4.1,3.2-7.4
		c-0.2-3.4-1.9-7.9-6.5-10.2c-1.6-0.8-3.1-1.7-4.8-2.6c-2.3-1.3-4.9-2.8-8.8-4.8l0.2-0.9c5.3,0.2,11.8,0.4,16.3,1.2
		c0.6,0.1,1.1,0.1,1.6,0.1c2,0,3.7-0.7,4.8-2.1c1.6-1.9,1.9-4.9,0.8-7.8c-1.5-4-5.3-6.9-10.1-7.6c-1.9-0.3-4-0.5-6.5-0.8
		c-7.9-0.9-18.7-2.2-28.6-5.8l-0.9-0.3l0.8-0.5c4.1-2.6,9.5-6.7,10.3-12.4c0.5-3.7-1-7.4-4.6-11.2l0,0c-0.9-0.9-1.8-1.3-2.9-1.3
		c-0.2,0-0.3,0-0.5,0c-3.2,0.4-7.2,4.6-11.8,12.5c-0.6,1-2.9,2.1-6.7,3.7c-2.5,1.1-5.4,2.3-8,3.8l-0.3,0.2l-0.3-0.3
		c-0.9-1-2.1-1.7-3.5-1.8c-0.2,0-0.4,0-0.6,0c-1.9,0-4,0.9-6,2.5c-0.4,0.3-0.8,0.7-1.2,1.2l-0.2,0.2l-16.5-6c-1-0.3-2-0.5-3-0.5
		c-3.4,0-6.3,1.9-7.8,5c-1,2.1-1.1,4.5-0.2,6.7c0.9,2.2,2.5,3.9,4.7,4.8L9.5,140l0,0.3c0,0.6,0,1.1,0.1,1.6c0.4,3.1,1.3,5,2.7,6.1
		c0.8,0.6,1.7,0.8,2.8,0.8c0.2,0,0.4,0,0.6,0l0.4,0l0.1,0.4c2.6,7.9,7.6,13.8,15.6,18.6c2.6,1.5,5.8,2.9,8.9,3.8
		c5.4,1.6,14.6,8,21.3,12.8c5.8,4.1,8.1,5.7,9.2,5.8C71.4,190.1,71.6,190.1,71.8,190.1z"/>
	<path display="inline" d="M-11.3,128.9c0.9,2.3,2.7,4.1,5,5.1L9,140.4c0,0.6,0,1.2,0.1,1.7c0.4,3.2,1.4,5.3,2.9,6.4
		c0.9,0.6,1.9,0.9,3,0.9c0.2,0,0.5,0,0.7,0c2.7,8,7.7,14,15.8,18.8c2.6,1.5,5.9,3,9,3.9c5.3,1.6,14.5,8,21.1,12.7
		c6,4.2,8.2,5.7,9.4,5.8c0.3,0,0.5,0,0.8,0c3.3,0,4.6-2,5.2-3.2c1.3-3.1,0-7.8-2.7-10.1c-1.4-1.1-6.2-6.4-8.8-9.5
		c5.5,2.1,11.8,4.9,18.2,8.3c3.8,2,6.4,1.3,7.9,0.3c2.3-1.4,3.5-4.4,3.4-7.8c-0.2-3.5-2-8.2-6.8-10.6c-1.6-0.8-3.1-1.7-4.8-2.6
		c-2.3-1.3-4.9-2.8-8.8-4.8c5.6,0.2,11.8,0.4,16.3,1.2c2.9,0.5,5.3-0.2,6.9-2.1c1.7-2.1,2-5.2,0.8-8.3c-1.6-4.2-5.5-7.1-10.4-7.9
		c-1.9-0.3-4-0.5-6.5-0.8c-8-0.9-18.7-2.1-28.5-5.8c4.9-3.1,9.8-7.2,10.6-12.7c0.5-3.8-1.1-7.7-4.7-11.6l0,0
		c-1.1-1.1-2.4-1.6-3.8-1.5c-3.4,0.4-7.5,4.7-12.1,12.7c-0.6,1-3.6,2.2-6.5,3.5c-2.6,1.1-5.4,2.3-8.1,3.8c-1-1.1-2.3-1.8-3.8-2
		c-2.2-0.2-4.7,0.7-7,2.6c-0.4,0.3-0.9,0.8-1.3,1.3L0.2,117c-4.5-1.6-9.3,0.4-11.3,4.7C-12.1,124-12.2,126.6-11.3,128.9z
		 M24.1,127.7c3-3.8,8.8-6.2,13.4-8.2c3.9-1.6,6.7-2.8,7.6-4.5c4.1-7,7.8-11.2,10.3-11.5c0.7-0.1,1.3,0.2,1.8,0.7l0,0
		c3.1,3.3,4.5,6.5,4.1,9.6c-0.7,5.3-6.5,9.3-11.5,12.3c-0.4,0.2-0.6,0.7-0.6,1.1c0,0.5,0.3,0.9,0.8,1c10.7,4.5,22.7,5.8,31.4,6.8
		c2.5,0.3,4.6,0.5,6.4,0.8c4.1,0.6,7.2,3,8.5,6.4c0.9,2.2,0.7,4.5-0.4,5.9c-1,1.2-2.5,1.6-4.6,1.2c-1.1-0.2-2.2-0.3-3.3-0.5
		c-1.3-0.1-2.6-0.2-3.9-0.3c-4.2-0.3-8.4-0.4-12.6-0.7c-4.2-0.3-8.4-0.4-12.6,0.3c-1,0.2-2.3,0.7-3.2,0.6c2.5,0.2,4.9,0.4,7.4,0.6
		c2.3,0.2,4.7,0.5,6.9,1.6c1.7,0.8,3.4,1.7,5.1,2.6c2.4,1.3,4.8,2.6,7.2,3.9c1.7,1,3.2,1.8,4.9,2.7c3.8,2,5.3,5.7,5.4,8.5
		c0.1,2.5-0.7,4.7-2.3,5.6c-1.4,0.9-3.2,0.7-5.4-0.4c-1.8-0.9-3.5-1.8-5.3-2.7c-1-0.5-2-1-3-1.5c-7.3-3.5-15-6.8-23.2-7.2
		c-0.7,0-1.3,0-2,0c-0.4,0-1.2,0.2-1.6,0.1c1.6,0.5,3.2,1,4.8,1.5c1.8,0.6,3.7,0.8,5.4,1.6c1.7,0.8,2.6,2.2,3.7,3.6
		c0.9,1.1,1.8,2.2,2.8,3.2c2.4,2.7,5.3,5.8,6.3,6.6c1.9,1.6,2.9,5.2,2,7.2c-0.5,1.3-1.7,1.8-3.5,1.7c-0.8-0.2-4.8-3-8.2-5.4
		c-7.2-5.1-16.1-11.4-21.9-13c-2.9-0.9-6-2.2-8.4-3.6c-7.9-4.7-12.7-10.6-15-18.5C16.3,142.9,20.7,131.9,24.1,127.7z M19.2,123.5
		c1.8-1.5,3.7-2.2,5.2-2c0.7,0.1,1.4,0.4,1.9,0.9c-1.6,1.1-3.1,2.3-4.2,3.8c-3.6,4.5-7.8,14.8-7.1,20.8c-0.7,0-1.2-0.1-1.7-0.5
		c-1-0.7-1.6-2.3-1.9-4.7C10.8,136.8,15.7,126.4,19.2,123.5z M-8.9,122.8c1.5-3.2,5-4.6,8.3-3.5l15.4,5.6c-2.4,3.5-4.7,8.7-5.5,12.9
		l-14.7-6.1c-1.7-0.7-3-2-3.6-3.7C-9.7,126.3-9.6,124.5-8.9,122.8z"/>
	<path display="inline" d="M30.9,151.3c-0.6-0.4-1.1-0.7-1.7-1.1c-1.8-1.1-3.6-2.2-7.3-5.5c-0.4-0.4-0.4-1-0.1-1.4
		c0.4-0.4,1-0.4,1.4-0.1c3.5,3.2,5.2,4.2,7,5.3c0.6,0.3,1.1,0.7,1.7,1.1c0.5,0.3,0.6,0.9,0.3,1.4c-0.2,0.3-0.5,0.4-0.8,0.4
		C31.3,151.5,31.1,151.4,30.9,151.3z M37.9,145.6c0.4,0,0.8-0.2,0.9-0.6c0.2-0.5,0-1.1-0.5-1.3c-1.1-0.5-2.2-0.9-3.3-1.3
		c-2.9-1.2-5.9-2.3-10.4-4.8c-0.5-0.3-1.1-0.1-1.3,0.4c-0.3,0.5-0.1,1.1,0.4,1.3c4.6,2.5,7.7,3.7,10.6,4.8c1,0.4,2.1,0.8,3.2,1.3
		C37.7,145.6,37.8,145.6,37.9,145.6z M35.9,135.9c0.4,0,0.8-0.3,1-0.7c0.1-0.5-0.2-1.1-0.7-1.2c-0.7-0.2-1.4-0.3-2.1-0.5
		c-2.2-0.5-4.2-1-7.6-2.3c-0.5-0.2-1.1,0.1-1.3,0.6c-0.2,0.5,0.1,1.1,0.6,1.3c3.5,1.3,5.7,1.8,7.8,2.4c0.7,0.2,1.3,0.3,2,0.5
		C35.8,135.8,35.9,135.9,35.9,135.9z"/>
</g>
<g display="none">
	<path display="inline" fill="#FFFFFF" d="M-45.4,91c4.2,0,7.5-0.8,9.8-2.5c1.8-1.3,2.9-3.1,3.3-5.3l0.1-0.4l0.4,0
		c5.4-0.5,7.9-5.1,8.4-8.8c0.5-3.6-0.6-6.8-2.8-8.5l-0.5-0.4l0.5-0.4c4.2-3,4.6-7.2,3.7-10.2c-1-3.2-4.4-6.4-9.6-6.4
		c-0.4,0-0.8,0-1.2,0.1l-0.4,0l-0.2-0.9c-0.7-3.1-2.2-9.6-10.3-12.2c-1.8-0.6-4-0.9-6.4-0.9c-7.1,0-15,2.6-20.6,6.7l-0.3,0.2
		l-0.3-0.3c-1-0.9-2.2-1.3-3.6-1.3c-2,0-4.3,1.1-6.3,3c-0.3,0.3-0.6,0.6-0.9,1l-0.2,0.3l-16.6-5.4c-0.9-0.3-1.8-0.4-2.7-0.4
		c-3.4,0-6.5,2.1-7.9,5.3c-0.9,2.2-0.9,4.6,0,6.7c0.9,2.2,2.7,3.8,4.9,4.7l16.5,6.2l0,0.3c0,0.7,0.1,1.4,0.2,1.9
		c0.7,3.1,1.7,4.9,3.2,5.8c0.7,0.4,1.5,0.6,2.3,0.6c0.4,0,0.7,0,1.2-0.1l0.4-0.1l0.2,0.4c3.3,7.7,8.7,13.1,17.1,17.2
		c2.7,1.3,6,2.4,9.2,3C-51.4,90.6-48.2,91-45.4,91z"/>
	<path display="inline" d="M-66.3,70.5c-0.6-0.3-1.2-0.6-1.8-0.9c-1.9-0.9-3.8-1.9-7.7-4.9c-0.4-0.3-0.5-1-0.2-1.4
		c0.3-0.4,1-0.5,1.4-0.2c3.8,2.9,5.6,3.8,7.4,4.7c0.6,0.3,1.2,0.6,1.8,1c0.5,0.3,0.7,0.9,0.4,1.4c-0.2,0.3-0.5,0.5-0.9,0.5
		C-66,70.6-66.2,70.6-66.3,70.5z M-59.9,64.3c0.4,0,0.8-0.3,0.9-0.7c0.2-0.5-0.1-1.1-0.6-1.3c-1.2-0.4-2.3-0.7-3.4-1
		c-3-0.9-6.1-1.8-10.8-3.8c-0.5-0.2-1.1,0-1.3,0.5s0,1.1,0.5,1.3c4.8,2.1,7.9,3,11,3.9c1.1,0.3,2.2,0.7,3.3,1
		C-60.1,64.3-60,64.3-59.9,64.3z M-62.8,54.7c0.5,0,0.9-0.3,1-0.8c0.1-0.5-0.3-1.1-0.8-1.1c-0.7-0.1-1.4-0.2-2-0.3
		c-2.1-0.3-4.3-0.7-7.8-1.6c-0.5-0.1-1.1,0.2-1.2,0.7c-0.1,0.5,0.2,1.1,0.7,1.2c3.6,1,5.9,1.4,8.1,1.7c0.7,0.1,1.3,0.2,2,0.3
		C-62.9,54.7-62.8,54.7-62.8,54.7z"/>
	<path display="inline" d="M-110.4,50.1c1,2.3,2.8,4,5.1,4.9l16.2,6.1c0,0.7,0.1,1.4,0.2,2c0.7,3.2,1.8,5.2,3.5,6.1
		c0.8,0.4,1.6,0.7,2.6,0.7c0.4,0,0.8,0,1.2-0.1c3.3,7.8,8.9,13.3,17.4,17.4c2.7,1.3,6.1,2.4,9.3,3.1c2.9,0.6,6.3,1.1,9.5,1.1
		c3.8,0,7.5-0.7,10.1-2.6c1.9-1.4,3-3.3,3.5-5.6c5.3-0.5,8.3-4.9,8.9-9.2c0.5-3.8-0.7-7.2-3-9c4.4-3.1,4.9-7.6,3.9-10.7
		c-1.2-3.7-5.2-7.3-11.3-6.7c0-0.2-0.1-0.3-0.1-0.5c-0.7-3.2-2.2-9.9-10.6-12.6l0,0c-7.4-2.4-19.4,0-27.5,5.9
		c-2.8-2.4-6.9-1.8-10.5,1.7c-0.3,0.3-0.6,0.7-1,1.1l-16.2-5.3c-4.5-1.5-9.3,0.7-11.2,5.1C-111.4,45.3-111.4,47.9-110.4,50.1z
		 M-75.2,47.6c5.8-8.9,21.8-13.4,30.3-10.7c7,2.3,8.2,7.6,9,10.8c-8.4-0.8-11.3-4.4-15.3-7.4c0.4,0.3,0.8,0.8,1.1,1.2
		c0.3,0.4,0.7,0.8,1,1.2c1.4,1.8,2.8,3.5,4.8,4.8c2.7,1.7,6,2.5,9.2,2.8c1,0.1,1.9-0.1,2.9-0.1c0.7,0,1.5,0,2.2,0.2
		c2.6,0.5,4.9,2.3,5.7,4.9c0.8,2.3,0.3,5.6-3.1,8c-1.1,0.6-2.1,0.8-3.3,0.9c-1.3,0.1-2.5,0.2-3.8,0.3c-1.1,0.1-2.1,0.1-3.2,0.1
		c-0.6,0-1.2,0-1.8,0c-0.3,0-0.7,0-1,0c-0.3,0-0.8,0.1-1.1,0c0.2,0.1,0.5,0.1,0.7,0.2c1.4,0.4,2.8,0.9,4.2,1.2
		c1.1,0.2,2.3,0.3,3.4,0.4c0.8,0,1.6,0.1,2.4,0.1c0.7,0,1.4-0.1,2,0c0.4,0.1,0.9,0.2,1.2,0.5c2.1,1.3,2.8,4.3,2.4,6.9
		c0,0.1,0,0.3-0.1,0.4c-0.4,2-1.3,3.9-2.8,5.2c-0.8,0.7-1.9,1.2-2.9,1.4c-1.2,0.3-2.5,0.1-3.8,0c-1.3-0.1-2.6-0.1-3.9-0.2
		c-2.3-0.1-4.6-0.1-7-0.3c2.9,1.6,7.4,2.5,11.5,2.8c-0.4,1.6-1.2,2.8-2.4,3.8c-3.2,2.4-9.5,2.8-17.7,1.1c-3-0.6-6.2-1.7-8.7-2.9
		c-8.3-4-13.6-9.5-16.6-17.2C-81.5,63.6-78.2,52.3-75.2,47.6z M-80.4,43.9c2-1.9,4.7-3.3,6.8-1.9c-1.4,1.3-2.7,2.7-3.7,4.2
		c-2.7,4.3-6.5,15.2-5.2,21.3c-0.7,0.1-1.3,0-1.7-0.3c-1-0.6-1.8-2.1-2.3-4.6C-87.6,57.9-83.6,47.1-80.4,43.9z M-108.2,44
		c1.4-3.2,4.9-4.8,8.2-3.7l15.6,5.1c-2.1,3.6-4,8.9-4.5,13.3l-15.4-5.8c-1.7-0.6-3-1.9-3.8-3.6C-108.9,47.5-108.9,45.7-108.2,44z"/>
</g>
</svg>
